<svg viewBox="-914.3019962098624 -3876.8943350419513 2688.177875307011 3876.8943350419513" xmlns="http://www.w3.org/2000/svg"><line x1="0" y1="0" x2="-1.8369701987210297E-14" y2="-100.0" stroke-width="4" stroke="black" />
<line x1="-1.8369701987210297E-14" y1="-100.0" x2="-3.6739403974420595E-14" y2="-200.0" stroke-width="4" stroke="black" />
<line x1="-3.6739403974420595E-14" y1="-200.0" x2="-5.510910596163089E-14" y2="-300.0" stroke-width="4" stroke="black" />
<line x1="-5.510910596163089E-14" y1="-300.0" x2="-7.347880794884119E-14" y2="-400.0" stroke-width="4" stroke="black" />
<line x1="-7.347880794884119E-14" y1="-400.0" x2="-9.184850993605149E-14" y2="-500.0" stroke-width="4" stroke="black" />
<line x1="-9.184850993605149E-14" y1="-500.0" x2="-1.1021821192326178E-13" y2="-600.0" stroke-width="4" stroke="black" />
<line x1="-1.1021821192326178E-13" y1="-600.0" x2="-1.2858791391047208E-13" y2="-700.0" stroke-width="4" stroke="black" />
<line x1="-1.2858791391047208E-13" y1="-700.0" x2="-1.4695761589768238E-13" y2="-800.0" stroke-width="4" stroke="black" />
<line x1="-1.4695761589768238E-13" y1="-800.0" x2="-42.261826174070066" y2="-890.630778703665" stroke-width="4" stroke="black" />
<line x1="-42.261826174070066" y1="-890.630778703665" x2="-84.52365234813999" y2="-981.26155740733" stroke-width="4" stroke="black" />
<line x1="-84.52365234813999" y1="-981.26155740733" x2="-126.7854785222099" y2="-1071.892336110995" stroke-width="4" stroke="black" />
<line x1="-126.7854785222099" y1="-1071.892336110995" x2="-169.0473046962798" y2="-1162.5231148146602" stroke-width="4" stroke="black" />
<line x1="-169.0473046962798" y1="-1162.5231148146602" x2="-245.6517490081776" y2="-1226.801875783314" stroke-width="4" stroke="black" />
<line x1="-245.6517490081776" y1="-1226.801875783314" x2="-322.2561933200754" y2="-1291.0806367519679" stroke-width="4" stroke="black" />
<line x1="-322.2561933200754" y1="-1291.0806367519679" x2="-418.8487759489822" y2="-1316.96254126222" stroke-width="4" stroke="black" />
<line x1="-418.8487759489822" y1="-1316.96254126222" x2="-515.4413585778891" y2="-1342.844445772472" stroke-width="4" stroke="black" />
<line x1="-515.4413585778891" y1="-1342.844445772472" x2="-592.045802889787" y2="-1407.1232067411258" stroke-width="4" stroke="black" />
<line x1="-322.2561933200754" y1="-1291.0806367519679" x2="-398.8606376319732" y2="-1355.3593977206217" stroke-width="4" stroke="black" />
<line x1="-398.8606376319732" y1="-1355.3593977206217" x2="-475.465081943871" y2="-1419.6381586892755" stroke-width="4" stroke="black" />
<line x1="-475.465081943871" y1="-1419.6381586892755" x2="-517.7269081179409" y2="-1510.2689373929406" stroke-width="4" stroke="black" />
<line x1="-322.2561933200754" y1="-1291.0806367519679" x2="-398.8606376319732" y2="-1355.3593977206217" stroke-width="4" stroke="black" />
<line x1="-398.8606376319732" y1="-1355.3593977206217" x2="-475.465081943871" y2="-1419.6381586892755" stroke-width="4" stroke="black" />
<line x1="-475.465081943871" y1="-1419.6381586892755" x2="-517.7269081179409" y2="-1510.2689373929406" stroke-width="4" stroke="black" />
<line x1="-517.7269081179409" y1="-1510.2689373929406" x2="-559.9887342920108" y2="-1600.8997160966057" stroke-width="4" stroke="black" />
<line x1="-559.9887342920108" y1="-1600.8997160966057" x2="-602.2505604660807" y2="-1691.5304948002708" stroke-width="4" stroke="black" />
<line x1="-602.2505604660807" y1="-1691.5304948002708" x2="-644.5123866401507" y2="-1782.161273503936" stroke-width="4" stroke="black" />
<line x1="-644.5123866401507" y1="-1782.161273503936" x2="-644.5123866401507" y2="-1882.161273503936" stroke-width="4" stroke="black" />
<line x1="-475.465081943871" y1="-1419.6381586892755" x2="-572.0576645727779" y2="-1445.5200631995276" stroke-width="4" stroke="black" />
<line x1="-572.0576645727779" y1="-1445.5200631995276" x2="-668.6502472016847" y2="-1471.4019677097797" stroke-width="4" stroke="black" />
<line x1="-668.6502472016847" y1="-1471.4019677097797" x2="-745.2546915135825" y2="-1535.6807286784335" stroke-width="4" stroke="black" />
<line x1="-169.0473046962798" y1="-1162.5231148146602" x2="-211.30913087034972" y2="-1253.1538935183253" stroke-width="4" stroke="black" />
<line x1="-211.30913087034972" y1="-1253.1538935183253" x2="-253.57095704441963" y2="-1343.7846722219904" stroke-width="4" stroke="black" />
<line x1="-253.57095704441963" y1="-1343.7846722219904" x2="-330.1754013563174" y2="-1408.0634331906442" stroke-width="4" stroke="black" />
<line x1="-330.1754013563174" y1="-1408.0634331906442" x2="-406.7798456682152" y2="-1472.342194159298" stroke-width="4" stroke="black" />
<line x1="-406.7798456682152" y1="-1472.342194159298" x2="-449.04167184228515" y2="-1562.9729728629632" stroke-width="4" stroke="black" />
<line x1="-253.57095704441963" y1="-1343.7846722219904" x2="-295.83278321848957" y2="-1434.4154509256555" stroke-width="4" stroke="black" />
<line x1="-295.83278321848957" y1="-1434.4154509256555" x2="-338.0946093925595" y2="-1525.0462296293206" stroke-width="4" stroke="black" />
<line x1="-338.0946093925595" y1="-1525.0462296293206" x2="-338.0946093925595" y2="-1625.0462296293206" stroke-width="4" stroke="black" />
<line x1="-253.57095704441963" y1="-1343.7846722219904" x2="-295.83278321848957" y2="-1434.4154509256555" stroke-width="4" stroke="black" />
<line x1="-295.83278321848957" y1="-1434.4154509256555" x2="-338.0946093925595" y2="-1525.0462296293206" stroke-width="4" stroke="black" />
<line x1="-338.0946093925595" y1="-1525.0462296293206" x2="-338.0946093925595" y2="-1625.0462296293206" stroke-width="4" stroke="black" />
<line x1="-338.0946093925595" y1="-1625.0462296293206" x2="-338.0946093925595" y2="-1725.0462296293206" stroke-width="4" stroke="black" />
<line x1="-338.0946093925595" y1="-1725.0462296293206" x2="-338.0946093925595" y2="-1825.0462296293206" stroke-width="4" stroke="black" />
<line x1="-338.0946093925595" y1="-1825.0462296293206" x2="-338.0946093925595" y2="-1925.0462296293206" stroke-width="4" stroke="black" />
<line x1="-338.0946093925595" y1="-1925.0462296293206" x2="-295.83278321848957" y2="-2015.6770083329857" stroke-width="4" stroke="black" />
<line x1="-338.0946093925595" y1="-1525.0462296293206" x2="-414.6990537044573" y2="-1589.3249905979744" stroke-width="4" stroke="black" />
<line x1="-414.6990537044573" y1="-1589.3249905979744" x2="-491.3034980163551" y2="-1653.6037515666283" stroke-width="4" stroke="black" />
<line x1="-491.3034980163551" y1="-1653.6037515666283" x2="-533.565324190425" y2="-1744.2345302702934" stroke-width="4" stroke="black" />
<line x1="-169.0473046962798" y1="-1162.5231148146602" x2="-211.30913087034972" y2="-1253.1538935183253" stroke-width="4" stroke="black" />
<line x1="-211.30913087034972" y1="-1253.1538935183253" x2="-253.57095704441963" y2="-1343.7846722219904" stroke-width="4" stroke="black" />
<line x1="-253.57095704441963" y1="-1343.7846722219904" x2="-295.83278321848957" y2="-1434.4154509256555" stroke-width="4" stroke="black" />
<line x1="-295.83278321848957" y1="-1434.4154509256555" x2="-338.0946093925595" y2="-1525.0462296293206" stroke-width="4" stroke="black" />
<line x1="-338.0946093925595" y1="-1525.0462296293206" x2="-338.0946093925595" y2="-1625.0462296293206" stroke-width="4" stroke="black" />
<line x1="-338.0946093925595" y1="-1625.0462296293206" x2="-338.0946093925595" y2="-1725.0462296293206" stroke-width="4" stroke="black" />
<line x1="-338.0946093925595" y1="-1725.0462296293206" x2="-338.0946093925595" y2="-1825.0462296293206" stroke-width="4" stroke="black" />
<line x1="-338.0946093925595" y1="-1825.0462296293206" x2="-338.0946093925595" y2="-1925.0462296293206" stroke-width="4" stroke="black" />
<line x1="-338.0946093925595" y1="-1925.0462296293206" x2="-338.0946093925595" y2="-2025.0462296293206" stroke-width="4" stroke="black" />
<line x1="-338.0946093925595" y1="-2025.0462296293206" x2="-338.0946093925595" y2="-2125.046229629321" stroke-width="4" stroke="black" />
<line x1="-338.0946093925595" y1="-2125.046229629321" x2="-380.35643556662944" y2="-2215.6770083329857" stroke-width="4" stroke="black" />
<line x1="-380.35643556662944" y1="-2215.6770083329857" x2="-422.6182617406994" y2="-2306.3077870366506" stroke-width="4" stroke="black" />
<line x1="-422.6182617406994" y1="-2306.3077870366506" x2="-422.6182617406994" y2="-2406.3077870366506" stroke-width="4" stroke="black" />
<line x1="-338.0946093925595" y1="-2125.046229629321" x2="-338.0946093925595" y2="-2225.046229629321" stroke-width="4" stroke="black" />
<line x1="-338.0946093925595" y1="-2225.046229629321" x2="-338.0946093925595" y2="-2325.046229629321" stroke-width="4" stroke="black" />
<line x1="-338.0946093925595" y1="-2325.046229629321" x2="-295.83278321848957" y2="-2415.6770083329857" stroke-width="4" stroke="black" />
<line x1="-338.0946093925595" y1="-2125.046229629321" x2="-338.0946093925595" y2="-2225.046229629321" stroke-width="4" stroke="black" />
<line x1="-338.0946093925595" y1="-2225.046229629321" x2="-338.0946093925595" y2="-2325.046229629321" stroke-width="4" stroke="black" />
<line x1="-338.0946093925595" y1="-2325.046229629321" x2="-295.83278321848957" y2="-2415.6770083329857" stroke-width="4" stroke="black" />
<line x1="-295.83278321848957" y1="-2415.6770083329857" x2="-253.5709570444196" y2="-2506.3077870366506" stroke-width="4" stroke="black" />
<line x1="-253.5709570444196" y1="-2506.3077870366506" x2="-211.30913087034963" y2="-2596.9385657403154" stroke-width="4" stroke="black" />
<line x1="-211.30913087034963" y1="-2596.9385657403154" x2="-169.04730469627967" y2="-2687.5693444439803" stroke-width="4" stroke="black" />
<line x1="-169.04730469627967" y1="-2687.5693444439803" x2="-92.44286038438189" y2="-2751.848105412634" stroke-width="4" stroke="black" />
<line x1="-338.0946093925595" y1="-2325.046229629321" x2="-380.35643556662944" y2="-2415.6770083329857" stroke-width="4" stroke="black" />
<line x1="-380.35643556662944" y1="-2415.6770083329857" x2="-422.6182617406994" y2="-2506.3077870366506" stroke-width="4" stroke="black" />
<line x1="-422.6182617406994" y1="-2506.3077870366506" x2="-422.6182617406994" y2="-2606.3077870366506" stroke-width="4" stroke="black" />
<line x1="-338.0946093925595" y1="-1525.0462296293206" x2="-414.6990537044573" y2="-1589.3249905979744" stroke-width="4" stroke="black" />
<line x1="-414.6990537044573" y1="-1589.3249905979744" x2="-491.3034980163551" y2="-1653.6037515666283" stroke-width="4" stroke="black" />
<line x1="-491.3034980163551" y1="-1653.6037515666283" x2="-587.8960806452619" y2="-1679.4856560768803" stroke-width="4" stroke="black" />
<line x1="-587.8960806452619" y1="-1679.4856560768803" x2="-684.4886632741687" y2="-1705.3675605871324" stroke-width="4" stroke="black" />
<line x1="-684.4886632741687" y1="-1705.3675605871324" x2="-761.0931075860666" y2="-1769.6463215557862" stroke-width="4" stroke="black" />
<line x1="-491.3034980163551" y1="-1653.6037515666283" x2="-567.907942328253" y2="-1717.882512535282" stroke-width="4" stroke="black" />
<line x1="-567.907942328253" y1="-1717.882512535282" x2="-644.5123866401508" y2="-1782.161273503936" stroke-width="4" stroke="black" />
<line x1="-644.5123866401508" y1="-1782.161273503936" x2="-686.7742128142207" y2="-1872.792052207601" stroke-width="4" stroke="black" />
<line x1="-491.3034980163551" y1="-1653.6037515666283" x2="-567.907942328253" y2="-1717.882512535282" stroke-width="4" stroke="black" />
<line x1="-567.907942328253" y1="-1717.882512535282" x2="-644.5123866401508" y2="-1782.161273503936" stroke-width="4" stroke="black" />
<line x1="-644.5123866401508" y1="-1782.161273503936" x2="-686.7742128142207" y2="-1872.792052207601" stroke-width="4" stroke="black" />
<line x1="-686.7742128142207" y1="-1872.792052207601" x2="-729.0360389882907" y2="-1963.4228309112661" stroke-width="4" stroke="black" />
<line x1="-729.0360389882907" y1="-1963.4228309112661" x2="-771.2978651623606" y2="-2054.0536096149312" stroke-width="4" stroke="black" />
<line x1="-771.2978651623606" y1="-2054.0536096149312" x2="-813.5596913364305" y2="-2144.684388318596" stroke-width="4" stroke="black" />
<line x1="-813.5596913364305" y1="-2144.684388318596" x2="-813.5596913364305" y2="-2244.684388318596" stroke-width="4" stroke="black" />
<line x1="-644.5123866401508" y1="-1782.161273503936" x2="-741.1049692690576" y2="-1808.043178014188" stroke-width="4" stroke="black" />
<line x1="-741.1049692690576" y1="-1808.043178014188" x2="-837.6975518979644" y2="-1833.92508252444" stroke-width="4" stroke="black" />
<line x1="-837.6975518979644" y1="-1833.92508252444" x2="-914.3019962098623" y2="-1898.203843493094" stroke-width="4" stroke="black" />
<line x1="-1.4695761589768238E-13" y1="-800.0" x2="-1.6532731788489268E-13" y2="-900.0" stroke-width="4" stroke="black" />
<line x1="-1.6532731788489268E-13" y1="-900.0" x2="-1.8369701987210297E-13" y2="-1000.0" stroke-width="4" stroke="black" />
<line x1="-1.8369701987210297E-13" y1="-1000.0" x2="-2.0206672185931327E-13" y2="-1100.0" stroke-width="4" stroke="black" />
<line x1="-2.0206672185931327E-13" y1="-1100.0" x2="-2.2043642384652357E-13" y2="-1200.0" stroke-width="4" stroke="black" />
<line x1="-2.2043642384652357E-13" y1="-1200.0" x2="-42.26182617407014" y2="-1290.630778703665" stroke-width="4" stroke="black" />
<line x1="-42.26182617407014" y1="-1290.630778703665" x2="-84.52365234814005" y2="-1381.2615574073302" stroke-width="4" stroke="black" />
<line x1="-84.52365234814005" y1="-1381.2615574073302" x2="-161.12809666003784" y2="-1445.540318375984" stroke-width="4" stroke="black" />
<line x1="-161.12809666003784" y1="-1445.540318375984" x2="-237.73254097193563" y2="-1509.8190793446379" stroke-width="4" stroke="black" />
<line x1="-237.73254097193563" y1="-1509.8190793446379" x2="-279.9943671460056" y2="-1600.449858048303" stroke-width="4" stroke="black" />
<line x1="-84.52365234814005" y1="-1381.2615574073302" x2="-126.78547852220996" y2="-1471.8923361109953" stroke-width="4" stroke="black" />
<line x1="-126.78547852220996" y1="-1471.8923361109953" x2="-169.04730469627987" y2="-1562.5231148146604" stroke-width="4" stroke="black" />
<line x1="-169.04730469627987" y1="-1562.5231148146604" x2="-169.0473046962799" y2="-1662.5231148146604" stroke-width="4" stroke="black" />
<line x1="-84.52365234814005" y1="-1381.2615574073302" x2="-126.78547852220996" y2="-1471.8923361109953" stroke-width="4" stroke="black" />
<line x1="-126.78547852220996" y1="-1471.8923361109953" x2="-169.04730469627987" y2="-1562.5231148146604" stroke-width="4" stroke="black" />
<line x1="-169.04730469627987" y1="-1562.5231148146604" x2="-169.0473046962799" y2="-1662.5231148146604" stroke-width="4" stroke="black" />
<line x1="-169.0473046962799" y1="-1662.5231148146604" x2="-169.04730469627992" y2="-1762.5231148146604" stroke-width="4" stroke="black" />
<line x1="-169.04730469627992" y1="-1762.5231148146604" x2="-169.04730469627995" y2="-1862.5231148146604" stroke-width="4" stroke="black" />
<line x1="-169.04730469627995" y1="-1862.5231148146604" x2="-169.04730469627998" y2="-1962.5231148146604" stroke-width="4" stroke="black" />
<line x1="-169.04730469627998" y1="-1962.5231148146604" x2="-126.78547852221001" y2="-2053.1538935183253" stroke-width="4" stroke="black" />
<line x1="-169.04730469627987" y1="-1562.5231148146604" x2="-245.65174900817766" y2="-1626.8018757833142" stroke-width="4" stroke="black" />
<line x1="-245.65174900817766" y1="-1626.8018757833142" x2="-322.25619332007545" y2="-1691.080636751968" stroke-width="4" stroke="black" />
<line x1="-322.25619332007545" y1="-1691.080636751968" x2="-364.5180194941454" y2="-1781.7114154556332" stroke-width="4" stroke="black" />
<line x1="-2.2043642384652357E-13" y1="-1200.0" x2="-2.388061258337339E-13" y2="-1300.0" stroke-width="4" stroke="black" />
<line x1="-2.388061258337339E-13" y1="-1300.0" x2="-2.571758278209442E-13" y2="-1400.0" stroke-width="4" stroke="black" />
<line x1="-2.571758278209442E-13" y1="-1400.0" x2="-42.26182617407017" y2="-1490.630778703665" stroke-width="4" stroke="black" />
<line x1="-42.26182617407017" y1="-1490.630778703665" x2="-84.52365234814009" y2="-1581.2615574073302" stroke-width="4" stroke="black" />
<line x1="-84.52365234814009" y1="-1581.2615574073302" x2="-84.5236523481401" y2="-1681.2615574073302" stroke-width="4" stroke="black" />
<line x1="-2.571758278209442E-13" y1="-1400.0" x2="-2.7554552980815454E-13" y2="-1500.0" stroke-width="4" stroke="black" />
<line x1="-2.7554552980815454E-13" y1="-1500.0" x2="-2.9391523179536486E-13" y2="-1600.0" stroke-width="4" stroke="black" />
<line x1="-2.9391523179536486E-13" y1="-1600.0" x2="42.26182617406967" y2="-1690.6307787036649" stroke-width="4" stroke="black" />
<line x1="-2.571758278209442E-13" y1="-1400.0" x2="-2.7554552980815454E-13" y2="-1500.0" stroke-width="4" stroke="black" />
<line x1="-2.7554552980815454E-13" y1="-1500.0" x2="-2.9391523179536486E-13" y2="-1600.0" stroke-width="4" stroke="black" />
<line x1="-2.9391523179536486E-13" y1="-1600.0" x2="42.26182617406967" y2="-1690.6307787036649" stroke-width="4" stroke="black" />
<line x1="42.26182617406967" y1="-1690.6307787036649" x2="84.52365234813962" y2="-1781.2615574073297" stroke-width="4" stroke="black" />
<line x1="84.52365234813962" y1="-1781.2615574073297" x2="126.78547852220959" y2="-1871.8923361109946" stroke-width="4" stroke="black" />
<line x1="126.78547852220959" y1="-1871.8923361109946" x2="169.04730469627955" y2="-1962.5231148146595" stroke-width="4" stroke="black" />
<line x1="169.04730469627955" y1="-1962.5231148146595" x2="245.65174900817732" y2="-2026.8018757833133" stroke-width="4" stroke="black" />
<line x1="-2.9391523179536486E-13" y1="-1600.0" x2="-42.26182617407021" y2="-1690.630778703665" stroke-width="4" stroke="black" />
<line x1="-42.26182617407021" y1="-1690.630778703665" x2="-84.52365234814013" y2="-1781.2615574073302" stroke-width="4" stroke="black" />
<line x1="-84.52365234814013" y1="-1781.2615574073302" x2="-84.52365234814015" y2="-1881.2615574073302" stroke-width="4" stroke="black" />
<line x1="-2.2043642384652357E-13" y1="-1200.0" x2="-2.388061258337339E-13" y2="-1300.0" stroke-width="4" stroke="black" />
<line x1="-2.388061258337339E-13" y1="-1300.0" x2="-2.571758278209442E-13" y2="-1400.0" stroke-width="4" stroke="black" />
<line x1="-2.571758278209442E-13" y1="-1400.0" x2="-2.7554552980815454E-13" y2="-1500.0" stroke-width="4" stroke="black" />
<line x1="-2.7554552980815454E-13" y1="-1500.0" x2="-2.9391523179536486E-13" y2="-1600.0" stroke-width="4" stroke="black" />
<line x1="-2.9391523179536486E-13" y1="-1600.0" x2="42.26182617406967" y2="-1690.6307787036649" stroke-width="4" stroke="black" />
<line x1="42.26182617406967" y1="-1690.6307787036649" x2="84.52365234813962" y2="-1781.2615574073297" stroke-width="4" stroke="black" />
<line x1="84.52365234813962" y1="-1781.2615574073297" x2="126.78547852220959" y2="-1871.8923361109946" stroke-width="4" stroke="black" />
<line x1="126.78547852220959" y1="-1871.8923361109946" x2="169.04730469627955" y2="-1962.5231148146595" stroke-width="4" stroke="black" />
<line x1="169.04730469627955" y1="-1962.5231148146595" x2="211.30913087034952" y2="-2053.1538935183244" stroke-width="4" stroke="black" />
<line x1="211.30913087034952" y1="-2053.1538935183244" x2="253.5709570444195" y2="-2143.7846722219892" stroke-width="4" stroke="black" />
<line x1="253.5709570444195" y1="-2143.7846722219892" x2="253.57095704441946" y2="-2243.7846722219892" stroke-width="4" stroke="black" />
<line x1="253.57095704441946" y1="-2243.7846722219892" x2="253.57095704441943" y2="-2343.7846722219892" stroke-width="4" stroke="black" />
<line x1="253.57095704441943" y1="-2343.7846722219892" x2="295.8327832184894" y2="-2434.415450925654" stroke-width="4" stroke="black" />
<line x1="253.5709570444195" y1="-2143.7846722219892" x2="295.83278321848945" y2="-2234.415450925654" stroke-width="4" stroke="black" />
<line x1="295.83278321848945" y1="-2234.415450925654" x2="338.0946093925594" y2="-2325.046229629319" stroke-width="4" stroke="black" />
<line x1="338.0946093925594" y1="-2325.046229629319" x2="414.6990537044572" y2="-2389.324990597973" stroke-width="4" stroke="black" />
<line x1="253.5709570444195" y1="-2143.7846722219892" x2="295.83278321848945" y2="-2234.415450925654" stroke-width="4" stroke="black" />
<line x1="295.83278321848945" y1="-2234.415450925654" x2="338.0946093925594" y2="-2325.046229629319" stroke-width="4" stroke="black" />
<line x1="338.0946093925594" y1="-2325.046229629319" x2="414.6990537044572" y2="-2389.324990597973" stroke-width="4" stroke="black" />
<line x1="414.6990537044572" y1="-2389.324990597973" x2="491.303498016355" y2="-2453.6037515666267" stroke-width="4" stroke="black" />
<line x1="491.303498016355" y1="-2453.6037515666267" x2="567.9079423282527" y2="-2517.8825125352805" stroke-width="4" stroke="black" />
<line x1="567.9079423282527" y1="-2517.8825125352805" x2="644.5123866401505" y2="-2582.1612735039344" stroke-width="4" stroke="black" />
<line x1="644.5123866401505" y1="-2582.1612735039344" x2="741.1049692690573" y2="-2608.043178014186" stroke-width="4" stroke="black" />
<line x1="338.0946093925594" y1="-2325.046229629319" x2="338.0946093925594" y2="-2425.046229629319" stroke-width="4" stroke="black" />
<line x1="338.0946093925594" y1="-2425.046229629319" x2="338.0946093925594" y2="-2525.046229629319" stroke-width="4" stroke="black" />
<line x1="338.0946093925594" y1="-2525.046229629319" x2="380.35643556662933" y2="-2615.677008332984" stroke-width="4" stroke="black" />
<line x1="-2.9391523179536486E-13" y1="-1600.0" x2="-42.26182617407021" y2="-1690.630778703665" stroke-width="4" stroke="black" />
<line x1="-42.26182617407021" y1="-1690.630778703665" x2="-84.52365234814013" y2="-1781.2615574073302" stroke-width="4" stroke="black" />
<line x1="-84.52365234814013" y1="-1781.2615574073302" x2="-161.12809666003795" y2="-1845.540318375984" stroke-width="4" stroke="black" />
<line x1="-161.12809666003795" y1="-1845.540318375984" x2="-237.73254097193575" y2="-1909.8190793446379" stroke-width="4" stroke="black" />
<line x1="-237.73254097193575" y1="-1909.8190793446379" x2="-279.9943671460057" y2="-2000.449858048303" stroke-width="4" stroke="black" />
<line x1="-84.52365234814013" y1="-1781.2615574073302" x2="-126.78547852221004" y2="-1871.8923361109953" stroke-width="4" stroke="black" />
<line x1="-126.78547852221004" y1="-1871.8923361109953" x2="-169.04730469627995" y2="-1962.5231148146604" stroke-width="4" stroke="black" />
<line x1="-169.04730469627995" y1="-1962.5231148146604" x2="-169.04730469627998" y2="-2062.5231148146604" stroke-width="4" stroke="black" />
<line x1="-84.52365234814013" y1="-1781.2615574073302" x2="-126.78547852221004" y2="-1871.8923361109953" stroke-width="4" stroke="black" />
<line x1="-126.78547852221004" y1="-1871.8923361109953" x2="-169.04730469627995" y2="-1962.5231148146604" stroke-width="4" stroke="black" />
<line x1="-169.04730469627995" y1="-1962.5231148146604" x2="-169.04730469627998" y2="-2062.5231148146604" stroke-width="4" stroke="black" />
<line x1="-169.04730469627998" y1="-2062.5231148146604" x2="-169.04730469628" y2="-2162.5231148146604" stroke-width="4" stroke="black" />
<line x1="-169.04730469628" y1="-2162.5231148146604" x2="-169.04730469628004" y2="-2262.5231148146604" stroke-width="4" stroke="black" />
<line x1="-169.04730469628004" y1="-2262.5231148146604" x2="-169.04730469628007" y2="-2362.5231148146604" stroke-width="4" stroke="black" />
<line x1="-169.04730469628007" y1="-2362.5231148146604" x2="-126.7854785222101" y2="-2453.1538935183253" stroke-width="4" stroke="black" />
<line x1="-169.04730469627995" y1="-1962.5231148146604" x2="-245.65174900817777" y2="-2026.8018757833142" stroke-width="4" stroke="black" />
<line x1="-245.65174900817777" y1="-2026.8018757833142" x2="-322.25619332007557" y2="-2091.080636751968" stroke-width="4" stroke="black" />
<line x1="-322.25619332007557" y1="-2091.080636751968" x2="-364.5180194941455" y2="-2181.711415455633" stroke-width="4" stroke="black" />
<line x1="-1.4695761589768238E-13" y1="-800.0" x2="-1.6532731788489268E-13" y2="-900.0" stroke-width="4" stroke="black" />
<line x1="-1.6532731788489268E-13" y1="-900.0" x2="-1.8369701987210297E-13" y2="-1000.0" stroke-width="4" stroke="black" />
<line x1="-1.8369701987210297E-13" y1="-1000.0" x2="-2.0206672185931327E-13" y2="-1100.0" stroke-width="4" stroke="black" />
<line x1="-2.0206672185931327E-13" y1="-1100.0" x2="-2.2043642384652357E-13" y2="-1200.0" stroke-width="4" stroke="black" />
<line x1="-2.2043642384652357E-13" y1="-1200.0" x2="-2.388061258337339E-13" y2="-1300.0" stroke-width="4" stroke="black" />
<line x1="-2.388061258337339E-13" y1="-1300.0" x2="-2.571758278209442E-13" y2="-1400.0" stroke-width="4" stroke="black" />
<line x1="-2.571758278209442E-13" y1="-1400.0" x2="-2.7554552980815454E-13" y2="-1500.0" stroke-width="4" stroke="black" />
<line x1="-2.7554552980815454E-13" y1="-1500.0" x2="-2.9391523179536486E-13" y2="-1600.0" stroke-width="4" stroke="black" />
<line x1="-2.9391523179536486E-13" y1="-1600.0" x2="42.26182617406967" y2="-1690.6307787036649" stroke-width="4" stroke="black" />
<line x1="42.26182617406967" y1="-1690.6307787036649" x2="84.52365234813962" y2="-1781.2615574073297" stroke-width="4" stroke="black" />
<line x1="84.52365234813962" y1="-1781.2615574073297" x2="126.78547852220959" y2="-1871.8923361109946" stroke-width="4" stroke="black" />
<line x1="126.78547852220959" y1="-1871.8923361109946" x2="169.04730469627955" y2="-1962.5231148146595" stroke-width="4" stroke="black" />
<line x1="169.04730469627955" y1="-1962.5231148146595" x2="211.30913087034952" y2="-2053.1538935183244" stroke-width="4" stroke="black" />
<line x1="211.30913087034952" y1="-2053.1538935183244" x2="253.5709570444195" y2="-2143.7846722219892" stroke-width="4" stroke="black" />
<line x1="253.5709570444195" y1="-2143.7846722219892" x2="295.83278321848945" y2="-2234.415450925654" stroke-width="4" stroke="black" />
<line x1="295.83278321848945" y1="-2234.415450925654" x2="338.0946093925594" y2="-2325.046229629319" stroke-width="4" stroke="black" />
<line x1="338.0946093925594" y1="-2325.046229629319" x2="380.35643556662933" y2="-2415.677008332984" stroke-width="4" stroke="black" />
<line x1="380.35643556662933" y1="-2415.677008332984" x2="422.61826174069927" y2="-2506.3077870366487" stroke-width="4" stroke="black" />
<line x1="422.61826174069927" y1="-2506.3077870366487" x2="464.8800879147692" y2="-2596.9385657403136" stroke-width="4" stroke="black" />
<line x1="464.8800879147692" y1="-2596.9385657403136" x2="507.14191408883914" y2="-2687.5693444439785" stroke-width="4" stroke="black" />
<line x1="507.14191408883914" y1="-2687.5693444439785" x2="507.14191408883914" y2="-2787.5693444439785" stroke-width="4" stroke="black" />
<line x1="507.14191408883914" y1="-2787.5693444439785" x2="507.14191408883914" y2="-2887.5693444439785" stroke-width="4" stroke="black" />
<line x1="507.14191408883914" y1="-2887.5693444439785" x2="464.8800879147692" y2="-2978.2001231476434" stroke-width="4" stroke="black" />
<line x1="464.8800879147692" y1="-2978.2001231476434" x2="422.61826174069927" y2="-3068.830901851308" stroke-width="4" stroke="black" />
<line x1="422.61826174069927" y1="-3068.830901851308" x2="422.61826174069927" y2="-3168.830901851308" stroke-width="4" stroke="black" />
<line x1="507.14191408883914" y1="-2887.5693444439785" x2="507.14191408883914" y2="-2987.5693444439785" stroke-width="4" stroke="black" />
<line x1="507.14191408883914" y1="-2987.5693444439785" x2="507.14191408883914" y2="-3087.5693444439785" stroke-width="4" stroke="black" />
<line x1="507.14191408883914" y1="-3087.5693444439785" x2="549.4037402629091" y2="-3178.2001231476434" stroke-width="4" stroke="black" />
<line x1="507.14191408883914" y1="-2887.5693444439785" x2="507.14191408883914" y2="-2987.5693444439785" stroke-width="4" stroke="black" />
<line x1="507.14191408883914" y1="-2987.5693444439785" x2="507.14191408883914" y2="-3087.5693444439785" stroke-width="4" stroke="black" />
<line x1="507.14191408883914" y1="-3087.5693444439785" x2="549.4037402629091" y2="-3178.2001231476434" stroke-width="4" stroke="black" />
<line x1="549.4037402629091" y1="-3178.2001231476434" x2="591.665566436979" y2="-3268.830901851308" stroke-width="4" stroke="black" />
<line x1="591.665566436979" y1="-3268.830901851308" x2="633.927392611049" y2="-3359.461680554973" stroke-width="4" stroke="black" />
<line x1="633.927392611049" y1="-3359.461680554973" x2="676.1892187851189" y2="-3450.092459258638" stroke-width="4" stroke="black" />
<line x1="676.1892187851189" y1="-3450.092459258638" x2="752.7936630970166" y2="-3514.371220227292" stroke-width="4" stroke="black" />
<line x1="507.14191408883914" y1="-3087.5693444439785" x2="464.8800879147692" y2="-3178.2001231476434" stroke-width="4" stroke="black" />
<line x1="464.8800879147692" y1="-3178.2001231476434" x2="422.61826174069927" y2="-3268.830901851308" stroke-width="4" stroke="black" />
<line x1="422.61826174069927" y1="-3268.830901851308" x2="422.61826174069927" y2="-3368.830901851308" stroke-width="4" stroke="black" />
<line x1="507.14191408883914" y1="-2687.5693444439785" x2="549.4037402629091" y2="-2778.2001231476434" stroke-width="4" stroke="black" />
<line x1="549.4037402629091" y1="-2778.2001231476434" x2="591.665566436979" y2="-2868.830901851308" stroke-width="4" stroke="black" />
<line x1="591.665566436979" y1="-2868.830901851308" x2="591.665566436979" y2="-2968.830901851308" stroke-width="4" stroke="black" />
<line x1="591.665566436979" y1="-2968.830901851308" x2="591.665566436979" y2="-3068.830901851308" stroke-width="4" stroke="black" />
<line x1="591.665566436979" y1="-3068.830901851308" x2="633.927392611049" y2="-3159.461680554973" stroke-width="4" stroke="black" />
<line x1="591.665566436979" y1="-2868.830901851308" x2="633.927392611049" y2="-2959.461680554973" stroke-width="4" stroke="black" />
<line x1="633.927392611049" y1="-2959.461680554973" x2="676.1892187851189" y2="-3050.092459258638" stroke-width="4" stroke="black" />
<line x1="676.1892187851189" y1="-3050.092459258638" x2="752.7936630970166" y2="-3114.371220227292" stroke-width="4" stroke="black" />
<line x1="591.665566436979" y1="-2868.830901851308" x2="633.927392611049" y2="-2959.461680554973" stroke-width="4" stroke="black" />
<line x1="633.927392611049" y1="-2959.461680554973" x2="676.1892187851189" y2="-3050.092459258638" stroke-width="4" stroke="black" />
<line x1="676.1892187851189" y1="-3050.092459258638" x2="752.7936630970166" y2="-3114.371220227292" stroke-width="4" stroke="black" />
<line x1="752.7936630970166" y1="-3114.371220227292" x2="829.3981074089144" y2="-3178.6499811959457" stroke-width="4" stroke="black" />
<line x1="829.3981074089144" y1="-3178.6499811959457" x2="906.0025517208121" y2="-3242.9287421645995" stroke-width="4" stroke="black" />
<line x1="906.0025517208121" y1="-3242.9287421645995" x2="982.6069960327098" y2="-3307.2075031332533" stroke-width="4" stroke="black" />
<line x1="982.6069960327098" y1="-3307.2075031332533" x2="1079.1995786616167" y2="-3333.089407643505" stroke-width="4" stroke="black" />
<line x1="676.1892187851189" y1="-3050.092459258638" x2="676.1892187851189" y2="-3150.092459258638" stroke-width="4" stroke="black" />
<line x1="676.1892187851189" y1="-3150.092459258638" x2="676.1892187851189" y2="-3250.092459258638" stroke-width="4" stroke="black" />
<line x1="676.1892187851189" y1="-3250.092459258638" x2="718.4510449591888" y2="-3340.723237962303" stroke-width="4" stroke="black" />
<line x1="507.14191408883914" y1="-2687.5693444439785" x2="549.4037402629091" y2="-2778.2001231476434" stroke-width="4" stroke="black" />
<line x1="549.4037402629091" y1="-2778.2001231476434" x2="591.665566436979" y2="-2868.830901851308" stroke-width="4" stroke="black" />
<line x1="591.665566436979" y1="-2868.830901851308" x2="633.927392611049" y2="-2959.461680554973" stroke-width="4" stroke="black" />
<line x1="633.927392611049" y1="-2959.461680554973" x2="676.1892187851189" y2="-3050.092459258638" stroke-width="4" stroke="black" />
<line x1="676.1892187851189" y1="-3050.092459258638" x2="752.7936630970166" y2="-3114.371220227292" stroke-width="4" stroke="black" />
<line x1="752.7936630970166" y1="-3114.371220227292" x2="829.3981074089144" y2="-3178.6499811959457" stroke-width="4" stroke="black" />
<line x1="829.3981074089144" y1="-3178.6499811959457" x2="906.0025517208121" y2="-3242.9287421645995" stroke-width="4" stroke="black" />
<line x1="906.0025517208121" y1="-3242.9287421645995" x2="982.6069960327098" y2="-3307.2075031332533" stroke-width="4" stroke="black" />
<line x1="982.6069960327098" y1="-3307.2075031332533" x2="1059.2114403446076" y2="-3371.486264101907" stroke-width="4" stroke="black" />
<line x1="1059.2114403446076" y1="-3371.486264101907" x2="1135.8158846565054" y2="-3435.765025070561" stroke-width="4" stroke="black" />
<line x1="1135.8158846565054" y1="-3435.765025070561" x2="1178.0777108305754" y2="-3526.395803774226" stroke-width="4" stroke="black" />
<line x1="1178.0777108305754" y1="-3526.395803774226" x2="1220.3395370046453" y2="-3617.0265824778908" stroke-width="4" stroke="black" />
<line x1="1220.3395370046453" y1="-3617.0265824778908" x2="1296.9439813165432" y2="-3681.3053434465446" stroke-width="4" stroke="black" />
<line x1="1135.8158846565054" y1="-3435.765025070561" x2="1212.4203289684033" y2="-3500.043786039215" stroke-width="4" stroke="black" />
<line x1="1212.4203289684033" y1="-3500.043786039215" x2="1289.0247732803011" y2="-3564.3225470078687" stroke-width="4" stroke="black" />
<line x1="1289.0247732803011" y1="-3564.3225470078687" x2="1385.617355909208" y2="-3590.2044515181205" stroke-width="4" stroke="black" />
<line x1="1135.8158846565054" y1="-3435.765025070561" x2="1212.4203289684033" y2="-3500.043786039215" stroke-width="4" stroke="black" />
<line x1="1212.4203289684033" y1="-3500.043786039215" x2="1289.0247732803011" y2="-3564.3225470078687" stroke-width="4" stroke="black" />
<line x1="1289.0247732803011" y1="-3564.3225470078687" x2="1385.617355909208" y2="-3590.2044515181205" stroke-width="4" stroke="black" />
<line x1="1385.617355909208" y1="-3590.2044515181205" x2="1482.2099385381148" y2="-3616.0863560283724" stroke-width="4" stroke="black" />
<line x1="1482.2099385381148" y1="-3616.0863560283724" x2="1578.8025211670215" y2="-3641.9682605386242" stroke-width="4" stroke="black" />
<line x1="1578.8025211670215" y1="-3641.9682605386242" x2="1675.3951037959282" y2="-3667.850165048876" stroke-width="4" stroke="black" />
<line x1="1675.3951037959282" y1="-3667.850165048876" x2="1773.875879097149" y2="-3650.4853472821833" stroke-width="4" stroke="black" />
<line x1="1289.0247732803011" y1="-3564.3225470078687" x2="1331.286599454371" y2="-3654.9533257115336" stroke-width="4" stroke="black" />
<line x1="1331.286599454371" y1="-3654.9533257115336" x2="1373.548425628441" y2="-3745.5841044151985" stroke-width="4" stroke="black" />
<line x1="1373.548425628441" y1="-3745.5841044151985" x2="1450.1528699403389" y2="-3809.8628653838523" stroke-width="4" stroke="black" />
<line x1="676.1892187851189" y1="-3050.092459258638" x2="676.1892187851189" y2="-3150.092459258638" stroke-width="4" stroke="black" />
<line x1="676.1892187851189" y1="-3150.092459258638" x2="676.1892187851189" y2="-3250.092459258638" stroke-width="4" stroke="black" />
<line x1="676.1892187851189" y1="-3250.092459258638" x2="633.927392611049" y2="-3340.723237962303" stroke-width="4" stroke="black" />
<line x1="633.927392611049" y1="-3340.723237962303" x2="591.665566436979" y2="-3431.3540166659677" stroke-width="4" stroke="black" />
<line x1="591.665566436979" y1="-3431.3540166659677" x2="591.665566436979" y2="-3531.3540166659677" stroke-width="4" stroke="black" />
<line x1="676.1892187851189" y1="-3250.092459258638" x2="676.1892187851189" y2="-3350.092459258638" stroke-width="4" stroke="black" />
<line x1="676.1892187851189" y1="-3350.092459258638" x2="676.1892187851189" y2="-3450.092459258638" stroke-width="4" stroke="black" />
<line x1="676.1892187851189" y1="-3450.092459258638" x2="718.4510449591888" y2="-3540.723237962303" stroke-width="4" stroke="black" />
<line x1="676.1892187851189" y1="-3250.092459258638" x2="676.1892187851189" y2="-3350.092459258638" stroke-width="4" stroke="black" />
<line x1="676.1892187851189" y1="-3350.092459258638" x2="676.1892187851189" y2="-3450.092459258638" stroke-width="4" stroke="black" />
<line x1="676.1892187851189" y1="-3450.092459258638" x2="718.4510449591888" y2="-3540.723237962303" stroke-width="4" stroke="black" />
<line x1="718.4510449591888" y1="-3540.723237962303" x2="760.7128711332588" y2="-3631.3540166659677" stroke-width="4" stroke="black" />
<line x1="760.7128711332588" y1="-3631.3540166659677" x2="802.9746973073287" y2="-3721.9847953696326" stroke-width="4" stroke="black" />
<line x1="802.9746973073287" y1="-3721.9847953696326" x2="845.2365234813986" y2="-3812.6155740732975" stroke-width="4" stroke="black" />
<line x1="845.2365234813986" y1="-3812.6155740732975" x2="921.8409677932964" y2="-3876.8943350419513" stroke-width="4" stroke="black" />
<line x1="676.1892187851189" y1="-3450.092459258638" x2="633.927392611049" y2="-3540.723237962303" stroke-width="4" stroke="black" />
<line x1="633.927392611049" y1="-3540.723237962303" x2="591.665566436979" y2="-3631.3540166659677" stroke-width="4" stroke="black" />
<line x1="591.665566436979" y1="-3631.3540166659677" x2="591.665566436979" y2="-3731.3540166659677" stroke-width="4" stroke="black" />
<line x1="-2.9391523179536486E-13" y1="-1600.0" x2="-42.26182617407021" y2="-1690.630778703665" stroke-width="4" stroke="black" />
<line x1="-42.26182617407021" y1="-1690.630778703665" x2="-84.52365234814013" y2="-1781.2615574073302" stroke-width="4" stroke="black" />
<line x1="-84.52365234814013" y1="-1781.2615574073302" x2="-126.78547852221004" y2="-1871.8923361109953" stroke-width="4" stroke="black" />
<line x1="-126.78547852221004" y1="-1871.8923361109953" x2="-169.04730469627995" y2="-1962.5231148146604" stroke-width="4" stroke="black" />
<line x1="-169.04730469627995" y1="-1962.5231148146604" x2="-245.65174900817777" y2="-2026.8018757833142" stroke-width="4" stroke="black" />
<line x1="-245.65174900817777" y1="-2026.8018757833142" x2="-322.25619332007557" y2="-2091.080636751968" stroke-width="4" stroke="black" />
<line x1="-322.25619332007557" y1="-2091.080636751968" x2="-418.8487759489824" y2="-2116.9625412622204" stroke-width="4" stroke="black" />
<line x1="-418.8487759489824" y1="-2116.9625412622204" x2="-515.4413585778892" y2="-2142.8444457724727" stroke-width="4" stroke="black" />
<line x1="-515.4413585778892" y1="-2142.8444457724727" x2="-592.0458028897871" y2="-2207.1232067411265" stroke-width="4" stroke="black" />
<line x1="-322.25619332007557" y1="-2091.080636751968" x2="-398.86063763197336" y2="-2155.359397720622" stroke-width="4" stroke="black" />
<line x1="-398.86063763197336" y1="-2155.359397720622" x2="-475.46508194387116" y2="-2219.6381586892758" stroke-width="4" stroke="black" />
<line x1="-475.46508194387116" y1="-2219.6381586892758" x2="-517.7269081179411" y2="-2310.2689373929406" stroke-width="4" stroke="black" />
<line x1="-322.25619332007557" y1="-2091.080636751968" x2="-398.86063763197336" y2="-2155.359397720622" stroke-width="4" stroke="black" />
<line x1="-398.86063763197336" y1="-2155.359397720622" x2="-475.46508194387116" y2="-2219.6381586892758" stroke-width="4" stroke="black" />
<line x1="-475.46508194387116" y1="-2219.6381586892758" x2="-517.7269081179411" y2="-2310.2689373929406" stroke-width="4" stroke="black" />
<line x1="-517.7269081179411" y1="-2310.2689373929406" x2="-559.988734292011" y2="-2400.8997160966055" stroke-width="4" stroke="black" />
<line x1="-559.988734292011" y1="-2400.8997160966055" x2="-602.250560466081" y2="-2491.5304948002704" stroke-width="4" stroke="black" />
<line x1="-602.250560466081" y1="-2491.5304948002704" x2="-644.5123866401509" y2="-2582.1612735039353" stroke-width="4" stroke="black" />
<line x1="-644.5123866401509" y1="-2582.1612735039353" x2="-644.5123866401509" y2="-2682.1612735039353" stroke-width="4" stroke="black" />
<line x1="-475.46508194387116" y1="-2219.6381586892758" x2="-572.057664572778" y2="-2245.520063199528" stroke-width="4" stroke="black" />
<line x1="-572.057664572778" y1="-2245.520063199528" x2="-668.6502472016848" y2="-2271.4019677097804" stroke-width="4" stroke="black" />
<line x1="-668.6502472016848" y1="-2271.4019677097804" x2="-745.2546915135827" y2="-2335.680728678434" stroke-width="4" stroke="black" />
<line x1="-169.04730469627995" y1="-1962.5231148146604" x2="-211.30913087034986" y2="-2053.1538935183253" stroke-width="4" stroke="black" />
<line x1="-211.30913087034986" y1="-2053.1538935183253" x2="-253.57095704441977" y2="-2143.78467222199" stroke-width="4" stroke="black" />
<line x1="-253.57095704441977" y1="-2143.78467222199" x2="-330.1754013563176" y2="-2208.063433190644" stroke-width="4" stroke="black" />
<line x1="-330.1754013563176" y1="-2208.063433190644" x2="-406.7798456682154" y2="-2272.342194159298" stroke-width="4" stroke="black" />
<line x1="-406.7798456682154" y1="-2272.342194159298" x2="-449.0416718422853" y2="-2362.9729728629627" stroke-width="4" stroke="black" />
<line x1="-253.57095704441977" y1="-2143.78467222199" x2="-295.8327832184897" y2="-2234.415450925655" stroke-width="4" stroke="black" />
<line x1="-295.8327832184897" y1="-2234.415450925655" x2="-338.0946093925596" y2="-2325.04622962932" stroke-width="4" stroke="black" />
<line x1="-338.0946093925596" y1="-2325.04622962932" x2="-338.0946093925596" y2="-2425.04622962932" stroke-width="4" stroke="black" />
<line x1="-253.57095704441977" y1="-2143.78467222199" x2="-295.8327832184897" y2="-2234.415450925655" stroke-width="4" stroke="black" />
<line x1="-295.8327832184897" y1="-2234.415450925655" x2="-338.0946093925596" y2="-2325.04622962932" stroke-width="4" stroke="black" />
<line x1="-338.0946093925596" y1="-2325.04622962932" x2="-338.0946093925596" y2="-2425.04622962932" stroke-width="4" stroke="black" />
<line x1="-338.0946093925596" y1="-2425.04622962932" x2="-338.0946093925596" y2="-2525.04622962932" stroke-width="4" stroke="black" />
<line x1="-338.0946093925596" y1="-2525.04622962932" x2="-338.0946093925596" y2="-2625.04622962932" stroke-width="4" stroke="black" />
<line x1="-338.0946093925596" y1="-2625.04622962932" x2="-338.0946093925596" y2="-2725.04622962932" stroke-width="4" stroke="black" />
<line x1="-338.0946093925596" y1="-2725.04622962932" x2="-295.8327832184897" y2="-2815.6770083329848" stroke-width="4" stroke="black" />
<line x1="-338.0946093925596" y1="-2325.04622962932" x2="-414.6990537044574" y2="-2389.3249905979737" stroke-width="4" stroke="black" />
<line x1="-414.6990537044574" y1="-2389.3249905979737" x2="-491.3034980163552" y2="-2453.6037515666276" stroke-width="4" stroke="black" />
<line x1="-491.3034980163552" y1="-2453.6037515666276" x2="-533.5653241904251" y2="-2544.2345302702925" stroke-width="4" stroke="black" />
<line x1="-169.04730469627995" y1="-1962.5231148146604" x2="-211.30913087034986" y2="-2053.1538935183253" stroke-width="4" stroke="black" />
<line x1="-211.30913087034986" y1="-2053.1538935183253" x2="-253.57095704441977" y2="-2143.78467222199" stroke-width="4" stroke="black" />
<line x1="-253.57095704441977" y1="-2143.78467222199" x2="-295.8327832184897" y2="-2234.415450925655" stroke-width="4" stroke="black" />
<line x1="-295.8327832184897" y1="-2234.415450925655" x2="-338.0946093925596" y2="-2325.04622962932" stroke-width="4" stroke="black" />
<line x1="-338.0946093925596" y1="-2325.04622962932" x2="-338.0946093925596" y2="-2425.04622962932" stroke-width="4" stroke="black" />
<line x1="-338.0946093925596" y1="-2425.04622962932" x2="-338.0946093925596" y2="-2525.04622962932" stroke-width="4" stroke="black" />
<line x1="-338.0946093925596" y1="-2525.04622962932" x2="-338.0946093925596" y2="-2625.04622962932" stroke-width="4" stroke="black" />
<line x1="-338.0946093925596" y1="-2625.04622962932" x2="-338.0946093925596" y2="-2725.04622962932" stroke-width="4" stroke="black" />
<line x1="-338.0946093925596" y1="-2725.04622962932" x2="-338.0946093925596" y2="-2825.04622962932" stroke-width="4" stroke="black" />
<line x1="-338.0946093925596" y1="-2825.04622962932" x2="-338.0946093925596" y2="-2925.04622962932" stroke-width="4" stroke="black" />
<line x1="-338.0946093925596" y1="-2925.04622962932" x2="-380.35643556662956" y2="-3015.6770083329848" stroke-width="4" stroke="black" />
<line x1="-380.35643556662956" y1="-3015.6770083329848" x2="-422.6182617406995" y2="-3106.3077870366496" stroke-width="4" stroke="black" />
<line x1="-422.6182617406995" y1="-3106.3077870366496" x2="-422.6182617406995" y2="-3206.3077870366496" stroke-width="4" stroke="black" />
<line x1="-338.0946093925596" y1="-2925.04622962932" x2="-338.0946093925596" y2="-3025.04622962932" stroke-width="4" stroke="black" />
<line x1="-338.0946093925596" y1="-3025.04622962932" x2="-338.0946093925596" y2="-3125.04622962932" stroke-width="4" stroke="black" />
<line x1="-338.0946093925596" y1="-3125.04622962932" x2="-295.8327832184897" y2="-3215.6770083329848" stroke-width="4" stroke="black" />
<line x1="-338.0946093925596" y1="-2925.04622962932" x2="-338.0946093925596" y2="-3025.04622962932" stroke-width="4" stroke="black" />
<line x1="-338.0946093925596" y1="-3025.04622962932" x2="-338.0946093925596" y2="-3125.04622962932" stroke-width="4" stroke="black" />
<line x1="-338.0946093925596" y1="-3125.04622962932" x2="-295.8327832184897" y2="-3215.6770083329848" stroke-width="4" stroke="black" />
<line x1="-295.8327832184897" y1="-3215.6770083329848" x2="-253.5709570444197" y2="-3306.3077870366496" stroke-width="4" stroke="black" />
<line x1="-253.5709570444197" y1="-3306.3077870366496" x2="-211.30913087034975" y2="-3396.9385657403145" stroke-width="4" stroke="black" />
<line x1="-211.30913087034975" y1="-3396.9385657403145" x2="-169.04730469627978" y2="-3487.5693444439794" stroke-width="4" stroke="black" />
<line x1="-169.04730469627978" y1="-3487.5693444439794" x2="-92.442860384382" y2="-3551.8481054126332" stroke-width="4" stroke="black" />
<line x1="-338.0946093925596" y1="-3125.04622962932" x2="-380.35643556662956" y2="-3215.6770083329848" stroke-width="4" stroke="black" />
<line x1="-380.35643556662956" y1="-3215.6770083329848" x2="-422.6182617406995" y2="-3306.3077870366496" stroke-width="4" stroke="black" />
<line x1="-422.6182617406995" y1="-3306.3077870366496" x2="-422.6182617406995" y2="-3406.3077870366496" stroke-width="4" stroke="black" />
<line x1="-338.0946093925596" y1="-2325.04622962932" x2="-414.6990537044574" y2="-2389.3249905979737" stroke-width="4" stroke="black" />
<line x1="-414.6990537044574" y1="-2389.3249905979737" x2="-491.3034980163552" y2="-2453.6037515666276" stroke-width="4" stroke="black" />
<line x1="-491.3034980163552" y1="-2453.6037515666276" x2="-587.896080645262" y2="-2479.48565607688" stroke-width="4" stroke="black" />
<line x1="-587.896080645262" y1="-2479.48565607688" x2="-684.4886632741689" y2="-2505.367560587132" stroke-width="4" stroke="black" />
<line x1="-684.4886632741689" y1="-2505.367560587132" x2="-761.0931075860667" y2="-2569.646321555786" stroke-width="4" stroke="black" />
<line x1="-491.3034980163552" y1="-2453.6037515666276" x2="-567.9079423282531" y2="-2517.8825125352814" stroke-width="4" stroke="black" />
<line x1="-567.9079423282531" y1="-2517.8825125352814" x2="-644.5123866401509" y2="-2582.1612735039353" stroke-width="4" stroke="black" />
<line x1="-644.5123866401509" y1="-2582.1612735039353" x2="-686.7742128142208" y2="-2672.7920522076" stroke-width="4" stroke="black" />
<line x1="-491.3034980163552" y1="-2453.6037515666276" x2="-567.9079423282531" y2="-2517.8825125352814" stroke-width="4" stroke="black" />
<line x1="-567.9079423282531" y1="-2517.8825125352814" x2="-644.5123866401509" y2="-2582.1612735039353" stroke-width="4" stroke="black" />
<line x1="-644.5123866401509" y1="-2582.1612735039353" x2="-686.7742128142208" y2="-2672.7920522076" stroke-width="4" stroke="black" />
<line x1="-686.7742128142208" y1="-2672.7920522076" x2="-729.0360389882908" y2="-2763.422830911265" stroke-width="4" stroke="black" />
<line x1="-729.0360389882908" y1="-2763.422830911265" x2="-771.2978651623607" y2="-2854.05360961493" stroke-width="4" stroke="black" />
<line x1="-771.2978651623607" y1="-2854.05360961493" x2="-813.5596913364307" y2="-2944.6843883185948" stroke-width="4" stroke="black" />
<line x1="-813.5596913364307" y1="-2944.6843883185948" x2="-813.5596913364307" y2="-3044.6843883185948" stroke-width="4" stroke="black" />
<line x1="-644.5123866401509" y1="-2582.1612735039353" x2="-741.1049692690577" y2="-2608.0431780141876" stroke-width="4" stroke="black" />
<line x1="-741.1049692690577" y1="-2608.0431780141876" x2="-837.6975518979646" y2="-2633.92508252444" stroke-width="4" stroke="black" />
<line x1="-837.6975518979646" y1="-2633.92508252444" x2="-914.3019962098624" y2="-2698.2038434930937" stroke-width="4" stroke="black" />
</svg>