<svg viewBox="-1170.8795283863699 -8100.0 2712.84533836404 8100.0" xmlns="http://www.w3.org/2000/svg"><line x1="0" y1="0" x2="-1.8369701987210297E-14" y2="-100.0" stroke-width="4" stroke="black" />
<line x1="-1.8369701987210297E-14" y1="-100.0" x2="-43.36590845875444" y2="-190.10770213220917" stroke-width="4" stroke="black" />
<line x1="-1.8369701987210297E-14" y1="-100.0" x2="-3.6739403974420595E-14" y2="-200.0" stroke-width="4" stroke="black" />
<line x1="-3.6739403974420595E-14" y1="-200.0" x2="43.36590845875435" y2="-290.10770213220917" stroke-width="4" stroke="black" />
<line x1="-3.6739403974420595E-14" y1="-200.0" x2="-5.510910596163089E-14" y2="-300.0" stroke-width="4" stroke="black" />
<line x1="-5.510910596163089E-14" y1="-300.0" x2="-43.365908458754475" y2="-390.10770213220917" stroke-width="4" stroke="black" />
<line x1="-43.365908458754475" y1="-390.10770213220917" x2="-121.51795570063635" y2="-452.4956618031478" stroke-width="4" stroke="black" />
<line x1="-43.365908458754475" y1="-390.10770213220917" x2="-86.7318169175089" y2="-480.21540426441834" stroke-width="4" stroke="black" />
<line x1="-86.7318169175089" y1="-480.21540426441834" x2="-86.73181691750891" y2="-580.2154042644183" stroke-width="4" stroke="black" />
<line x1="-86.7318169175089" y1="-480.21540426441834" x2="-130.09772537626333" y2="-570.3231063966275" stroke-width="4" stroke="black" />
<line x1="-5.510910596163089E-14" y1="-300.0" x2="-7.347880794884119E-14" y2="-400.0" stroke-width="4" stroke="black" />
<line x1="-7.347880794884119E-14" y1="-400.0" x2="-43.36590845875449" y2="-490.10770213220917" stroke-width="4" stroke="black" />
<line x1="-7.347880794884119E-14" y1="-400.0" x2="-9.184850993605149E-14" y2="-500.0" stroke-width="4" stroke="black" />
<line x1="-9.184850993605149E-14" y1="-500.0" x2="43.36590845875429" y2="-590.1077021322092" stroke-width="4" stroke="black" />
<line x1="-9.184850993605149E-14" y1="-500.0" x2="-1.1021821192326178E-13" y2="-600.0" stroke-width="4" stroke="black" />
<line x1="-1.1021821192326178E-13" y1="-600.0" x2="43.36590845875427" y2="-690.1077021322092" stroke-width="4" stroke="black" />
<line x1="43.36590845875427" y1="-690.1077021322092" x2="43.36590845875425" y2="-790.1077021322092" stroke-width="4" stroke="black" />
<line x1="43.36590845875427" y1="-690.1077021322092" x2="86.73181691750865" y2="-780.2154042644183" stroke-width="4" stroke="black" />
<line x1="86.73181691750865" y1="-780.2154042644183" x2="164.88386415939053" y2="-842.6033639353569" stroke-width="4" stroke="black" />
<line x1="86.73181691750865" y1="-780.2154042644183" x2="130.09772537626304" y2="-870.3231063966275" stroke-width="4" stroke="black" />
<line x1="-1.1021821192326178E-13" y1="-600.0" x2="-1.2858791391047208E-13" y2="-700.0" stroke-width="4" stroke="black" />
<line x1="-1.2858791391047208E-13" y1="-700.0" x2="-43.36590845875455" y2="-790.1077021322092" stroke-width="4" stroke="black" />
<line x1="-1.2858791391047208E-13" y1="-700.0" x2="-1.4695761589768238E-13" y2="-800.0" stroke-width="4" stroke="black" />
<line x1="-1.4695761589768238E-13" y1="-800.0" x2="43.365908458754234" y2="-890.1077021322092" stroke-width="4" stroke="black" />
<line x1="-1.4695761589768238E-13" y1="-800.0" x2="-1.6532731788489268E-13" y2="-900.0" stroke-width="4" stroke="black" />
<line x1="-1.6532731788489268E-13" y1="-900.0" x2="-43.36590845875458" y2="-990.1077021322092" stroke-width="4" stroke="black" />
<line x1="-43.36590845875458" y1="-990.1077021322092" x2="-121.51795570063646" y2="-1052.4956618031479" stroke-width="4" stroke="black" />
<line x1="-43.36590845875458" y1="-990.1077021322092" x2="-86.73181691750901" y2="-1080.2154042644183" stroke-width="4" stroke="black" />
<line x1="-86.73181691750901" y1="-1080.2154042644183" x2="-86.73181691750902" y2="-1180.2154042644183" stroke-width="4" stroke="black" />
<line x1="-86.73181691750901" y1="-1080.2154042644183" x2="-130.09772537626344" y2="-1170.3231063966275" stroke-width="4" stroke="black" />
<line x1="-130.09772537626344" y1="-1170.3231063966275" x2="-208.2497726181453" y2="-1232.7110660675662" stroke-width="4" stroke="black" />
<line x1="-208.2497726181453" y1="-1232.7110660675662" x2="-305.7258920372675" y2="-1255.0360776686614" stroke-width="4" stroke="black" />
<line x1="-208.2497726181453" y1="-1232.7110660675662" x2="-286.40181986002716" y2="-1295.099025738505" stroke-width="4" stroke="black" />
<line x1="-286.40181986002716" y1="-1295.099025738505" x2="-329.76772831878156" y2="-1385.206727870714" stroke-width="4" stroke="black" />
<line x1="-286.40181986002716" y1="-1295.099025738505" x2="-364.553867101909" y2="-1357.4869854094436" stroke-width="4" stroke="black" />
<line x1="-130.09772537626344" y1="-1170.3231063966275" x2="-173.46363383501784" y2="-1260.4308085288367" stroke-width="4" stroke="black" />
<line x1="-173.46363383501784" y1="-1260.4308085288367" x2="-251.6156810768997" y2="-1322.8187681997754" stroke-width="4" stroke="black" />
<line x1="-173.46363383501784" y1="-1260.4308085288367" x2="-216.82954229377225" y2="-1350.5385106610458" stroke-width="4" stroke="black" />
<line x1="-216.82954229377225" y1="-1350.5385106610458" x2="-216.82954229377228" y2="-1450.5385106610458" stroke-width="4" stroke="black" />
<line x1="-216.82954229377225" y1="-1350.5385106610458" x2="-260.19545075252665" y2="-1440.646212793255" stroke-width="4" stroke="black" />
<line x1="-260.19545075252665" y1="-1440.646212793255" x2="-260.19545075252665" y2="-1540.646212793255" stroke-width="4" stroke="black" />
<line x1="-260.19545075252665" y1="-1540.646212793255" x2="-303.56135921128106" y2="-1630.7539149254642" stroke-width="4" stroke="black" />
<line x1="-260.19545075252665" y1="-1540.646212793255" x2="-260.19545075252665" y2="-1640.646212793255" stroke-width="4" stroke="black" />
<line x1="-260.19545075252665" y1="-1640.646212793255" x2="-216.82954229377228" y2="-1730.7539149254642" stroke-width="4" stroke="black" />
<line x1="-260.19545075252665" y1="-1640.646212793255" x2="-260.19545075252665" y2="-1740.646212793255" stroke-width="4" stroke="black" />
<line x1="-260.19545075252665" y1="-1440.646212793255" x2="-303.56135921128106" y2="-1530.7539149254642" stroke-width="4" stroke="black" />
<line x1="-303.56135921128106" y1="-1530.7539149254642" x2="-381.7134064531629" y2="-1593.1418745964029" stroke-width="4" stroke="black" />
<line x1="-303.56135921128106" y1="-1530.7539149254642" x2="-346.92726767003546" y2="-1620.8616170576734" stroke-width="4" stroke="black" />
<line x1="-346.92726767003546" y1="-1620.8616170576734" x2="-346.92726767003546" y2="-1720.8616170576734" stroke-width="4" stroke="black" />
<line x1="-346.92726767003546" y1="-1620.8616170576734" x2="-390.29317612878987" y2="-1710.9693191898825" stroke-width="4" stroke="black" />
<line x1="-1.6532731788489268E-13" y1="-900.0" x2="-1.8369701987210297E-13" y2="-1000.0" stroke-width="4" stroke="black" />
<line x1="-1.8369701987210297E-13" y1="-1000.0" x2="-43.3659084587546" y2="-1090.1077021322092" stroke-width="4" stroke="black" />
<line x1="-1.8369701987210297E-13" y1="-1000.0" x2="-2.0206672185931327E-13" y2="-1100.0" stroke-width="4" stroke="black" />
<line x1="-2.0206672185931327E-13" y1="-1100.0" x2="43.365908458754184" y2="-1190.1077021322092" stroke-width="4" stroke="black" />
<line x1="-2.0206672185931327E-13" y1="-1100.0" x2="-2.2043642384652357E-13" y2="-1200.0" stroke-width="4" stroke="black" />
<line x1="-2.2043642384652357E-13" y1="-1200.0" x2="-43.36590845875464" y2="-1290.1077021322092" stroke-width="4" stroke="black" />
<line x1="-43.36590845875464" y1="-1290.1077021322092" x2="-121.51795570063652" y2="-1352.4956618031479" stroke-width="4" stroke="black" />
<line x1="-43.36590845875464" y1="-1290.1077021322092" x2="-86.73181691750906" y2="-1380.2154042644183" stroke-width="4" stroke="black" />
<line x1="-86.73181691750906" y1="-1380.2154042644183" x2="-86.73181691750908" y2="-1480.2154042644183" stroke-width="4" stroke="black" />
<line x1="-86.73181691750906" y1="-1380.2154042644183" x2="-130.0977253762635" y2="-1470.3231063966275" stroke-width="4" stroke="black" />
<line x1="-2.2043642384652357E-13" y1="-1200.0" x2="-2.388061258337339E-13" y2="-1300.0" stroke-width="4" stroke="black" />
<line x1="-2.388061258337339E-13" y1="-1300.0" x2="-43.36590845875466" y2="-1390.1077021322092" stroke-width="4" stroke="black" />
<line x1="-2.388061258337339E-13" y1="-1300.0" x2="-2.571758278209442E-13" y2="-1400.0" stroke-width="4" stroke="black" />
<line x1="-2.571758278209442E-13" y1="-1400.0" x2="43.36590845875413" y2="-1490.1077021322092" stroke-width="4" stroke="black" />
<line x1="-2.571758278209442E-13" y1="-1400.0" x2="-2.7554552980815454E-13" y2="-1500.0" stroke-width="4" stroke="black" />
<line x1="-2.7554552980815454E-13" y1="-1500.0" x2="43.365908458754106" y2="-1590.1077021322092" stroke-width="4" stroke="black" />
<line x1="43.365908458754106" y1="-1590.1077021322092" x2="43.365908458754085" y2="-1690.1077021322092" stroke-width="4" stroke="black" />
<line x1="43.365908458754106" y1="-1590.1077021322092" x2="86.7318169175085" y2="-1680.2154042644183" stroke-width="4" stroke="black" />
<line x1="86.7318169175085" y1="-1680.2154042644183" x2="164.88386415939038" y2="-1742.603363935357" stroke-width="4" stroke="black" />
<line x1="86.7318169175085" y1="-1680.2154042644183" x2="130.09772537626287" y2="-1770.3231063966275" stroke-width="4" stroke="black" />
<line x1="-2.7554552980815454E-13" y1="-1500.0" x2="-2.9391523179536486E-13" y2="-1600.0" stroke-width="4" stroke="black" />
<line x1="-2.9391523179536486E-13" y1="-1600.0" x2="-43.36590845875471" y2="-1690.1077021322092" stroke-width="4" stroke="black" />
<line x1="-2.9391523179536486E-13" y1="-1600.0" x2="-3.122849337825752E-13" y2="-1700.0" stroke-width="4" stroke="black" />
<line x1="-3.122849337825752E-13" y1="-1700.0" x2="43.36590845875407" y2="-1790.1077021322092" stroke-width="4" stroke="black" />
<line x1="-3.122849337825752E-13" y1="-1700.0" x2="-3.306546357697855E-13" y2="-1800.0" stroke-width="4" stroke="black" />
<line x1="-3.306546357697855E-13" y1="-1800.0" x2="43.36590845875405" y2="-1890.1077021322092" stroke-width="4" stroke="black" />
<line x1="43.36590845875405" y1="-1890.1077021322092" x2="43.36590845875403" y2="-1990.1077021322092" stroke-width="4" stroke="black" />
<line x1="43.36590845875405" y1="-1890.1077021322092" x2="86.73181691750844" y2="-1980.2154042644183" stroke-width="4" stroke="black" />
<line x1="86.73181691750844" y1="-1980.2154042644183" x2="164.88386415939033" y2="-2042.603363935357" stroke-width="4" stroke="black" />
<line x1="86.73181691750844" y1="-1980.2154042644183" x2="130.09772537626282" y2="-2070.3231063966277" stroke-width="4" stroke="black" />
<line x1="130.09772537626282" y1="-2070.3231063966277" x2="130.0977253762628" y2="-2170.3231063966277" stroke-width="4" stroke="black" />
<line x1="130.0977253762628" y1="-2170.3231063966277" x2="86.73181691750837" y2="-2260.4308085288367" stroke-width="4" stroke="black" />
<line x1="130.0977253762628" y1="-2170.3231063966277" x2="130.09772537626276" y2="-2270.3231063966277" stroke-width="4" stroke="black" />
<line x1="130.09772537626276" y1="-2270.3231063966277" x2="173.46363383501713" y2="-2360.430808528837" stroke-width="4" stroke="black" />
<line x1="130.09772537626276" y1="-2270.3231063966277" x2="130.09772537626273" y2="-2370.3231063966277" stroke-width="4" stroke="black" />
<line x1="130.09772537626282" y1="-2070.3231063966277" x2="173.4636338350172" y2="-2160.430808528837" stroke-width="4" stroke="black" />
<line x1="173.4636338350172" y1="-2160.430808528837" x2="173.46363383501716" y2="-2260.430808528837" stroke-width="4" stroke="black" />
<line x1="173.4636338350172" y1="-2160.430808528837" x2="216.82954229377157" y2="-2250.5385106610465" stroke-width="4" stroke="black" />
<line x1="216.82954229377157" y1="-2250.5385106610465" x2="294.9815895356534" y2="-2312.926470331985" stroke-width="4" stroke="black" />
<line x1="216.82954229377157" y1="-2250.5385106610465" x2="260.19545075252597" y2="-2340.646212793256" stroke-width="4" stroke="black" />
<line x1="260.19545075252597" y1="-2340.646212793256" x2="338.34749799440783" y2="-2403.0341724641944" stroke-width="4" stroke="black" />
<line x1="338.34749799440783" y1="-2403.0341724641944" x2="381.71340645316224" y2="-2493.141874596404" stroke-width="4" stroke="black" />
<line x1="338.34749799440783" y1="-2403.0341724641944" x2="416.4995452362897" y2="-2465.422132135133" stroke-width="4" stroke="black" />
<line x1="416.4995452362897" y1="-2465.422132135133" x2="513.9756646554118" y2="-2487.747143736228" stroke-width="4" stroke="black" />
<line x1="416.4995452362897" y1="-2465.422132135133" x2="494.65159247817155" y2="-2527.8100918060713" stroke-width="4" stroke="black" />
<line x1="260.19545075252597" y1="-2340.646212793256" x2="303.5613592112804" y2="-2430.7539149254653" stroke-width="4" stroke="black" />
<line x1="303.5613592112804" y1="-2430.7539149254653" x2="303.5613592112804" y2="-2530.7539149254653" stroke-width="4" stroke="black" />
<line x1="303.5613592112804" y1="-2430.7539149254653" x2="346.9272676700348" y2="-2520.8616170576747" stroke-width="4" stroke="black" />
<line x1="346.9272676700348" y1="-2520.8616170576747" x2="425.07931491191664" y2="-2583.249576728613" stroke-width="4" stroke="black" />
<line x1="346.9272676700348" y1="-2520.8616170576747" x2="390.2931761287892" y2="-2610.969319189884" stroke-width="4" stroke="black" />
<line x1="-3.306546357697855E-13" y1="-1800.0" x2="-3.4902433775699583E-13" y2="-1900.0" stroke-width="4" stroke="black" />
<line x1="-3.4902433775699583E-13" y1="-1900.0" x2="-43.36590845875477" y2="-1990.1077021322092" stroke-width="4" stroke="black" />
<line x1="-3.4902433775699583E-13" y1="-1900.0" x2="-3.6739403974420615E-13" y2="-2000.0" stroke-width="4" stroke="black" />
<line x1="-3.6739403974420615E-13" y1="-2000.0" x2="43.365908458754014" y2="-2090.1077021322094" stroke-width="4" stroke="black" />
<line x1="-3.6739403974420615E-13" y1="-2000.0" x2="-3.8576374173141647E-13" y2="-2100.0" stroke-width="4" stroke="black" />
<line x1="-3.8576374173141647E-13" y1="-2100.0" x2="-43.3659084587548" y2="-2190.107702132209" stroke-width="4" stroke="black" />
<line x1="-43.3659084587548" y1="-2190.107702132209" x2="-121.51795570063668" y2="-2252.4956618031474" stroke-width="4" stroke="black" />
<line x1="-43.3659084587548" y1="-2190.107702132209" x2="-86.73181691750922" y2="-2280.215404264418" stroke-width="4" stroke="black" />
<line x1="-86.73181691750922" y1="-2280.215404264418" x2="-86.73181691750924" y2="-2380.215404264418" stroke-width="4" stroke="black" />
<line x1="-86.73181691750922" y1="-2280.215404264418" x2="-130.09772537626364" y2="-2370.323106396627" stroke-width="4" stroke="black" />
<line x1="-3.8576374173141647E-13" y1="-2100.0" x2="-4.041334437186268E-13" y2="-2200.0" stroke-width="4" stroke="black" />
<line x1="-4.041334437186268E-13" y1="-2200.0" x2="-43.365908458754824" y2="-2290.107702132209" stroke-width="4" stroke="black" />
<line x1="-4.041334437186268E-13" y1="-2200.0" x2="-4.225031457058371E-13" y2="-2300.0" stroke-width="4" stroke="black" />
<line x1="-4.225031457058371E-13" y1="-2300.0" x2="43.365908458753964" y2="-2390.1077021322094" stroke-width="4" stroke="black" />
<line x1="-4.225031457058371E-13" y1="-2300.0" x2="-4.4087284769304744E-13" y2="-2400.0" stroke-width="4" stroke="black" />
<line x1="-4.4087284769304744E-13" y1="-2400.0" x2="43.36590845875394" y2="-2490.1077021322094" stroke-width="4" stroke="black" />
<line x1="43.36590845875394" y1="-2490.1077021322094" x2="43.36590845875392" y2="-2590.1077021322094" stroke-width="4" stroke="black" />
<line x1="43.36590845875394" y1="-2490.1077021322094" x2="86.73181691750833" y2="-2580.215404264419" stroke-width="4" stroke="black" />
<line x1="86.73181691750833" y1="-2580.215404264419" x2="164.8838641593902" y2="-2642.6033639353573" stroke-width="4" stroke="black" />
<line x1="86.73181691750833" y1="-2580.215404264419" x2="130.0977253762627" y2="-2670.323106396628" stroke-width="4" stroke="black" />
<line x1="-4.4087284769304744E-13" y1="-2400.0" x2="-4.592425496802578E-13" y2="-2500.0" stroke-width="4" stroke="black" />
<line x1="-4.592425496802578E-13" y1="-2500.0" x2="-43.36590845875488" y2="-2590.107702132209" stroke-width="4" stroke="black" />
<line x1="-4.592425496802578E-13" y1="-2500.0" x2="-4.776122516674681E-13" y2="-2600.0" stroke-width="4" stroke="black" />
<line x1="-4.776122516674681E-13" y1="-2600.0" x2="43.36590845875391" y2="-2690.1077021322094" stroke-width="4" stroke="black" />
<line x1="-4.776122516674681E-13" y1="-2600.0" x2="-4.959819536546784E-13" y2="-2700.0" stroke-width="4" stroke="black" />
<line x1="-4.959819536546784E-13" y1="-2700.0" x2="-43.365908458754916" y2="-2790.107702132209" stroke-width="4" stroke="black" />
<line x1="-43.365908458754916" y1="-2790.107702132209" x2="-121.51795570063679" y2="-2852.4956618031474" stroke-width="4" stroke="black" />
<line x1="-43.365908458754916" y1="-2790.107702132209" x2="-86.73181691750933" y2="-2880.215404264418" stroke-width="4" stroke="black" />
<line x1="-86.73181691750933" y1="-2880.215404264418" x2="-86.73181691750935" y2="-2980.215404264418" stroke-width="4" stroke="black" />
<line x1="-86.73181691750933" y1="-2880.215404264418" x2="-130.09772537626375" y2="-2970.323106396627" stroke-width="4" stroke="black" />
<line x1="-130.09772537626375" y1="-2970.323106396627" x2="-208.24977261814564" y2="-3032.7110660675653" stroke-width="4" stroke="black" />
<line x1="-208.24977261814564" y1="-3032.7110660675653" x2="-305.72589203726784" y2="-3055.0360776686607" stroke-width="4" stroke="black" />
<line x1="-208.24977261814564" y1="-3032.7110660675653" x2="-286.4018198600275" y2="-3095.0990257385038" stroke-width="4" stroke="black" />
<line x1="-286.4018198600275" y1="-3095.0990257385038" x2="-329.7677283187819" y2="-3185.2067278707127" stroke-width="4" stroke="black" />
<line x1="-286.4018198600275" y1="-3095.0990257385038" x2="-364.55386710190936" y2="-3157.4869854094422" stroke-width="4" stroke="black" />
<line x1="-130.09772537626375" y1="-2970.323106396627" x2="-173.4636338350182" y2="-3060.4308085288358" stroke-width="4" stroke="black" />
<line x1="-173.4636338350182" y1="-3060.4308085288358" x2="-251.61568107690005" y2="-3122.8187681997742" stroke-width="4" stroke="black" />
<line x1="-173.4636338350182" y1="-3060.4308085288358" x2="-216.8295422937726" y2="-3150.5385106610447" stroke-width="4" stroke="black" />
<line x1="-216.8295422937726" y1="-3150.5385106610447" x2="-216.82954229377262" y2="-3250.5385106610447" stroke-width="4" stroke="black" />
<line x1="-216.8295422937726" y1="-3150.5385106610447" x2="-260.195450752527" y2="-3240.6462127932537" stroke-width="4" stroke="black" />
<line x1="-260.195450752527" y1="-3240.6462127932537" x2="-260.195450752527" y2="-3340.6462127932537" stroke-width="4" stroke="black" />
<line x1="-260.195450752527" y1="-3340.6462127932537" x2="-303.5613592112814" y2="-3430.7539149254626" stroke-width="4" stroke="black" />
<line x1="-260.195450752527" y1="-3340.6462127932537" x2="-260.195450752527" y2="-3440.6462127932537" stroke-width="4" stroke="black" />
<line x1="-260.195450752527" y1="-3440.6462127932537" x2="-216.82954229377262" y2="-3530.753914925463" stroke-width="4" stroke="black" />
<line x1="-260.195450752527" y1="-3440.6462127932537" x2="-260.195450752527" y2="-3540.6462127932537" stroke-width="4" stroke="black" />
<line x1="-260.195450752527" y1="-3240.6462127932537" x2="-303.5613592112814" y2="-3330.7539149254626" stroke-width="4" stroke="black" />
<line x1="-303.5613592112814" y1="-3330.7539149254626" x2="-381.71340645316326" y2="-3393.141874596401" stroke-width="4" stroke="black" />
<line x1="-303.5613592112814" y1="-3330.7539149254626" x2="-346.9272676700358" y2="-3420.8616170576715" stroke-width="4" stroke="black" />
<line x1="-346.9272676700358" y1="-3420.8616170576715" x2="-346.9272676700358" y2="-3520.8616170576715" stroke-width="4" stroke="black" />
<line x1="-346.9272676700358" y1="-3420.8616170576715" x2="-390.2931761287902" y2="-3510.9693191898805" stroke-width="4" stroke="black" />
<line x1="-390.2931761287902" y1="-3510.9693191898805" x2="-468.44522337067207" y2="-3573.357278860819" stroke-width="4" stroke="black" />
<line x1="-468.44522337067207" y1="-3573.357278860819" x2="-565.9213427897943" y2="-3595.6822904619144" stroke-width="4" stroke="black" />
<line x1="-468.44522337067207" y1="-3573.357278860819" x2="-546.597270612554" y2="-3635.7452385317574" stroke-width="4" stroke="black" />
<line x1="-546.597270612554" y1="-3635.7452385317574" x2="-589.9631790713084" y2="-3725.8529406639664" stroke-width="4" stroke="black" />
<line x1="-546.597270612554" y1="-3635.7452385317574" x2="-624.7493178544358" y2="-3698.133198202696" stroke-width="4" stroke="black" />
<line x1="-624.7493178544358" y1="-3698.133198202696" x2="-722.225437273558" y2="-3720.4582098037913" stroke-width="4" stroke="black" />
<line x1="-722.225437273558" y1="-3720.4582098037913" x2="-819.7403727041143" y2="-3698.303360041845" stroke-width="4" stroke="black" />
<line x1="-722.225437273558" y1="-3720.4582098037913" x2="-819.7015566926801" y2="-3742.7832214048867" stroke-width="4" stroke="black" />
<line x1="-819.7015566926801" y1="-3742.7832214048867" x2="-897.853603934562" y2="-3805.171181075825" stroke-width="4" stroke="black" />
<line x1="-819.7015566926801" y1="-3742.7832214048867" x2="-917.1776761118023" y2="-3765.108233005982" stroke-width="4" stroke="black" />
<line x1="-624.7493178544358" y1="-3698.133198202696" x2="-702.9013650963177" y2="-3760.5211578736344" stroke-width="4" stroke="black" />
<line x1="-702.9013650963177" y1="-3760.5211578736344" x2="-800.3774845154398" y2="-3782.84616947473" stroke-width="4" stroke="black" />
<line x1="-702.9013650963177" y1="-3760.5211578736344" x2="-781.0534123381996" y2="-3822.909117544573" stroke-width="4" stroke="black" />
<line x1="-781.0534123381996" y1="-3822.909117544573" x2="-824.419320796954" y2="-3913.016819676782" stroke-width="4" stroke="black" />
<line x1="-781.0534123381996" y1="-3822.909117544573" x2="-859.2054595800814" y2="-3885.2970772155113" stroke-width="4" stroke="black" />
<line x1="-859.2054595800814" y1="-3885.2970772155113" x2="-902.5713680388359" y2="-3975.4047793477203" stroke-width="4" stroke="black" />
<line x1="-902.5713680388359" y1="-3975.4047793477203" x2="-980.7234152807177" y2="-4037.7927390186587" stroke-width="4" stroke="black" />
<line x1="-902.5713680388359" y1="-3975.4047793477203" x2="-945.9372764975903" y2="-4065.512481479929" stroke-width="4" stroke="black" />
<line x1="-945.9372764975903" y1="-4065.512481479929" x2="-945.9372764975903" y2="-4165.512481479929" stroke-width="4" stroke="black" />
<line x1="-945.9372764975903" y1="-4065.512481479929" x2="-989.3031849563448" y2="-4155.620183612138" stroke-width="4" stroke="black" />
<line x1="-859.2054595800814" y1="-3885.2970772155113" x2="-937.3575068219633" y2="-3947.68503688645" stroke-width="4" stroke="black" />
<line x1="-937.3575068219633" y1="-3947.68503688645" x2="-1034.8336262410855" y2="-3970.010048487545" stroke-width="4" stroke="black" />
<line x1="-937.3575068219633" y1="-3947.68503688645" x2="-1015.5095540638451" y2="-4010.0729965573883" stroke-width="4" stroke="black" />
<line x1="-1015.5095540638451" y1="-4010.0729965573883" x2="-1058.8754625225995" y2="-4100.180698689597" stroke-width="4" stroke="black" />
<line x1="-1015.5095540638451" y1="-4010.0729965573883" x2="-1093.6616013057271" y2="-4072.4609562283267" stroke-width="4" stroke="black" />
<line x1="-390.2931761287902" y1="-3510.9693191898805" x2="-433.6590845875446" y2="-3601.0770213220894" stroke-width="4" stroke="black" />
<line x1="-433.6590845875446" y1="-3601.0770213220894" x2="-511.8111318294265" y2="-3663.464980993028" stroke-width="4" stroke="black" />
<line x1="-433.6590845875446" y1="-3601.0770213220894" x2="-477.024993046299" y2="-3691.1847234542984" stroke-width="4" stroke="black" />
<line x1="-477.024993046299" y1="-3691.1847234542984" x2="-477.024993046299" y2="-3791.1847234542984" stroke-width="4" stroke="black" />
<line x1="-477.024993046299" y1="-3691.1847234542984" x2="-520.3909015050534" y2="-3781.2924255865073" stroke-width="4" stroke="black" />
<line x1="-520.3909015050534" y1="-3781.2924255865073" x2="-598.5429487469353" y2="-3843.680385257446" stroke-width="4" stroke="black" />
<line x1="-598.5429487469353" y1="-3843.680385257446" x2="-696.0190681660574" y2="-3866.005396858541" stroke-width="4" stroke="black" />
<line x1="-598.5429487469353" y1="-3843.680385257446" x2="-676.6949959888171" y2="-3906.0683449283842" stroke-width="4" stroke="black" />
<line x1="-676.6949959888171" y1="-3906.0683449283842" x2="-720.0609044475716" y2="-3996.176047060593" stroke-width="4" stroke="black" />
<line x1="-676.6949959888171" y1="-3906.0683449283842" x2="-754.847043230699" y2="-3968.4563045993227" stroke-width="4" stroke="black" />
<line x1="-520.3909015050534" y1="-3781.2924255865073" x2="-563.7568099638079" y2="-3871.4001277187162" stroke-width="4" stroke="black" />
<line x1="-563.7568099638079" y1="-3871.4001277187162" x2="-641.9088572056897" y2="-3933.7880873896547" stroke-width="4" stroke="black" />
<line x1="-563.7568099638079" y1="-3871.4001277187162" x2="-607.1227184225623" y2="-3961.507829850925" stroke-width="4" stroke="black" />
<line x1="-607.1227184225623" y1="-3961.507829850925" x2="-607.1227184225623" y2="-4061.507829850925" stroke-width="4" stroke="black" />
<line x1="-607.1227184225623" y1="-3961.507829850925" x2="-650.4886268813168" y2="-4051.615531983134" stroke-width="4" stroke="black" />
<line x1="-650.4886268813168" y1="-4051.615531983134" x2="-650.4886268813168" y2="-4151.615531983134" stroke-width="4" stroke="black" />
<line x1="-650.4886268813168" y1="-4151.615531983134" x2="-693.8545353400713" y2="-4241.723234115343" stroke-width="4" stroke="black" />
<line x1="-650.4886268813168" y1="-4151.615531983134" x2="-650.4886268813168" y2="-4251.615531983134" stroke-width="4" stroke="black" />
<line x1="-650.4886268813168" y1="-4251.615531983134" x2="-607.1227184225625" y2="-4341.723234115343" stroke-width="4" stroke="black" />
<line x1="-650.4886268813168" y1="-4251.615531983134" x2="-650.4886268813168" y2="-4351.615531983134" stroke-width="4" stroke="black" />
<line x1="-650.4886268813168" y1="-4051.615531983134" x2="-693.8545353400713" y2="-4141.723234115343" stroke-width="4" stroke="black" />
<line x1="-693.8545353400713" y1="-4141.723234115343" x2="-772.0065825819531" y2="-4204.111193786282" stroke-width="4" stroke="black" />
<line x1="-693.8545353400713" y1="-4141.723234115343" x2="-737.2204437988257" y2="-4231.830936247552" stroke-width="4" stroke="black" />
<line x1="-737.2204437988257" y1="-4231.830936247552" x2="-737.2204437988257" y2="-4331.830936247552" stroke-width="4" stroke="black" />
<line x1="-737.2204437988257" y1="-4231.830936247552" x2="-780.5863522575802" y2="-4321.938638379761" stroke-width="4" stroke="black" />
<line x1="-780.5863522575802" y1="-4321.938638379761" x2="-780.5863522575802" y2="-4421.938638379761" stroke-width="4" stroke="black" />
<line x1="-780.5863522575802" y1="-4421.938638379761" x2="-823.9522607163346" y2="-4512.04634051197" stroke-width="4" stroke="black" />
<line x1="-780.5863522575802" y1="-4421.938638379761" x2="-780.5863522575802" y2="-4521.938638379761" stroke-width="4" stroke="black" />
<line x1="-780.5863522575802" y1="-4521.938638379761" x2="-737.2204437988258" y2="-4612.04634051197" stroke-width="4" stroke="black" />
<line x1="-780.5863522575802" y1="-4521.938638379761" x2="-780.5863522575802" y2="-4621.938638379761" stroke-width="4" stroke="black" />
<line x1="-780.5863522575802" y1="-4621.938638379761" x2="-823.9522607163346" y2="-4712.04634051197" stroke-width="4" stroke="black" />
<line x1="-823.9522607163346" y1="-4712.04634051197" x2="-902.1043079582165" y2="-4774.434300182908" stroke-width="4" stroke="black" />
<line x1="-823.9522607163346" y1="-4712.04634051197" x2="-867.3181691750891" y2="-4802.154042644179" stroke-width="4" stroke="black" />
<line x1="-867.3181691750891" y1="-4802.154042644179" x2="-867.3181691750891" y2="-4902.154042644179" stroke-width="4" stroke="black" />
<line x1="-867.3181691750891" y1="-4802.154042644179" x2="-910.6840776338436" y2="-4892.261744776388" stroke-width="4" stroke="black" />
<line x1="-780.5863522575802" y1="-4621.938638379761" x2="-780.5863522575802" y2="-4721.938638379761" stroke-width="4" stroke="black" />
<line x1="-780.5863522575802" y1="-4721.938638379761" x2="-823.9522607163346" y2="-4812.04634051197" stroke-width="4" stroke="black" />
<line x1="-780.5863522575802" y1="-4721.938638379761" x2="-780.5863522575802" y2="-4821.938638379761" stroke-width="4" stroke="black" />
<line x1="-780.5863522575802" y1="-4821.938638379761" x2="-737.2204437988258" y2="-4912.04634051197" stroke-width="4" stroke="black" />
<line x1="-780.5863522575802" y1="-4821.938638379761" x2="-780.5863522575802" y2="-4921.938638379761" stroke-width="4" stroke="black" />
<line x1="-780.5863522575802" y1="-4921.938638379761" x2="-737.2204437988258" y2="-5012.04634051197" stroke-width="4" stroke="black" />
<line x1="-737.2204437988258" y1="-5012.04634051197" x2="-737.2204437988258" y2="-5112.04634051197" stroke-width="4" stroke="black" />
<line x1="-737.2204437988258" y1="-5012.04634051197" x2="-693.8545353400715" y2="-5102.154042644179" stroke-width="4" stroke="black" />
<line x1="-693.8545353400715" y1="-5102.154042644179" x2="-615.7024880981896" y2="-5164.542002315117" stroke-width="4" stroke="black" />
<line x1="-693.8545353400715" y1="-5102.154042644179" x2="-650.4886268813171" y2="-5192.261744776388" stroke-width="4" stroke="black" />
<line x1="-780.5863522575802" y1="-4921.938638379761" x2="-780.5863522575802" y2="-5021.938638379761" stroke-width="4" stroke="black" />
<line x1="-780.5863522575802" y1="-5021.938638379761" x2="-823.9522607163346" y2="-5112.04634051197" stroke-width="4" stroke="black" />
<line x1="-780.5863522575802" y1="-5021.938638379761" x2="-780.5863522575802" y2="-5121.938638379761" stroke-width="4" stroke="black" />
<line x1="-780.5863522575802" y1="-5121.938638379761" x2="-737.2204437988258" y2="-5212.04634051197" stroke-width="4" stroke="black" />
<line x1="-780.5863522575802" y1="-5121.938638379761" x2="-780.5863522575802" y2="-5221.938638379761" stroke-width="4" stroke="black" />
<line x1="-780.5863522575802" y1="-4321.938638379761" x2="-823.9522607163346" y2="-4412.04634051197" stroke-width="4" stroke="black" />
<line x1="-823.9522607163346" y1="-4412.04634051197" x2="-902.1043079582165" y2="-4474.434300182908" stroke-width="4" stroke="black" />
<line x1="-823.9522607163346" y1="-4412.04634051197" x2="-867.3181691750891" y2="-4502.154042644179" stroke-width="4" stroke="black" />
<line x1="-867.3181691750891" y1="-4502.154042644179" x2="-867.3181691750891" y2="-4602.154042644179" stroke-width="4" stroke="black" />
<line x1="-867.3181691750891" y1="-4502.154042644179" x2="-910.6840776338436" y2="-4592.261744776388" stroke-width="4" stroke="black" />
<line x1="-910.6840776338436" y1="-4592.261744776388" x2="-988.8361248757254" y2="-4654.649704447326" stroke-width="4" stroke="black" />
<line x1="-988.8361248757254" y1="-4654.649704447326" x2="-1086.3122442948477" y2="-4676.974716048421" stroke-width="4" stroke="black" />
<line x1="-988.8361248757254" y1="-4654.649704447326" x2="-1066.9881721176073" y2="-4717.037664118265" stroke-width="4" stroke="black" />
<line x1="-1066.9881721176073" y1="-4717.037664118265" x2="-1110.3540805763616" y2="-4807.145366250474" stroke-width="4" stroke="black" />
<line x1="-1066.9881721176073" y1="-4717.037664118265" x2="-1145.1402193594893" y2="-4779.425623789203" stroke-width="4" stroke="black" />
<line x1="-910.6840776338436" y1="-4592.261744776388" x2="-954.049986092598" y2="-4682.369446908597" stroke-width="4" stroke="black" />
<line x1="-954.049986092598" y1="-4682.369446908597" x2="-1032.20203333448" y2="-4744.757406579535" stroke-width="4" stroke="black" />
<line x1="-954.049986092598" y1="-4682.369446908597" x2="-997.4158945513525" y2="-4772.477149040806" stroke-width="4" stroke="black" />
<line x1="-997.4158945513525" y1="-4772.477149040806" x2="-997.4158945513525" y2="-4872.477149040806" stroke-width="4" stroke="black" />
<line x1="-997.4158945513525" y1="-4772.477149040806" x2="-1040.7818030101068" y2="-4862.584851173015" stroke-width="4" stroke="black" />
<line x1="-1040.7818030101068" y1="-4862.584851173015" x2="-1040.7818030101068" y2="-4962.584851173015" stroke-width="4" stroke="black" />
<line x1="-1040.7818030101068" y1="-4962.584851173015" x2="-1084.1477114688612" y2="-5052.692553305224" stroke-width="4" stroke="black" />
<line x1="-1040.7818030101068" y1="-4962.584851173015" x2="-1040.7818030101068" y2="-5062.584851173015" stroke-width="4" stroke="black" />
<line x1="-1040.7818030101068" y1="-5062.584851173015" x2="-997.4158945513525" y2="-5152.692553305224" stroke-width="4" stroke="black" />
<line x1="-1040.7818030101068" y1="-5062.584851173015" x2="-1040.7818030101068" y2="-5162.584851173015" stroke-width="4" stroke="black" />
<line x1="-1040.7818030101068" y1="-4862.584851173015" x2="-1084.1477114688612" y2="-4952.692553305224" stroke-width="4" stroke="black" />
<line x1="-1084.1477114688612" y1="-4952.692553305224" x2="-1162.2997587107432" y2="-5015.080512976162" stroke-width="4" stroke="black" />
<line x1="-1084.1477114688612" y1="-4952.692553305224" x2="-1127.5136199276155" y2="-5042.8002554374325" stroke-width="4" stroke="black" />
<line x1="-1127.5136199276155" y1="-5042.8002554374325" x2="-1127.5136199276155" y2="-5142.8002554374325" stroke-width="4" stroke="black" />
<line x1="-1127.5136199276155" y1="-5042.8002554374325" x2="-1170.8795283863699" y2="-5132.907957569641" stroke-width="4" stroke="black" />
<line x1="-4.959819536546784E-13" y1="-2700.0" x2="-5.143516556418887E-13" y2="-2800.0" stroke-width="4" stroke="black" />
<line x1="-5.143516556418887E-13" y1="-2800.0" x2="-43.36590845875493" y2="-2890.107702132209" stroke-width="4" stroke="black" />
<line x1="-5.143516556418887E-13" y1="-2800.0" x2="-5.327213576290991E-13" y2="-2900.0" stroke-width="4" stroke="black" />
<line x1="-5.327213576290991E-13" y1="-2900.0" x2="43.36590845875385" y2="-2990.1077021322094" stroke-width="4" stroke="black" />
<line x1="-5.327213576290991E-13" y1="-2900.0" x2="-5.510910596163094E-13" y2="-3000.0" stroke-width="4" stroke="black" />
<line x1="-5.510910596163094E-13" y1="-3000.0" x2="-43.36590845875497" y2="-3090.107702132209" stroke-width="4" stroke="black" />
<line x1="-43.36590845875497" y1="-3090.107702132209" x2="-121.51795570063685" y2="-3152.4956618031474" stroke-width="4" stroke="black" />
<line x1="-43.36590845875497" y1="-3090.107702132209" x2="-86.73181691750939" y2="-3180.215404264418" stroke-width="4" stroke="black" />
<line x1="-86.73181691750939" y1="-3180.215404264418" x2="-86.7318169175094" y2="-3280.215404264418" stroke-width="4" stroke="black" />
<line x1="-86.73181691750939" y1="-3180.215404264418" x2="-130.0977253762638" y2="-3270.323106396627" stroke-width="4" stroke="black" />
<line x1="-5.510910596163094E-13" y1="-3000.0" x2="-5.694607616035197E-13" y2="-3100.0" stroke-width="4" stroke="black" />
<line x1="-5.694607616035197E-13" y1="-3100.0" x2="-43.36590845875499" y2="-3190.107702132209" stroke-width="4" stroke="black" />
<line x1="-5.694607616035197E-13" y1="-3100.0" x2="-5.8783046359073E-13" y2="-3200.0" stroke-width="4" stroke="black" />
<line x1="-5.8783046359073E-13" y1="-3200.0" x2="43.36590845875379" y2="-3290.1077021322094" stroke-width="4" stroke="black" />
<line x1="-5.8783046359073E-13" y1="-3200.0" x2="-6.062001655779403E-13" y2="-3300.0" stroke-width="4" stroke="black" />
<line x1="-6.062001655779403E-13" y1="-3300.0" x2="43.36590845875378" y2="-3390.1077021322094" stroke-width="4" stroke="black" />
<line x1="43.36590845875378" y1="-3390.1077021322094" x2="43.36590845875376" y2="-3490.1077021322094" stroke-width="4" stroke="black" />
<line x1="43.36590845875378" y1="-3390.1077021322094" x2="86.73181691750816" y2="-3480.215404264419" stroke-width="4" stroke="black" />
<line x1="86.73181691750816" y1="-3480.215404264419" x2="164.88386415939004" y2="-3542.6033639353573" stroke-width="4" stroke="black" />
<line x1="86.73181691750816" y1="-3480.215404264419" x2="130.09772537626253" y2="-3570.323106396628" stroke-width="4" stroke="black" />
<line x1="-6.062001655779403E-13" y1="-3300.0" x2="-6.245698675651507E-13" y2="-3400.0" stroke-width="4" stroke="black" />
<line x1="-6.245698675651507E-13" y1="-3400.0" x2="-43.365908458755044" y2="-3490.107702132209" stroke-width="4" stroke="black" />
<line x1="-6.245698675651507E-13" y1="-3400.0" x2="-6.42939569552361E-13" y2="-3500.0" stroke-width="4" stroke="black" />
<line x1="-6.42939569552361E-13" y1="-3500.0" x2="43.365908458753744" y2="-3590.1077021322094" stroke-width="4" stroke="black" />
<line x1="-6.42939569552361E-13" y1="-3500.0" x2="-6.613092715395713E-13" y2="-3600.0" stroke-width="4" stroke="black" />
<line x1="-6.613092715395713E-13" y1="-3600.0" x2="-43.36590845875508" y2="-3690.107702132209" stroke-width="4" stroke="black" />
<line x1="-43.36590845875508" y1="-3690.107702132209" x2="-121.51795570063695" y2="-3752.4956618031474" stroke-width="4" stroke="black" />
<line x1="-43.36590845875508" y1="-3690.107702132209" x2="-86.73181691750949" y2="-3780.215404264418" stroke-width="4" stroke="black" />
<line x1="-86.73181691750949" y1="-3780.215404264418" x2="-86.7318169175095" y2="-3880.215404264418" stroke-width="4" stroke="black" />
<line x1="-86.73181691750949" y1="-3780.215404264418" x2="-130.0977253762639" y2="-3870.323106396627" stroke-width="4" stroke="black" />
<line x1="-130.0977253762639" y1="-3870.323106396627" x2="-208.24977261814576" y2="-3932.7110660675653" stroke-width="4" stroke="black" />
<line x1="-208.24977261814576" y1="-3932.7110660675653" x2="-305.72589203726795" y2="-3955.0360776686607" stroke-width="4" stroke="black" />
<line x1="-208.24977261814576" y1="-3932.7110660675653" x2="-286.4018198600276" y2="-3995.0990257385038" stroke-width="4" stroke="black" />
<line x1="-286.4018198600276" y1="-3995.0990257385038" x2="-329.767728318782" y2="-4085.2067278707127" stroke-width="4" stroke="black" />
<line x1="-286.4018198600276" y1="-3995.0990257385038" x2="-364.5538671019095" y2="-4057.4869854094422" stroke-width="4" stroke="black" />
<line x1="-130.0977253762639" y1="-3870.323106396627" x2="-173.4636338350183" y2="-3960.4308085288358" stroke-width="4" stroke="black" />
<line x1="-173.4636338350183" y1="-3960.4308085288358" x2="-251.61568107690016" y2="-4022.8187681997742" stroke-width="4" stroke="black" />
<line x1="-173.4636338350183" y1="-3960.4308085288358" x2="-216.8295422937727" y2="-4050.5385106610447" stroke-width="4" stroke="black" />
<line x1="-216.8295422937727" y1="-4050.5385106610447" x2="-216.82954229377273" y2="-4150.538510661045" stroke-width="4" stroke="black" />
<line x1="-216.8295422937727" y1="-4050.5385106610447" x2="-260.1954507525271" y2="-4140.646212793254" stroke-width="4" stroke="black" />
<line x1="-260.1954507525271" y1="-4140.646212793254" x2="-260.1954507525271" y2="-4240.646212793254" stroke-width="4" stroke="black" />
<line x1="-260.1954507525271" y1="-4240.646212793254" x2="-303.5613592112815" y2="-4330.753914925463" stroke-width="4" stroke="black" />
<line x1="-260.1954507525271" y1="-4240.646212793254" x2="-260.1954507525271" y2="-4340.646212793254" stroke-width="4" stroke="black" />
<line x1="-260.1954507525271" y1="-4340.646212793254" x2="-216.82954229377273" y2="-4430.753914925463" stroke-width="4" stroke="black" />
<line x1="-260.1954507525271" y1="-4340.646212793254" x2="-260.1954507525271" y2="-4440.646212793254" stroke-width="4" stroke="black" />
<line x1="-260.1954507525271" y1="-4140.646212793254" x2="-303.5613592112815" y2="-4230.753914925463" stroke-width="4" stroke="black" />
<line x1="-303.5613592112815" y1="-4230.753914925463" x2="-381.7134064531634" y2="-4293.141874596401" stroke-width="4" stroke="black" />
<line x1="-303.5613592112815" y1="-4230.753914925463" x2="-346.9272676700359" y2="-4320.8616170576715" stroke-width="4" stroke="black" />
<line x1="-346.9272676700359" y1="-4320.8616170576715" x2="-346.9272676700359" y2="-4420.8616170576715" stroke-width="4" stroke="black" />
<line x1="-346.9272676700359" y1="-4320.8616170576715" x2="-390.2931761287903" y2="-4410.9693191898805" stroke-width="4" stroke="black" />
<line x1="-6.613092715395713E-13" y1="-3600.0" x2="-6.796789735267816E-13" y2="-3700.0" stroke-width="4" stroke="black" />
<line x1="-6.796789735267816E-13" y1="-3700.0" x2="-43.3659084587551" y2="-3790.107702132209" stroke-width="4" stroke="black" />
<line x1="-6.796789735267816E-13" y1="-3700.0" x2="-6.98048675513992E-13" y2="-3800.0" stroke-width="4" stroke="black" />
<line x1="-6.98048675513992E-13" y1="-3800.0" x2="43.36590845875369" y2="-3890.1077021322094" stroke-width="4" stroke="black" />
<line x1="-6.98048675513992E-13" y1="-3800.0" x2="-7.164183775012023E-13" y2="-3900.0" stroke-width="4" stroke="black" />
<line x1="-7.164183775012023E-13" y1="-3900.0" x2="-43.365908458755136" y2="-3990.107702132209" stroke-width="4" stroke="black" />
<line x1="-43.365908458755136" y1="-3990.107702132209" x2="-121.517955700637" y2="-4052.4956618031474" stroke-width="4" stroke="black" />
<line x1="-43.365908458755136" y1="-3990.107702132209" x2="-86.73181691750955" y2="-4080.215404264418" stroke-width="4" stroke="black" />
<line x1="-86.73181691750955" y1="-4080.215404264418" x2="-86.73181691750956" y2="-4180.215404264418" stroke-width="4" stroke="black" />
<line x1="-86.73181691750955" y1="-4080.215404264418" x2="-130.09772537626395" y2="-4170.323106396627" stroke-width="4" stroke="black" />
<line x1="-7.164183775012023E-13" y1="-3900.0" x2="-7.347880794884126E-13" y2="-4000.0" stroke-width="4" stroke="black" />
<line x1="-7.347880794884126E-13" y1="-4000.0" x2="-43.36590845875515" y2="-4090.107702132209" stroke-width="4" stroke="black" />
<line x1="-7.347880794884126E-13" y1="-4000.0" x2="-7.531577814756229E-13" y2="-4100.0" stroke-width="4" stroke="black" />
<line x1="-7.531577814756229E-13" y1="-4100.0" x2="43.36590845875363" y2="-4190.107702132209" stroke-width="4" stroke="black" />
<line x1="-7.531577814756229E-13" y1="-4100.0" x2="-7.715274834628333E-13" y2="-4200.0" stroke-width="4" stroke="black" />
<line x1="-7.715274834628333E-13" y1="-4200.0" x2="43.36590845875361" y2="-4290.107702132209" stroke-width="4" stroke="black" />
<line x1="43.36590845875361" y1="-4290.107702132209" x2="43.36590845875359" y2="-4390.107702132209" stroke-width="4" stroke="black" />
<line x1="43.36590845875361" y1="-4290.107702132209" x2="86.73181691750798" y2="-4380.215404264418" stroke-width="4" stroke="black" />
<line x1="86.73181691750798" y1="-4380.215404264418" x2="164.88386415938987" y2="-4442.603363935356" stroke-width="4" stroke="black" />
<line x1="86.73181691750798" y1="-4380.215404264418" x2="130.09772537626236" y2="-4470.323106396627" stroke-width="4" stroke="black" />
<line x1="-7.715274834628333E-13" y1="-4200.0" x2="-7.898971854500436E-13" y2="-4300.0" stroke-width="4" stroke="black" />
<line x1="-7.898971854500436E-13" y1="-4300.0" x2="-43.36590845875521" y2="-4390.107702132209" stroke-width="4" stroke="black" />
<line x1="-7.898971854500436E-13" y1="-4300.0" x2="-8.082668874372539E-13" y2="-4400.0" stroke-width="4" stroke="black" />
<line x1="-8.082668874372539E-13" y1="-4400.0" x2="43.36590845875357" y2="-4490.107702132209" stroke-width="4" stroke="black" />
<line x1="-8.082668874372539E-13" y1="-4400.0" x2="-8.266365894244642E-13" y2="-4500.0" stroke-width="4" stroke="black" />
<line x1="-8.266365894244642E-13" y1="-4500.0" x2="43.36590845875356" y2="-4590.107702132209" stroke-width="4" stroke="black" />
<line x1="43.36590845875356" y1="-4590.107702132209" x2="43.36590845875354" y2="-4690.107702132209" stroke-width="4" stroke="black" />
<line x1="43.36590845875356" y1="-4590.107702132209" x2="86.73181691750794" y2="-4680.215404264418" stroke-width="4" stroke="black" />
<line x1="86.73181691750794" y1="-4680.215404264418" x2="164.88386415938982" y2="-4742.603363935356" stroke-width="4" stroke="black" />
<line x1="86.73181691750794" y1="-4680.215404264418" x2="130.09772537626233" y2="-4770.323106396627" stroke-width="4" stroke="black" />
<line x1="130.09772537626233" y1="-4770.323106396627" x2="130.0977253762623" y2="-4870.323106396627" stroke-width="4" stroke="black" />
<line x1="130.0977253762623" y1="-4870.323106396627" x2="86.73181691750789" y2="-4960.430808528836" stroke-width="4" stroke="black" />
<line x1="130.0977253762623" y1="-4870.323106396627" x2="130.09772537626228" y2="-4970.323106396627" stroke-width="4" stroke="black" />
<line x1="130.09772537626228" y1="-4970.323106396627" x2="173.46363383501665" y2="-5060.430808528836" stroke-width="4" stroke="black" />
<line x1="130.09772537626228" y1="-4970.323106396627" x2="130.09772537626225" y2="-5070.323106396627" stroke-width="4" stroke="black" />
<line x1="130.09772537626233" y1="-4770.323106396627" x2="173.4636338350167" y2="-4860.430808528836" stroke-width="4" stroke="black" />
<line x1="173.4636338350167" y1="-4860.430808528836" x2="173.46363383501668" y2="-4960.430808528836" stroke-width="4" stroke="black" />
<line x1="173.4636338350167" y1="-4860.430808528836" x2="216.82954229377108" y2="-4950.538510661045" stroke-width="4" stroke="black" />
<line x1="216.82954229377108" y1="-4950.538510661045" x2="294.981589535653" y2="-5012.926470331983" stroke-width="4" stroke="black" />
<line x1="216.82954229377108" y1="-4950.538510661045" x2="260.19545075252546" y2="-5040.646212793254" stroke-width="4" stroke="black" />
<line x1="260.19545075252546" y1="-5040.646212793254" x2="338.3474979944073" y2="-5103.034172464192" stroke-width="4" stroke="black" />
<line x1="338.3474979944073" y1="-5103.034172464192" x2="381.7134064531617" y2="-5193.141874596401" stroke-width="4" stroke="black" />
<line x1="338.3474979944073" y1="-5103.034172464192" x2="416.4995452362892" y2="-5165.422132135131" stroke-width="4" stroke="black" />
<line x1="416.4995452362892" y1="-5165.422132135131" x2="513.9756646554114" y2="-5187.747143736226" stroke-width="4" stroke="black" />
<line x1="416.4995452362892" y1="-5165.422132135131" x2="494.65159247817104" y2="-5227.810091806069" stroke-width="4" stroke="black" />
<line x1="260.19545075252546" y1="-5040.646212793254" x2="303.56135921127986" y2="-5130.753914925463" stroke-width="4" stroke="black" />
<line x1="303.56135921127986" y1="-5130.753914925463" x2="303.56135921127986" y2="-5230.753914925463" stroke-width="4" stroke="black" />
<line x1="303.56135921127986" y1="-5130.753914925463" x2="346.92726767003427" y2="-5220.8616170576715" stroke-width="4" stroke="black" />
<line x1="346.92726767003427" y1="-5220.8616170576715" x2="425.07931491191613" y2="-5283.24957672861" stroke-width="4" stroke="black" />
<line x1="346.92726767003427" y1="-5220.8616170576715" x2="390.2931761287887" y2="-5310.9693191898805" stroke-width="4" stroke="black" />
<line x1="-8.266365894244642E-13" y1="-4500.0" x2="-8.450062914116745E-13" y2="-4600.0" stroke-width="4" stroke="black" />
<line x1="-8.450062914116745E-13" y1="-4600.0" x2="-43.365908458755264" y2="-4690.107702132209" stroke-width="4" stroke="black" />
<line x1="-8.450062914116745E-13" y1="-4600.0" x2="-8.633759933988849E-13" y2="-4700.0" stroke-width="4" stroke="black" />
<line x1="-8.633759933988849E-13" y1="-4700.0" x2="43.365908458753516" y2="-4790.107702132209" stroke-width="4" stroke="black" />
<line x1="-8.633759933988849E-13" y1="-4700.0" x2="-8.817456953860952E-13" y2="-4800.0" stroke-width="4" stroke="black" />
<line x1="-8.817456953860952E-13" y1="-4800.0" x2="-43.3659084587553" y2="-4890.107702132209" stroke-width="4" stroke="black" />
<line x1="-43.3659084587553" y1="-4890.107702132209" x2="-121.51795570063717" y2="-4952.495661803147" stroke-width="4" stroke="black" />
<line x1="-43.3659084587553" y1="-4890.107702132209" x2="-86.73181691750972" y2="-4980.215404264418" stroke-width="4" stroke="black" />
<line x1="-86.73181691750972" y1="-4980.215404264418" x2="-86.73181691750973" y2="-5080.215404264418" stroke-width="4" stroke="black" />
<line x1="-86.73181691750972" y1="-4980.215404264418" x2="-130.09772537626412" y2="-5070.323106396627" stroke-width="4" stroke="black" />
<line x1="-8.817456953860952E-13" y1="-4800.0" x2="-9.001153973733055E-13" y2="-4900.0" stroke-width="4" stroke="black" />
<line x1="-9.001153973733055E-13" y1="-4900.0" x2="-43.36590845875532" y2="-4990.107702132209" stroke-width="4" stroke="black" />
<line x1="-9.001153973733055E-13" y1="-4900.0" x2="-9.184850993605157E-13" y2="-5000.0" stroke-width="4" stroke="black" />
<line x1="-9.184850993605157E-13" y1="-5000.0" x2="43.36590845875347" y2="-5090.107702132209" stroke-width="4" stroke="black" />
<line x1="-9.184850993605157E-13" y1="-5000.0" x2="-9.36854801347726E-13" y2="-5100.0" stroke-width="4" stroke="black" />
<line x1="-9.36854801347726E-13" y1="-5100.0" x2="43.365908458753445" y2="-5190.107702132209" stroke-width="4" stroke="black" />
<line x1="43.365908458753445" y1="-5190.107702132209" x2="43.365908458753424" y2="-5290.107702132209" stroke-width="4" stroke="black" />
<line x1="43.365908458753445" y1="-5190.107702132209" x2="86.73181691750783" y2="-5280.215404264418" stroke-width="4" stroke="black" />
<line x1="86.73181691750783" y1="-5280.215404264418" x2="164.8838641593897" y2="-5342.603363935356" stroke-width="4" stroke="black" />
<line x1="86.73181691750783" y1="-5280.215404264418" x2="130.09772537626222" y2="-5370.323106396627" stroke-width="4" stroke="black" />
<line x1="-9.36854801347726E-13" y1="-5100.0" x2="-9.552245033349362E-13" y2="-5200.0" stroke-width="4" stroke="black" />
<line x1="-9.552245033349362E-13" y1="-5200.0" x2="-43.36590845875537" y2="-5290.107702132209" stroke-width="4" stroke="black" />
<line x1="-9.552245033349362E-13" y1="-5200.0" x2="-9.735942053221464E-13" y2="-5300.0" stroke-width="4" stroke="black" />
<line x1="-9.735942053221464E-13" y1="-5300.0" x2="43.36590845875341" y2="-5390.107702132209" stroke-width="4" stroke="black" />
<line x1="-9.735942053221464E-13" y1="-5300.0" x2="-9.919639073093566E-13" y2="-5400.0" stroke-width="4" stroke="black" />
<line x1="-9.919639073093566E-13" y1="-5400.0" x2="43.36590845875339" y2="-5490.107702132209" stroke-width="4" stroke="black" />
<line x1="43.36590845875339" y1="-5490.107702132209" x2="43.36590845875337" y2="-5590.107702132209" stroke-width="4" stroke="black" />
<line x1="43.36590845875339" y1="-5490.107702132209" x2="86.73181691750777" y2="-5580.215404264418" stroke-width="4" stroke="black" />
<line x1="86.73181691750777" y1="-5580.215404264418" x2="164.88386415938965" y2="-5642.603363935356" stroke-width="4" stroke="black" />
<line x1="86.73181691750777" y1="-5580.215404264418" x2="130.09772537626216" y2="-5670.323106396627" stroke-width="4" stroke="black" />
<line x1="130.09772537626216" y1="-5670.323106396627" x2="130.09772537626213" y2="-5770.323106396627" stroke-width="4" stroke="black" />
<line x1="130.09772537626213" y1="-5770.323106396627" x2="86.73181691750771" y2="-5860.430808528836" stroke-width="4" stroke="black" />
<line x1="130.09772537626213" y1="-5770.323106396627" x2="130.0977253762621" y2="-5870.323106396627" stroke-width="4" stroke="black" />
<line x1="130.0977253762621" y1="-5870.323106396627" x2="173.46363383501648" y2="-5960.430808528836" stroke-width="4" stroke="black" />
<line x1="130.0977253762621" y1="-5870.323106396627" x2="130.09772537626208" y2="-5970.323106396627" stroke-width="4" stroke="black" />
<line x1="130.09772537626216" y1="-5670.323106396627" x2="173.46363383501654" y2="-5760.430808528836" stroke-width="4" stroke="black" />
<line x1="173.46363383501654" y1="-5760.430808528836" x2="173.4636338350165" y2="-5860.430808528836" stroke-width="4" stroke="black" />
<line x1="173.46363383501654" y1="-5760.430808528836" x2="216.8295422937709" y2="-5850.538510661045" stroke-width="4" stroke="black" />
<line x1="216.8295422937709" y1="-5850.538510661045" x2="294.9815895356528" y2="-5912.926470331983" stroke-width="4" stroke="black" />
<line x1="216.8295422937709" y1="-5850.538510661045" x2="260.1954507525253" y2="-5940.646212793254" stroke-width="4" stroke="black" />
<line x1="260.1954507525253" y1="-5940.646212793254" x2="338.34749799440715" y2="-6003.034172464192" stroke-width="4" stroke="black" />
<line x1="338.34749799440715" y1="-6003.034172464192" x2="381.71340645316155" y2="-6093.141874596401" stroke-width="4" stroke="black" />
<line x1="338.34749799440715" y1="-6003.034172464192" x2="416.499545236289" y2="-6065.422132135131" stroke-width="4" stroke="black" />
<line x1="416.499545236289" y1="-6065.422132135131" x2="513.9756646554112" y2="-6087.747143736226" stroke-width="4" stroke="black" />
<line x1="416.499545236289" y1="-6065.422132135131" x2="494.65159247817087" y2="-6127.810091806069" stroke-width="4" stroke="black" />
<line x1="260.1954507525253" y1="-5940.646212793254" x2="303.5613592112797" y2="-6030.753914925463" stroke-width="4" stroke="black" />
<line x1="303.5613592112797" y1="-6030.753914925463" x2="303.5613592112797" y2="-6130.753914925463" stroke-width="4" stroke="black" />
<line x1="303.5613592112797" y1="-6030.753914925463" x2="346.9272676700341" y2="-6120.8616170576715" stroke-width="4" stroke="black" />
<line x1="346.9272676700341" y1="-6120.8616170576715" x2="425.07931491191596" y2="-6183.24957672861" stroke-width="4" stroke="black" />
<line x1="346.9272676700341" y1="-6120.8616170576715" x2="390.2931761287885" y2="-6210.9693191898805" stroke-width="4" stroke="black" />
<line x1="390.2931761287885" y1="-6210.9693191898805" x2="390.2931761287885" y2="-6310.9693191898805" stroke-width="4" stroke="black" />
<line x1="390.2931761287885" y1="-6310.9693191898805" x2="346.9272676700341" y2="-6401.077021322089" stroke-width="4" stroke="black" />
<line x1="390.2931761287885" y1="-6310.9693191898805" x2="390.2931761287885" y2="-6410.9693191898805" stroke-width="4" stroke="black" />
<line x1="390.2931761287885" y1="-6410.9693191898805" x2="433.6590845875429" y2="-6501.077021322089" stroke-width="4" stroke="black" />
<line x1="390.2931761287885" y1="-6410.9693191898805" x2="390.2931761287885" y2="-6510.9693191898805" stroke-width="4" stroke="black" />
<line x1="390.2931761287885" y1="-6510.9693191898805" x2="346.9272676700341" y2="-6601.077021322089" stroke-width="4" stroke="black" />
<line x1="346.9272676700341" y1="-6601.077021322089" x2="268.77522042815224" y2="-6663.464980993028" stroke-width="4" stroke="black" />
<line x1="346.9272676700341" y1="-6601.077021322089" x2="303.5613592112797" y2="-6691.184723454298" stroke-width="4" stroke="black" />
<line x1="303.5613592112797" y1="-6691.184723454298" x2="303.5613592112797" y2="-6791.184723454298" stroke-width="4" stroke="black" />
<line x1="303.5613592112797" y1="-6691.184723454298" x2="260.1954507525253" y2="-6781.292425586507" stroke-width="4" stroke="black" />
<line x1="390.2931761287885" y1="-6510.9693191898805" x2="390.2931761287885" y2="-6610.9693191898805" stroke-width="4" stroke="black" />
<line x1="390.2931761287885" y1="-6610.9693191898805" x2="346.9272676700341" y2="-6701.077021322089" stroke-width="4" stroke="black" />
<line x1="390.2931761287885" y1="-6610.9693191898805" x2="390.2931761287885" y2="-6710.9693191898805" stroke-width="4" stroke="black" />
<line x1="390.2931761287885" y1="-6710.9693191898805" x2="433.6590845875429" y2="-6801.077021322089" stroke-width="4" stroke="black" />
<line x1="390.2931761287885" y1="-6710.9693191898805" x2="390.2931761287885" y2="-6810.9693191898805" stroke-width="4" stroke="black" />
<line x1="390.2931761287885" y1="-6810.9693191898805" x2="433.6590845875429" y2="-6901.077021322089" stroke-width="4" stroke="black" />
<line x1="433.6590845875429" y1="-6901.077021322089" x2="433.6590845875429" y2="-7001.077021322089" stroke-width="4" stroke="black" />
<line x1="433.6590845875429" y1="-6901.077021322089" x2="477.0249930462973" y2="-6991.184723454298" stroke-width="4" stroke="black" />
<line x1="477.0249930462973" y1="-6991.184723454298" x2="555.1770402881792" y2="-7053.572683125237" stroke-width="4" stroke="black" />
<line x1="477.0249930462973" y1="-6991.184723454298" x2="520.3909015050517" y2="-7081.292425586507" stroke-width="4" stroke="black" />
<line x1="390.2931761287885" y1="-6810.9693191898805" x2="390.2931761287885" y2="-6910.9693191898805" stroke-width="4" stroke="black" />
<line x1="390.2931761287885" y1="-6910.9693191898805" x2="346.9272676700341" y2="-7001.077021322089" stroke-width="4" stroke="black" />
<line x1="390.2931761287885" y1="-6910.9693191898805" x2="390.2931761287885" y2="-7010.9693191898805" stroke-width="4" stroke="black" />
<line x1="390.2931761287885" y1="-7010.9693191898805" x2="433.6590845875429" y2="-7101.077021322089" stroke-width="4" stroke="black" />
<line x1="390.2931761287885" y1="-7010.9693191898805" x2="390.2931761287885" y2="-7110.9693191898805" stroke-width="4" stroke="black" />
<line x1="390.2931761287885" y1="-6210.9693191898805" x2="433.6590845875429" y2="-6301.077021322089" stroke-width="4" stroke="black" />
<line x1="433.6590845875429" y1="-6301.077021322089" x2="433.6590845875429" y2="-6401.077021322089" stroke-width="4" stroke="black" />
<line x1="433.6590845875429" y1="-6301.077021322089" x2="477.0249930462973" y2="-6391.184723454298" stroke-width="4" stroke="black" />
<line x1="477.0249930462973" y1="-6391.184723454298" x2="555.1770402881792" y2="-6453.572683125237" stroke-width="4" stroke="black" />
<line x1="477.0249930462973" y1="-6391.184723454298" x2="520.3909015050517" y2="-6481.292425586507" stroke-width="4" stroke="black" />
<line x1="520.3909015050517" y1="-6481.292425586507" x2="520.3909015050517" y2="-6581.292425586507" stroke-width="4" stroke="black" />
<line x1="520.3909015050517" y1="-6581.292425586507" x2="477.0249930462973" y2="-6671.400127718716" stroke-width="4" stroke="black" />
<line x1="520.3909015050517" y1="-6581.292425586507" x2="520.3909015050517" y2="-6681.292425586507" stroke-width="4" stroke="black" />
<line x1="520.3909015050517" y1="-6681.292425586507" x2="563.7568099638061" y2="-6771.400127718716" stroke-width="4" stroke="black" />
<line x1="520.3909015050517" y1="-6681.292425586507" x2="520.3909015050517" y2="-6781.292425586507" stroke-width="4" stroke="black" />
<line x1="520.3909015050517" y1="-6481.292425586507" x2="563.7568099638061" y2="-6571.400127718716" stroke-width="4" stroke="black" />
<line x1="563.7568099638061" y1="-6571.400127718716" x2="563.7568099638061" y2="-6671.400127718716" stroke-width="4" stroke="black" />
<line x1="563.7568099638061" y1="-6571.400127718716" x2="607.1227184225604" y2="-6661.507829850925" stroke-width="4" stroke="black" />
<line x1="607.1227184225604" y1="-6661.507829850925" x2="685.2747656644423" y2="-6723.895789521864" stroke-width="4" stroke="black" />
<line x1="607.1227184225604" y1="-6661.507829850925" x2="650.4886268813148" y2="-6751.615531983134" stroke-width="4" stroke="black" />
<line x1="650.4886268813148" y1="-6751.615531983134" x2="728.6406741231966" y2="-6814.003491654073" stroke-width="4" stroke="black" />
<line x1="728.6406741231966" y1="-6814.003491654073" x2="772.006582581951" y2="-6904.111193786282" stroke-width="4" stroke="black" />
<line x1="728.6406741231966" y1="-6814.003491654073" x2="806.7927213650785" y2="-6876.391451325011" stroke-width="4" stroke="black" />
<line x1="806.7927213650785" y1="-6876.391451325011" x2="904.2688407842006" y2="-6898.716462926106" stroke-width="4" stroke="black" />
<line x1="806.7927213650785" y1="-6876.391451325011" x2="884.9447686069603" y2="-6938.77941099595" stroke-width="4" stroke="black" />
<line x1="650.4886268813148" y1="-6751.615531983134" x2="693.8545353400691" y2="-6841.723234115343" stroke-width="4" stroke="black" />
<line x1="693.8545353400691" y1="-6841.723234115343" x2="693.8545353400691" y2="-6941.723234115343" stroke-width="4" stroke="black" />
<line x1="693.8545353400691" y1="-6841.723234115343" x2="737.2204437988235" y2="-6931.830936247552" stroke-width="4" stroke="black" />
<line x1="737.2204437988235" y1="-6931.830936247552" x2="815.3724910407053" y2="-6994.2188959184905" stroke-width="4" stroke="black" />
<line x1="737.2204437988235" y1="-6931.830936247552" x2="780.5863522575778" y2="-7021.938638379761" stroke-width="4" stroke="black" />
<line x1="780.5863522575778" y1="-7021.938638379761" x2="858.7383994994597" y2="-7084.326598050699" stroke-width="4" stroke="black" />
<line x1="858.7383994994597" y1="-7084.326598050699" x2="902.104307958214" y2="-7174.434300182908" stroke-width="4" stroke="black" />
<line x1="858.7383994994597" y1="-7084.326598050699" x2="936.8904467413415" y2="-7146.714557721638" stroke-width="4" stroke="black" />
<line x1="936.8904467413415" y1="-7146.714557721638" x2="1034.3665661604637" y2="-7169.039569322733" stroke-width="4" stroke="black" />
<line x1="936.8904467413415" y1="-7146.714557721638" x2="1015.0424939832234" y2="-7209.102517392576" stroke-width="4" stroke="black" />
<line x1="1015.0424939832234" y1="-7209.102517392576" x2="1058.4084024419778" y2="-7299.210219524785" stroke-width="4" stroke="black" />
<line x1="1058.4084024419778" y1="-7299.210219524785" x2="1058.4084024419778" y2="-7399.210219524785" stroke-width="4" stroke="black" />
<line x1="1058.4084024419778" y1="-7299.210219524785" x2="1101.7743109007322" y2="-7389.317921656994" stroke-width="4" stroke="black" />
<line x1="1101.7743109007322" y1="-7389.317921656994" x2="1179.9263581426142" y2="-7451.705881327933" stroke-width="4" stroke="black" />
<line x1="1101.7743109007322" y1="-7389.317921656994" x2="1145.1402193594865" y2="-7479.425623789203" stroke-width="4" stroke="black" />
<line x1="1015.0424939832234" y1="-7209.102517392576" x2="1093.1945412251052" y2="-7271.490477063515" stroke-width="4" stroke="black" />
<line x1="1093.1945412251052" y1="-7271.490477063515" x2="1136.5604496838596" y2="-7361.598179195724" stroke-width="4" stroke="black" />
<line x1="1093.1945412251052" y1="-7271.490477063515" x2="1171.3465884669872" y2="-7333.878436734453" stroke-width="4" stroke="black" />
<line x1="1171.3465884669872" y1="-7333.878436734453" x2="1268.8227078861094" y2="-7356.203448335548" stroke-width="4" stroke="black" />
<line x1="1171.3465884669872" y1="-7333.878436734453" x2="1249.4986357088692" y2="-7396.266396405392" stroke-width="4" stroke="black" />
<line x1="1249.4986357088692" y1="-7396.266396405392" x2="1346.9747551279913" y2="-7418.591408006487" stroke-width="4" stroke="black" />
<line x1="1346.9747551279913" y1="-7418.591408006487" x2="1425.1268023698733" y2="-7480.979367677425" stroke-width="4" stroke="black" />
<line x1="1346.9747551279913" y1="-7418.591408006487" x2="1444.4508745471135" y2="-7440.916419607582" stroke-width="4" stroke="black" />
<line x1="1444.4508745471135" y1="-7440.916419607582" x2="1541.9658099776698" y2="-7418.761569845635" stroke-width="4" stroke="black" />
<line x1="1444.4508745471135" y1="-7440.916419607582" x2="1541.9269939662356" y2="-7463.241431208677" stroke-width="4" stroke="black" />
<line x1="1249.4986357088692" y1="-7396.266396405392" x2="1327.6506829507512" y2="-7458.65435607633" stroke-width="4" stroke="black" />
<line x1="1327.6506829507512" y1="-7458.65435607633" x2="1371.0165914095055" y2="-7548.762058208539" stroke-width="4" stroke="black" />
<line x1="1327.6506829507512" y1="-7458.65435607633" x2="1405.8027301926331" y2="-7521.042315747269" stroke-width="4" stroke="black" />
<line x1="1405.8027301926331" y1="-7521.042315747269" x2="1503.2788496117553" y2="-7543.367327348364" stroke-width="4" stroke="black" />
<line x1="1405.8027301926331" y1="-7521.042315747269" x2="1483.954777434515" y2="-7583.430275418207" stroke-width="4" stroke="black" />
<line x1="780.5863522575778" y1="-7021.938638379761" x2="823.9522607163321" y2="-7112.04634051197" stroke-width="4" stroke="black" />
<line x1="823.9522607163321" y1="-7112.04634051197" x2="823.9522607163321" y2="-7212.04634051197" stroke-width="4" stroke="black" />
<line x1="823.9522607163321" y1="-7112.04634051197" x2="867.3181691750865" y2="-7202.154042644179" stroke-width="4" stroke="black" />
<line x1="867.3181691750865" y1="-7202.154042644179" x2="945.4702164169684" y2="-7264.542002315117" stroke-width="4" stroke="black" />
<line x1="867.3181691750865" y1="-7202.154042644179" x2="910.6840776338408" y2="-7292.261744776388" stroke-width="4" stroke="black" />
<line x1="910.6840776338408" y1="-7292.261744776388" x2="910.6840776338408" y2="-7392.261744776388" stroke-width="4" stroke="black" />
<line x1="910.6840776338408" y1="-7392.261744776388" x2="867.3181691750864" y2="-7482.369446908597" stroke-width="4" stroke="black" />
<line x1="910.6840776338408" y1="-7392.261744776388" x2="910.6840776338408" y2="-7492.261744776388" stroke-width="4" stroke="black" />
<line x1="910.6840776338408" y1="-7492.261744776388" x2="954.0499860925952" y2="-7582.369446908597" stroke-width="4" stroke="black" />
<line x1="910.6840776338408" y1="-7492.261744776388" x2="910.6840776338408" y2="-7592.261744776388" stroke-width="4" stroke="black" />
<line x1="910.6840776338408" y1="-7292.261744776388" x2="954.0499860925952" y2="-7382.369446908597" stroke-width="4" stroke="black" />
<line x1="954.0499860925952" y1="-7382.369446908597" x2="954.0499860925952" y2="-7482.369446908597" stroke-width="4" stroke="black" />
<line x1="954.0499860925952" y1="-7382.369446908597" x2="997.4158945513495" y2="-7472.477149040806" stroke-width="4" stroke="black" />
<line x1="997.4158945513495" y1="-7472.477149040806" x2="1075.5679417932315" y2="-7534.865108711744" stroke-width="4" stroke="black" />
<line x1="997.4158945513495" y1="-7472.477149040806" x2="1040.7818030101039" y2="-7562.584851173015" stroke-width="4" stroke="black" />
<line x1="1040.7818030101039" y1="-7562.584851173015" x2="1118.9338502519859" y2="-7624.972810843953" stroke-width="4" stroke="black" />
<line x1="1118.9338502519859" y1="-7624.972810843953" x2="1162.2997587107402" y2="-7715.080512976162" stroke-width="4" stroke="black" />
<line x1="1118.9338502519859" y1="-7624.972810843953" x2="1197.0858974938678" y2="-7687.360770514892" stroke-width="4" stroke="black" />
<line x1="1197.0858974938678" y1="-7687.360770514892" x2="1294.56201691299" y2="-7709.6857821159865" stroke-width="4" stroke="black" />
<line x1="1197.0858974938678" y1="-7687.360770514892" x2="1275.2379447357498" y2="-7749.74873018583" stroke-width="4" stroke="black" />
<line x1="1040.7818030101039" y1="-7562.584851173015" x2="1084.1477114688582" y2="-7652.692553305224" stroke-width="4" stroke="black" />
<line x1="1084.1477114688582" y1="-7652.692553305224" x2="1084.1477114688582" y2="-7752.692553305224" stroke-width="4" stroke="black" />
<line x1="1084.1477114688582" y1="-7652.692553305224" x2="1127.5136199276126" y2="-7742.8002554374325" stroke-width="4" stroke="black" />
<line x1="1127.5136199276126" y1="-7742.8002554374325" x2="1205.6656671694946" y2="-7805.188215108371" stroke-width="4" stroke="black" />
<line x1="1127.5136199276126" y1="-7742.8002554374325" x2="1170.879528386367" y2="-7832.907957569641" stroke-width="4" stroke="black" />
<line x1="-9.919639073093566E-13" y1="-5400.0" x2="-1.0103336092965668E-12" y2="-5500.0" stroke-width="4" stroke="black" />
<line x1="-1.0103336092965668E-12" y1="-5500.0" x2="-43.36590845875543" y2="-5590.107702132209" stroke-width="4" stroke="black" />
<line x1="-1.0103336092965668E-12" y1="-5500.0" x2="-1.028703311283777E-12" y2="-5600.0" stroke-width="4" stroke="black" />
<line x1="-1.028703311283777E-12" y1="-5600.0" x2="43.36590845875335" y2="-5690.107702132209" stroke-width="4" stroke="black" />
<line x1="-1.028703311283777E-12" y1="-5600.0" x2="-1.0470730132709873E-12" y2="-5700.0" stroke-width="4" stroke="black" />
<line x1="-1.0470730132709873E-12" y1="-5700.0" x2="-43.36590845875546" y2="-5790.107702132209" stroke-width="4" stroke="black" />
<line x1="-43.36590845875546" y1="-5790.107702132209" x2="-121.51795570063734" y2="-5852.495661803147" stroke-width="4" stroke="black" />
<line x1="-43.36590845875546" y1="-5790.107702132209" x2="-86.73181691750989" y2="-5880.215404264418" stroke-width="4" stroke="black" />
<line x1="-86.73181691750989" y1="-5880.215404264418" x2="-86.7318169175099" y2="-5980.215404264418" stroke-width="4" stroke="black" />
<line x1="-86.73181691750989" y1="-5880.215404264418" x2="-130.0977253762643" y2="-5970.323106396627" stroke-width="4" stroke="black" />
<line x1="-1.0470730132709873E-12" y1="-5700.0" x2="-1.0654427152581975E-12" y2="-5800.0" stroke-width="4" stroke="black" />
<line x1="-1.0654427152581975E-12" y1="-5800.0" x2="-43.365908458755484" y2="-5890.107702132209" stroke-width="4" stroke="black" />
<line x1="-1.0654427152581975E-12" y1="-5800.0" x2="-1.0838124172454077E-12" y2="-5900.0" stroke-width="4" stroke="black" />
<line x1="-1.0838124172454077E-12" y1="-5900.0" x2="43.365908458753296" y2="-5990.107702132209" stroke-width="4" stroke="black" />
<line x1="-1.0838124172454077E-12" y1="-5900.0" x2="-1.102182119232618E-12" y2="-6000.0" stroke-width="4" stroke="black" />
<line x1="-1.102182119232618E-12" y1="-6000.0" x2="43.36590845875328" y2="-6090.107702132209" stroke-width="4" stroke="black" />
<line x1="43.36590845875328" y1="-6090.107702132209" x2="43.36590845875326" y2="-6190.107702132209" stroke-width="4" stroke="black" />
<line x1="43.36590845875328" y1="-6090.107702132209" x2="86.73181691750767" y2="-6180.215404264418" stroke-width="4" stroke="black" />
<line x1="86.73181691750767" y1="-6180.215404264418" x2="164.88386415938953" y2="-6242.603363935356" stroke-width="4" stroke="black" />
<line x1="86.73181691750767" y1="-6180.215404264418" x2="130.09772537626205" y2="-6270.323106396627" stroke-width="4" stroke="black" />
<line x1="-1.102182119232618E-12" y1="-6000.0" x2="-1.1205518212198282E-12" y2="-6100.0" stroke-width="4" stroke="black" />
<line x1="-1.1205518212198282E-12" y1="-6100.0" x2="-43.36590845875554" y2="-6190.107702132209" stroke-width="4" stroke="black" />
<line x1="-1.1205518212198282E-12" y1="-6100.0" x2="-1.1389215232070384E-12" y2="-6200.0" stroke-width="4" stroke="black" />
<line x1="-1.1389215232070384E-12" y1="-6200.0" x2="43.365908458753246" y2="-6290.107702132209" stroke-width="4" stroke="black" />
<line x1="-1.1389215232070384E-12" y1="-6200.0" x2="-1.1572912251942486E-12" y2="-6300.0" stroke-width="4" stroke="black" />
<line x1="-1.1572912251942486E-12" y1="-6300.0" x2="-43.36590845875558" y2="-6390.107702132209" stroke-width="4" stroke="black" />
<line x1="-43.36590845875558" y1="-6390.107702132209" x2="-121.51795570063746" y2="-6452.495661803147" stroke-width="4" stroke="black" />
<line x1="-43.36590845875558" y1="-6390.107702132209" x2="-86.73181691751" y2="-6480.215404264418" stroke-width="4" stroke="black" />
<line x1="-86.73181691751" y1="-6480.215404264418" x2="-86.73181691751002" y2="-6580.215404264418" stroke-width="4" stroke="black" />
<line x1="-86.73181691751" y1="-6480.215404264418" x2="-130.0977253762644" y2="-6570.323106396627" stroke-width="4" stroke="black" />
<line x1="-130.0977253762644" y1="-6570.323106396627" x2="-208.24977261814627" y2="-6632.711066067565" stroke-width="4" stroke="black" />
<line x1="-208.24977261814627" y1="-6632.711066067565" x2="-305.7258920372684" y2="-6655.03607766866" stroke-width="4" stroke="black" />
<line x1="-208.24977261814627" y1="-6632.711066067565" x2="-286.4018198600281" y2="-6695.099025738504" stroke-width="4" stroke="black" />
<line x1="-286.4018198600281" y1="-6695.099025738504" x2="-329.76772831878253" y2="-6785.206727870713" stroke-width="4" stroke="black" />
<line x1="-286.4018198600281" y1="-6695.099025738504" x2="-364.55386710191" y2="-6757.486985409442" stroke-width="4" stroke="black" />
<line x1="-130.0977253762644" y1="-6570.323106396627" x2="-173.4636338350188" y2="-6660.430808528836" stroke-width="4" stroke="black" />
<line x1="-173.4636338350188" y1="-6660.430808528836" x2="-251.61568107690067" y2="-6722.818768199774" stroke-width="4" stroke="black" />
<line x1="-173.4636338350188" y1="-6660.430808528836" x2="-216.82954229377322" y2="-6750.538510661045" stroke-width="4" stroke="black" />
<line x1="-216.82954229377322" y1="-6750.538510661045" x2="-216.82954229377324" y2="-6850.538510661045" stroke-width="4" stroke="black" />
<line x1="-216.82954229377322" y1="-6750.538510661045" x2="-260.1954507525276" y2="-6840.646212793254" stroke-width="4" stroke="black" />
<line x1="-260.1954507525276" y1="-6840.646212793254" x2="-260.1954507525276" y2="-6940.646212793254" stroke-width="4" stroke="black" />
<line x1="-260.1954507525276" y1="-6940.646212793254" x2="-303.561359211282" y2="-7030.753914925463" stroke-width="4" stroke="black" />
<line x1="-260.1954507525276" y1="-6940.646212793254" x2="-260.1954507525276" y2="-7040.646212793254" stroke-width="4" stroke="black" />
<line x1="-260.1954507525276" y1="-7040.646212793254" x2="-216.82954229377324" y2="-7130.753914925463" stroke-width="4" stroke="black" />
<line x1="-260.1954507525276" y1="-7040.646212793254" x2="-260.1954507525276" y2="-7140.646212793254" stroke-width="4" stroke="black" />
<line x1="-260.1954507525276" y1="-6840.646212793254" x2="-303.561359211282" y2="-6930.753914925463" stroke-width="4" stroke="black" />
<line x1="-303.561359211282" y1="-6930.753914925463" x2="-381.7134064531639" y2="-6993.141874596401" stroke-width="4" stroke="black" />
<line x1="-303.561359211282" y1="-6930.753914925463" x2="-346.92726767003643" y2="-7020.8616170576715" stroke-width="4" stroke="black" />
<line x1="-346.92726767003643" y1="-7020.8616170576715" x2="-346.92726767003643" y2="-7120.8616170576715" stroke-width="4" stroke="black" />
<line x1="-346.92726767003643" y1="-7020.8616170576715" x2="-390.29317612879083" y2="-7110.9693191898805" stroke-width="4" stroke="black" />
<line x1="-1.1572912251942486E-12" y1="-6300.0" x2="-1.1756609271814588E-12" y2="-6400.0" stroke-width="4" stroke="black" />
<line x1="-1.1756609271814588E-12" y1="-6400.0" x2="-43.36590845875559" y2="-6490.107702132209" stroke-width="4" stroke="black" />
<line x1="-1.1756609271814588E-12" y1="-6400.0" x2="-1.194030629168669E-12" y2="-6500.0" stroke-width="4" stroke="black" />
<line x1="-1.194030629168669E-12" y1="-6500.0" x2="43.36590845875319" y2="-6590.107702132209" stroke-width="4" stroke="black" />
<line x1="-1.194030629168669E-12" y1="-6500.0" x2="-1.2124003311558793E-12" y2="-6600.0" stroke-width="4" stroke="black" />
<line x1="-1.2124003311558793E-12" y1="-6600.0" x2="-43.365908458755634" y2="-6690.107702132209" stroke-width="4" stroke="black" />
<line x1="-43.365908458755634" y1="-6690.107702132209" x2="-121.51795570063751" y2="-6752.495661803147" stroke-width="4" stroke="black" />
<line x1="-43.365908458755634" y1="-6690.107702132209" x2="-86.73181691751006" y2="-6780.215404264418" stroke-width="4" stroke="black" />
<line x1="-86.73181691751006" y1="-6780.215404264418" x2="-86.73181691751007" y2="-6880.215404264418" stroke-width="4" stroke="black" />
<line x1="-86.73181691751006" y1="-6780.215404264418" x2="-130.09772537626446" y2="-6870.323106396627" stroke-width="4" stroke="black" />
<line x1="-1.2124003311558793E-12" y1="-6600.0" x2="-1.2307700331430895E-12" y2="-6700.0" stroke-width="4" stroke="black" />
<line x1="-1.2307700331430895E-12" y1="-6700.0" x2="-43.36590845875565" y2="-6790.107702132209" stroke-width="4" stroke="black" />
<line x1="-1.2307700331430895E-12" y1="-6700.0" x2="-1.2491397351302997E-12" y2="-6800.0" stroke-width="4" stroke="black" />
<line x1="-1.2491397351302997E-12" y1="-6800.0" x2="43.36590845875313" y2="-6890.107702132209" stroke-width="4" stroke="black" />
<line x1="-1.2491397351302997E-12" y1="-6800.0" x2="-1.26750943711751E-12" y2="-6900.0" stroke-width="4" stroke="black" />
<line x1="-1.26750943711751E-12" y1="-6900.0" x2="43.36590845875312" y2="-6990.107702132209" stroke-width="4" stroke="black" />
<line x1="43.36590845875312" y1="-6990.107702132209" x2="43.3659084587531" y2="-7090.107702132209" stroke-width="4" stroke="black" />
<line x1="43.36590845875312" y1="-6990.107702132209" x2="86.7318169175075" y2="-7080.215404264418" stroke-width="4" stroke="black" />
<line x1="86.7318169175075" y1="-7080.215404264418" x2="164.88386415938936" y2="-7142.603363935356" stroke-width="4" stroke="black" />
<line x1="86.7318169175075" y1="-7080.215404264418" x2="130.09772537626188" y2="-7170.323106396627" stroke-width="4" stroke="black" />
<line x1="-1.26750943711751E-12" y1="-6900.0" x2="-1.2858791391047202E-12" y2="-7000.0" stroke-width="4" stroke="black" />
<line x1="-1.2858791391047202E-12" y1="-7000.0" x2="-43.365908458755705" y2="-7090.107702132209" stroke-width="4" stroke="black" />
<line x1="-1.2858791391047202E-12" y1="-7000.0" x2="-1.3042488410919304E-12" y2="-7100.0" stroke-width="4" stroke="black" />
<line x1="-1.3042488410919304E-12" y1="-7100.0" x2="43.365908458753076" y2="-7190.107702132209" stroke-width="4" stroke="black" />
<line x1="-1.3042488410919304E-12" y1="-7100.0" x2="-1.3226185430791406E-12" y2="-7200.0" stroke-width="4" stroke="black" />
<line x1="-1.3226185430791406E-12" y1="-7200.0" x2="43.36590845875306" y2="-7290.107702132209" stroke-width="4" stroke="black" />
<line x1="43.36590845875306" y1="-7290.107702132209" x2="43.36590845875304" y2="-7390.107702132209" stroke-width="4" stroke="black" />
<line x1="43.36590845875306" y1="-7290.107702132209" x2="86.73181691750744" y2="-7380.215404264418" stroke-width="4" stroke="black" />
<line x1="86.73181691750744" y1="-7380.215404264418" x2="164.8838641593893" y2="-7442.603363935356" stroke-width="4" stroke="black" />
<line x1="86.73181691750744" y1="-7380.215404264418" x2="130.09772537626182" y2="-7470.323106396627" stroke-width="4" stroke="black" />
<line x1="130.09772537626182" y1="-7470.323106396627" x2="130.0977253762618" y2="-7570.323106396627" stroke-width="4" stroke="black" />
<line x1="130.0977253762618" y1="-7570.323106396627" x2="86.73181691750737" y2="-7660.430808528836" stroke-width="4" stroke="black" />
<line x1="130.0977253762618" y1="-7570.323106396627" x2="130.09772537626176" y2="-7670.323106396627" stroke-width="4" stroke="black" />
<line x1="130.09772537626176" y1="-7670.323106396627" x2="173.46363383501614" y2="-7760.430808528836" stroke-width="4" stroke="black" />
<line x1="130.09772537626176" y1="-7670.323106396627" x2="130.09772537626174" y2="-7770.323106396627" stroke-width="4" stroke="black" />
<line x1="130.09772537626182" y1="-7470.323106396627" x2="173.4636338350162" y2="-7560.430808528836" stroke-width="4" stroke="black" />
<line x1="173.4636338350162" y1="-7560.430808528836" x2="173.46363383501617" y2="-7660.430808528836" stroke-width="4" stroke="black" />
<line x1="173.4636338350162" y1="-7560.430808528836" x2="216.82954229377057" y2="-7650.538510661045" stroke-width="4" stroke="black" />
<line x1="216.82954229377057" y1="-7650.538510661045" x2="294.98158953565246" y2="-7712.926470331983" stroke-width="4" stroke="black" />
<line x1="216.82954229377057" y1="-7650.538510661045" x2="260.19545075252495" y2="-7740.646212793254" stroke-width="4" stroke="black" />
<line x1="260.19545075252495" y1="-7740.646212793254" x2="338.3474979944068" y2="-7803.034172464192" stroke-width="4" stroke="black" />
<line x1="338.3474979944068" y1="-7803.034172464192" x2="381.7134064531612" y2="-7893.141874596401" stroke-width="4" stroke="black" />
<line x1="338.3474979944068" y1="-7803.034172464192" x2="416.49954523628867" y2="-7865.422132135131" stroke-width="4" stroke="black" />
<line x1="416.49954523628867" y1="-7865.422132135131" x2="513.9756646554108" y2="-7887.747143736226" stroke-width="4" stroke="black" />
<line x1="416.49954523628867" y1="-7865.422132135131" x2="494.6515924781705" y2="-7927.810091806069" stroke-width="4" stroke="black" />
<line x1="260.19545075252495" y1="-7740.646212793254" x2="303.56135921127935" y2="-7830.753914925463" stroke-width="4" stroke="black" />
<line x1="303.56135921127935" y1="-7830.753914925463" x2="303.56135921127935" y2="-7930.753914925463" stroke-width="4" stroke="black" />
<line x1="303.56135921127935" y1="-7830.753914925463" x2="346.92726767003376" y2="-7920.8616170576715" stroke-width="4" stroke="black" />
<line x1="346.92726767003376" y1="-7920.8616170576715" x2="425.0793149119156" y2="-7983.24957672861" stroke-width="4" stroke="black" />
<line x1="346.92726767003376" y1="-7920.8616170576715" x2="390.29317612878816" y2="-8010.9693191898805" stroke-width="4" stroke="black" />
<line x1="-1.3226185430791406E-12" y1="-7200.0" x2="-1.3409882450663508E-12" y2="-7300.0" stroke-width="4" stroke="black" />
<line x1="-1.3409882450663508E-12" y1="-7300.0" x2="-43.36590845875576" y2="-7390.107702132209" stroke-width="4" stroke="black" />
<line x1="-1.3409882450663508E-12" y1="-7300.0" x2="-1.359357947053561E-12" y2="-7400.0" stroke-width="4" stroke="black" />
<line x1="-1.359357947053561E-12" y1="-7400.0" x2="43.365908458753026" y2="-7490.107702132209" stroke-width="4" stroke="black" />
<line x1="-1.359357947053561E-12" y1="-7400.0" x2="-1.3777276490407713E-12" y2="-7500.0" stroke-width="4" stroke="black" />
<line x1="-1.3777276490407713E-12" y1="-7500.0" x2="-43.3659084587558" y2="-7590.107702132209" stroke-width="4" stroke="black" />
<line x1="-43.3659084587558" y1="-7590.107702132209" x2="-121.51795570063767" y2="-7652.495661803147" stroke-width="4" stroke="black" />
<line x1="-43.3659084587558" y1="-7590.107702132209" x2="-86.73181691751022" y2="-7680.215404264418" stroke-width="4" stroke="black" />
<line x1="-86.73181691751022" y1="-7680.215404264418" x2="-86.73181691751023" y2="-7780.215404264418" stroke-width="4" stroke="black" />
<line x1="-86.73181691751022" y1="-7680.215404264418" x2="-130.09772537626463" y2="-7770.323106396627" stroke-width="4" stroke="black" />
<line x1="-1.3777276490407713E-12" y1="-7500.0" x2="-1.3960973510279815E-12" y2="-7600.0" stroke-width="4" stroke="black" />
<line x1="-1.3960973510279815E-12" y1="-7600.0" x2="-43.36590845875581" y2="-7690.107702132209" stroke-width="4" stroke="black" />
<line x1="-1.3960973510279815E-12" y1="-7600.0" x2="-1.4144670530151917E-12" y2="-7700.0" stroke-width="4" stroke="black" />
<line x1="-1.4144670530151917E-12" y1="-7700.0" x2="43.36590845875297" y2="-7790.107702132209" stroke-width="4" stroke="black" />
<line x1="-1.4144670530151917E-12" y1="-7700.0" x2="-1.432836755002402E-12" y2="-7800.0" stroke-width="4" stroke="black" />
<line x1="-1.432836755002402E-12" y1="-7800.0" x2="43.36590845875295" y2="-7890.107702132209" stroke-width="4" stroke="black" />
<line x1="43.36590845875295" y1="-7890.107702132209" x2="43.365908458752926" y2="-7990.107702132209" stroke-width="4" stroke="black" />
<line x1="43.36590845875295" y1="-7890.107702132209" x2="86.73181691750733" y2="-7980.215404264418" stroke-width="4" stroke="black" />
<line x1="86.73181691750733" y1="-7980.215404264418" x2="164.8838641593892" y2="-8042.603363935356" stroke-width="4" stroke="black" />
<line x1="86.73181691750733" y1="-7980.215404264418" x2="130.0977253762617" y2="-8070.323106396627" stroke-width="4" stroke="black" />
<line x1="-1.432836755002402E-12" y1="-7800.0" x2="-1.4512064569896122E-12" y2="-7900.0" stroke-width="4" stroke="black" />
<line x1="-1.4512064569896122E-12" y1="-7900.0" x2="-43.36590845875587" y2="-7990.107702132209" stroke-width="4" stroke="black" />
<line x1="-1.4512064569896122E-12" y1="-7900.0" x2="-1.4695761589768224E-12" y2="-8000.0" stroke-width="4" stroke="black" />
<line x1="-1.4695761589768224E-12" y1="-8000.0" x2="43.36590845875291" y2="-8090.107702132209" stroke-width="4" stroke="black" />
<line x1="-1.4695761589768224E-12" y1="-8000.0" x2="-1.4879458609640326E-12" y2="-8100.0" stroke-width="4" stroke="black" />
</svg>