<svg viewBox="-200.0 -100.0 300.0 500.0" xmlns="http://www.w3.org/2000/svg"><line x1="0" y1="0" x2="-1.8369701987210297E-14" y2="-100.0" stroke-width="4" stroke="black" />
<line x1="-1.8369701987210297E-14" y1="-100.0" x2="-100.00000000000001" y2="-99.99999999999999" stroke-width="4" stroke="black" />
<line x1="-100.00000000000001" y1="-99.99999999999999" x2="-100.00000000000001" y2="1.4210854715202004E-14" stroke-width="4" stroke="black" />
<line x1="-100.00000000000001" y1="1.4210854715202004E-14" x2="-200.0" y2="2.6457322706675537E-14" stroke-width="4" stroke="black" />
<line x1="-200.0" y1="2.6457322706675537E-14" x2="-200.0" y2="100.00000000000003" stroke-width="4" stroke="black" />
<line x1="-200.0" y1="100.00000000000003" x2="-100.0" y2="100.00000000000003" stroke-width="4" stroke="black" />
<line x1="-100.0" y1="100.00000000000003" x2="-100.0" y2="200.00000000000003" stroke-width="4" stroke="black" />
<line x1="-100.0" y1="200.00000000000003" x2="-200.0" y2="200.00000000000003" stroke-width="4" stroke="black" />
<line x1="-200.0" y1="200.00000000000003" x2="-200.0" y2="300.0" stroke-width="4" stroke="black" />
<line x1="-200.0" y1="300.0" x2="-100.0" y2="300.0" stroke-width="4" stroke="black" />
<line x1="-100.0" y1="300.0" x2="-100.0" y2="200.0" stroke-width="4" stroke="black" />
<line x1="-100.0" y1="200.0" x2="0.0" y2="200.0" stroke-width="4" stroke="black" />
<line x1="0.0" y1="200.0" x2="6.123233995736766E-15" y2="300.0" stroke-width="4" stroke="black" />
<line x1="6.123233995736766E-15" y1="300.0" x2="100.0" y2="300.0" stroke-width="4" stroke="black" />
<line x1="100.0" y1="300.0" x2="100.0" y2="400.0" stroke-width="4" stroke="black" />
<line x1="100.0" y1="400.0" x2="0.0" y2="400.0" stroke-width="4" stroke="black" />
</svg>