<svg viewBox="-2.842170943040401E-14 -500.0000000000001 300.0 600.0000000000001" xmlns="http://www.w3.org/2000/svg"><line x1="0" y1="0" x2="3.061616997868383E-14" y2="100.0" stroke-width="4" stroke="black" />
<line x1="3.061616997868383E-14" y1="100.0" x2="100.00000000000003" y2="99.99999999999997" stroke-width="4" stroke="black" />
<line x1="100.00000000000003" y1="99.99999999999997" x2="200.00000000000003" y2="99.99999999999994" stroke-width="4" stroke="black" />
<line x1="200.00000000000003" y1="99.99999999999994" x2="200.0" y2="-5.684341886080802E-14" stroke-width="4" stroke="black" />
<line x1="200.0" y1="-5.684341886080802E-14" x2="300.0" y2="-8.133635484375508E-14" stroke-width="4" stroke="black" />
<line x1="300.0" y1="-8.133635484375508E-14" x2="300.0" y2="-100.00000000000009" stroke-width="4" stroke="black" />
<line x1="300.0" y1="-100.00000000000009" x2="300.0" y2="-200.00000000000009" stroke-width="4" stroke="black" />
<line x1="300.0" y1="-200.00000000000009" x2="200.0" y2="-200.00000000000009" stroke-width="4" stroke="black" />
<line x1="200.0" y1="-200.00000000000009" x2="300.0" y2="-200.0000000000001" stroke-width="4" stroke="black" />
<line x1="300.0" y1="-200.0000000000001" x2="300.0" y2="-300.0000000000001" stroke-width="4" stroke="black" />
<line x1="300.0" y1="-300.0000000000001" x2="300.0" y2="-400.0000000000001" stroke-width="4" stroke="black" />
<line x1="300.0" y1="-400.0000000000001" x2="200.0" y2="-400.0000000000001" stroke-width="4" stroke="black" />
<line x1="200.0" y1="-400.0000000000001" x2="199.99999999999997" y2="-500.0000000000001" stroke-width="4" stroke="black" />
<line x1="199.99999999999997" y1="-500.0000000000001" x2="99.99999999999997" y2="-500.0000000000001" stroke-width="4" stroke="black" />
<line x1="99.99999999999997" y1="-500.0000000000001" x2="-2.842170943040401E-14" y2="-500.0000000000001" stroke-width="4" stroke="black" />
<line x1="-2.842170943040401E-14" y1="-500.0000000000001" x2="-2.229847543466724E-14" y2="-400.0000000000001" stroke-width="4" stroke="black" />
</svg>