<svg viewBox="-7014.805770653967 -8100.0 9353.07436087195 8100.0" xmlns="http://www.w3.org/2000/svg"><line x1="0" y1="0" x2="-1.8369701987210297E-14" y2="-100.0" stroke-width="4" stroke="black" />
<line x1="-1.8369701987210297E-14" y1="-100.0" x2="86.60254037844382" y2="-150.00000000000006" stroke-width="4" stroke="black" />
<line x1="86.60254037844382" y1="-150.00000000000006" x2="-4.263256414560601E-14" y2="-200.00000000000006" stroke-width="4" stroke="black" />
<line x1="-4.263256414560601E-14" y1="-200.00000000000006" x2="-6.100226613281631E-14" y2="-300.00000000000006" stroke-width="4" stroke="black" />
<line x1="-6.100226613281631E-14" y1="-300.00000000000006" x2="86.60254037844378" y2="-350.0000000000001" stroke-width="4" stroke="black" />
<line x1="86.60254037844378" y1="-350.0000000000001" x2="173.20508075688764" y2="-300.0000000000001" stroke-width="4" stroke="black" />
<line x1="173.20508075688764" y1="-300.0000000000001" x2="173.2050807568876" y2="-400.0000000000001" stroke-width="4" stroke="black" />
<line x1="173.2050807568876" y1="-400.0000000000001" x2="259.80762113533143" y2="-450.00000000000017" stroke-width="4" stroke="black" />
<line x1="259.80762113533143" y1="-450.00000000000017" x2="173.20508075688758" y2="-500.00000000000017" stroke-width="4" stroke="black" />
<line x1="173.20508075688758" y1="-500.00000000000017" x2="173.20508075688755" y2="-600.0000000000002" stroke-width="4" stroke="black" />
<line x1="173.20508075688755" y1="-600.0000000000002" x2="86.60254037844368" y2="-550.0000000000002" stroke-width="4" stroke="black" />
<line x1="86.60254037844368" y1="-550.0000000000002" x2="-1.8474111129762605E-13" y2="-600.0000000000002" stroke-width="4" stroke="black" />
<line x1="-1.8474111129762605E-13" y1="-600.0000000000002" x2="-2.0311081328483635E-13" y2="-700.0000000000002" stroke-width="4" stroke="black" />
<line x1="-2.0311081328483635E-13" y1="-700.0000000000002" x2="86.60254037844363" y2="-750.0000000000002" stroke-width="4" stroke="black" />
<line x1="86.60254037844363" y1="-750.0000000000002" x2="-2.2737367544323206E-13" y2="-800.0000000000002" stroke-width="4" stroke="black" />
<line x1="-2.2737367544323206E-13" y1="-800.0000000000002" x2="-2.457433774304424E-13" y2="-900.0000000000002" stroke-width="4" stroke="black" />
<line x1="-2.457433774304424E-13" y1="-900.0000000000002" x2="86.60254037844359" y2="-950.0000000000002" stroke-width="4" stroke="black" />
<line x1="86.60254037844359" y1="-950.0000000000002" x2="173.20508075688747" y2="-900.0000000000002" stroke-width="4" stroke="black" />
<line x1="173.20508075688747" y1="-900.0000000000002" x2="173.20508075688744" y2="-1000.0000000000002" stroke-width="4" stroke="black" />
<line x1="173.20508075688744" y1="-1000.0000000000002" x2="259.80762113533126" y2="-1050.0000000000002" stroke-width="4" stroke="black" />
<line x1="259.80762113533126" y1="-1050.0000000000002" x2="346.4101615137751" y2="-1000.0000000000002" stroke-width="4" stroke="black" />
<line x1="346.4101615137751" y1="-1000.0000000000002" x2="346.41016151377517" y2="-900.0000000000002" stroke-width="4" stroke="black" />
<line x1="346.41016151377517" y1="-900.0000000000002" x2="433.012701892219" y2="-950.0000000000002" stroke-width="4" stroke="black" />
<line x1="433.012701892219" y1="-950.0000000000002" x2="519.6152422706629" y2="-900.0000000000002" stroke-width="4" stroke="black" />
<line x1="519.6152422706629" y1="-900.0000000000002" x2="519.6152422706629" y2="-1000.0000000000002" stroke-width="4" stroke="black" />
<line x1="519.6152422706629" y1="-1000.0000000000002" x2="606.2177826491067" y2="-1050.0000000000002" stroke-width="4" stroke="black" />
<line x1="606.2177826491067" y1="-1050.0000000000002" x2="519.6152422706627" y2="-1100.0000000000002" stroke-width="4" stroke="black" />
<line x1="519.6152422706627" y1="-1100.0000000000002" x2="519.6152422706627" y2="-1200.0000000000002" stroke-width="4" stroke="black" />
<line x1="519.6152422706627" y1="-1200.0000000000002" x2="606.2177826491065" y2="-1250.0000000000002" stroke-width="4" stroke="black" />
<line x1="606.2177826491065" y1="-1250.0000000000002" x2="692.8203230275504" y2="-1200.0000000000002" stroke-width="4" stroke="black" />
<line x1="692.8203230275504" y1="-1200.0000000000002" x2="692.8203230275504" y2="-1300.0000000000002" stroke-width="4" stroke="black" />
<line x1="692.8203230275504" y1="-1300.0000000000002" x2="779.4228634059942" y2="-1350.0000000000002" stroke-width="4" stroke="black" />
<line x1="779.4228634059942" y1="-1350.0000000000002" x2="692.8203230275503" y2="-1400.0000000000002" stroke-width="4" stroke="black" />
<line x1="692.8203230275503" y1="-1400.0000000000002" x2="692.8203230275503" y2="-1500.0000000000002" stroke-width="4" stroke="black" />
<line x1="692.8203230275503" y1="-1500.0000000000002" x2="606.2177826491064" y2="-1450.0000000000002" stroke-width="4" stroke="black" />
<line x1="606.2177826491064" y1="-1450.0000000000002" x2="519.6152422706625" y2="-1500.0000000000002" stroke-width="4" stroke="black" />
<line x1="519.6152422706625" y1="-1500.0000000000002" x2="519.6152422706625" y2="-1600.0000000000002" stroke-width="4" stroke="black" />
<line x1="519.6152422706625" y1="-1600.0000000000002" x2="606.2177826491063" y2="-1650.0000000000002" stroke-width="4" stroke="black" />
<line x1="606.2177826491063" y1="-1650.0000000000002" x2="519.6152422706624" y2="-1700.0000000000002" stroke-width="4" stroke="black" />
<line x1="519.6152422706624" y1="-1700.0000000000002" x2="519.6152422706624" y2="-1800.0000000000002" stroke-width="4" stroke="black" />
<line x1="519.6152422706624" y1="-1800.0000000000002" x2="433.0127018922185" y2="-1750.0000000000002" stroke-width="4" stroke="black" />
<line x1="433.0127018922185" y1="-1750.0000000000002" x2="346.41016151377465" y2="-1800.0000000000002" stroke-width="4" stroke="black" />
<line x1="346.41016151377465" y1="-1800.0000000000002" x2="346.41016151377465" y2="-1700.0000000000002" stroke-width="4" stroke="black" />
<line x1="346.41016151377465" y1="-1700.0000000000002" x2="259.8076211353308" y2="-1650.0000000000002" stroke-width="4" stroke="black" />
<line x1="259.8076211353308" y1="-1650.0000000000002" x2="173.20508075688696" y2="-1700.0000000000002" stroke-width="4" stroke="black" />
<line x1="173.20508075688696" y1="-1700.0000000000002" x2="173.20508075688693" y2="-1800.0000000000002" stroke-width="4" stroke="black" />
<line x1="173.20508075688693" y1="-1800.0000000000002" x2="86.60254037844305" y2="-1750.0000000000002" stroke-width="4" stroke="black" />
<line x1="86.60254037844305" y1="-1750.0000000000002" x2="-8.100187187665142E-13" y2="-1800.0000000000002" stroke-width="4" stroke="black" />
<line x1="-8.100187187665142E-13" y1="-1800.0000000000002" x2="-8.283884207537245E-13" y2="-1900.0000000000002" stroke-width="4" stroke="black" />
<line x1="-8.283884207537245E-13" y1="-1900.0000000000002" x2="86.60254037844301" y2="-1950.0000000000002" stroke-width="4" stroke="black" />
<line x1="86.60254037844301" y1="-1950.0000000000002" x2="-8.526512829121202E-13" y2="-2000.0000000000002" stroke-width="4" stroke="black" />
<line x1="-8.526512829121202E-13" y1="-2000.0000000000002" x2="-8.710209848993305E-13" y2="-2100.0" stroke-width="4" stroke="black" />
<line x1="-8.710209848993305E-13" y1="-2100.0" x2="86.60254037844297" y2="-2150.0" stroke-width="4" stroke="black" />
<line x1="86.60254037844297" y1="-2150.0" x2="173.20508075688684" y2="-2100.0" stroke-width="4" stroke="black" />
<line x1="173.20508075688684" y1="-2100.0" x2="173.20508075688682" y2="-2200.0" stroke-width="4" stroke="black" />
<line x1="173.20508075688682" y1="-2200.0" x2="259.80762113533063" y2="-2250.0" stroke-width="4" stroke="black" />
<line x1="259.80762113533063" y1="-2250.0" x2="173.2050807568868" y2="-2300.0" stroke-width="4" stroke="black" />
<line x1="173.2050807568868" y1="-2300.0" x2="173.20508075688676" y2="-2400.0" stroke-width="4" stroke="black" />
<line x1="173.20508075688676" y1="-2400.0" x2="86.60254037844288" y2="-2350.0" stroke-width="4" stroke="black" />
<line x1="86.60254037844288" y1="-2350.0" x2="-9.805489753489383E-13" y2="-2400.0" stroke-width="4" stroke="black" />
<line x1="-9.805489753489383E-13" y1="-2400.0" x2="-9.989186773361485E-13" y2="-2500.0" stroke-width="4" stroke="black" />
<line x1="-9.989186773361485E-13" y1="-2500.0" x2="86.60254037844284" y2="-2550.0" stroke-width="4" stroke="black" />
<line x1="86.60254037844284" y1="-2550.0" x2="-1.0231815394945443E-12" y2="-2600.0" stroke-width="4" stroke="black" />
<line x1="-1.0231815394945443E-12" y1="-2600.0" x2="-1.0415512414817545E-12" y2="-2700.0" stroke-width="4" stroke="black" />
<line x1="-1.0415512414817545E-12" y1="-2700.0" x2="86.6025403784428" y2="-2750.0" stroke-width="4" stroke="black" />
<line x1="86.6025403784428" y1="-2750.0" x2="173.20508075688667" y2="-2700.0" stroke-width="4" stroke="black" />
<line x1="173.20508075688667" y1="-2700.0" x2="173.20508075688664" y2="-2800.0" stroke-width="4" stroke="black" />
<line x1="173.20508075688664" y1="-2800.0" x2="259.80762113533046" y2="-2850.0" stroke-width="4" stroke="black" />
<line x1="259.80762113533046" y1="-2850.0" x2="346.4101615137743" y2="-2800.0" stroke-width="4" stroke="black" />
<line x1="346.4101615137743" y1="-2800.0" x2="346.41016151377437" y2="-2700.0" stroke-width="4" stroke="black" />
<line x1="346.41016151377437" y1="-2700.0" x2="433.0127018922182" y2="-2750.0" stroke-width="4" stroke="black" />
<line x1="433.0127018922182" y1="-2750.0" x2="519.6152422706621" y2="-2700.0" stroke-width="4" stroke="black" />
<line x1="519.6152422706621" y1="-2700.0" x2="519.6152422706621" y2="-2800.0" stroke-width="4" stroke="black" />
<line x1="519.6152422706621" y1="-2800.0" x2="606.2177826491059" y2="-2850.0" stroke-width="4" stroke="black" />
<line x1="606.2177826491059" y1="-2850.0" x2="519.615242270662" y2="-2900.0" stroke-width="4" stroke="black" />
<line x1="519.615242270662" y1="-2900.0" x2="519.615242270662" y2="-3000.0" stroke-width="4" stroke="black" />
<line x1="519.615242270662" y1="-3000.0" x2="606.2177826491057" y2="-3050.0" stroke-width="4" stroke="black" />
<line x1="606.2177826491057" y1="-3050.0" x2="692.8203230275496" y2="-3000.0" stroke-width="4" stroke="black" />
<line x1="692.8203230275496" y1="-3000.0" x2="692.8203230275496" y2="-3100.0" stroke-width="4" stroke="black" />
<line x1="692.8203230275496" y1="-3100.0" x2="779.4228634059934" y2="-3150.0" stroke-width="4" stroke="black" />
<line x1="779.4228634059934" y1="-3150.0" x2="866.0254037844373" y2="-3100.0" stroke-width="4" stroke="black" />
<line x1="866.0254037844373" y1="-3100.0" x2="866.0254037844373" y2="-3000.0" stroke-width="4" stroke="black" />
<line x1="866.0254037844373" y1="-3000.0" x2="952.6279441628811" y2="-3050.0" stroke-width="4" stroke="black" />
<line x1="952.6279441628811" y1="-3050.0" x2="1039.230484541325" y2="-3000.0" stroke-width="4" stroke="black" />
<line x1="1039.230484541325" y1="-3000.0" x2="1039.230484541325" y2="-2900.0" stroke-width="4" stroke="black" />
<line x1="1039.230484541325" y1="-2900.0" x2="952.6279441628811" y2="-2850.0" stroke-width="4" stroke="black" />
<line x1="952.6279441628811" y1="-2850.0" x2="1039.230484541325" y2="-2800.0" stroke-width="4" stroke="black" />
<line x1="1039.230484541325" y1="-2800.0" x2="1039.230484541325" y2="-2700.0" stroke-width="4" stroke="black" />
<line x1="1039.230484541325" y1="-2700.0" x2="1125.8330249197688" y2="-2750.0" stroke-width="4" stroke="black" />
<line x1="1125.8330249197688" y1="-2750.0" x2="1212.4355652982126" y2="-2700.0" stroke-width="4" stroke="black" />
<line x1="1212.4355652982126" y1="-2700.0" x2="1212.4355652982126" y2="-2800.0" stroke-width="4" stroke="black" />
<line x1="1212.4355652982126" y1="-2800.0" x2="1299.0381056766564" y2="-2850.0" stroke-width="4" stroke="black" />
<line x1="1299.0381056766564" y1="-2850.0" x2="1385.6406460551002" y2="-2800.0" stroke-width="4" stroke="black" />
<line x1="1385.6406460551002" y1="-2800.0" x2="1385.6406460551002" y2="-2700.0" stroke-width="4" stroke="black" />
<line x1="1385.6406460551002" y1="-2700.0" x2="1472.243186433544" y2="-2750.0" stroke-width="4" stroke="black" />
<line x1="1472.243186433544" y1="-2750.0" x2="1558.8457268119878" y2="-2700.0" stroke-width="4" stroke="black" />
<line x1="1558.8457268119878" y1="-2700.0" x2="1558.8457268119878" y2="-2800.0" stroke-width="4" stroke="black" />
<line x1="1558.8457268119878" y1="-2800.0" x2="1645.4482671904316" y2="-2850.0" stroke-width="4" stroke="black" />
<line x1="1645.4482671904316" y1="-2850.0" x2="1558.8457268119878" y2="-2900.0" stroke-width="4" stroke="black" />
<line x1="1558.8457268119878" y1="-2900.0" x2="1558.8457268119878" y2="-3000.0" stroke-width="4" stroke="black" />
<line x1="1558.8457268119878" y1="-3000.0" x2="1645.4482671904316" y2="-3050.0" stroke-width="4" stroke="black" />
<line x1="1645.4482671904316" y1="-3050.0" x2="1732.0508075688754" y2="-3000.0" stroke-width="4" stroke="black" />
<line x1="1732.0508075688754" y1="-3000.0" x2="1732.0508075688754" y2="-3100.0" stroke-width="4" stroke="black" />
<line x1="1732.0508075688754" y1="-3100.0" x2="1818.6533479473192" y2="-3150.0" stroke-width="4" stroke="black" />
<line x1="1818.6533479473192" y1="-3150.0" x2="1732.0508075688754" y2="-3200.0" stroke-width="4" stroke="black" />
<line x1="1732.0508075688754" y1="-3200.0" x2="1732.0508075688754" y2="-3300.0" stroke-width="4" stroke="black" />
<line x1="1732.0508075688754" y1="-3300.0" x2="1645.4482671904316" y2="-3250.0" stroke-width="4" stroke="black" />
<line x1="1645.4482671904316" y1="-3250.0" x2="1558.8457268119878" y2="-3300.0" stroke-width="4" stroke="black" />
<line x1="1558.8457268119878" y1="-3300.0" x2="1558.8457268119878" y2="-3400.0" stroke-width="4" stroke="black" />
<line x1="1558.8457268119878" y1="-3400.0" x2="1645.4482671904316" y2="-3450.0" stroke-width="4" stroke="black" />
<line x1="1645.4482671904316" y1="-3450.0" x2="1558.8457268119878" y2="-3500.0" stroke-width="4" stroke="black" />
<line x1="1558.8457268119878" y1="-3500.0" x2="1558.8457268119878" y2="-3600.0" stroke-width="4" stroke="black" />
<line x1="1558.8457268119878" y1="-3600.0" x2="1645.4482671904316" y2="-3650.0" stroke-width="4" stroke="black" />
<line x1="1645.4482671904316" y1="-3650.0" x2="1732.0508075688754" y2="-3600.0" stroke-width="4" stroke="black" />
<line x1="1732.0508075688754" y1="-3600.0" x2="1732.0508075688754" y2="-3700.0" stroke-width="4" stroke="black" />
<line x1="1732.0508075688754" y1="-3700.0" x2="1818.6533479473192" y2="-3750.0" stroke-width="4" stroke="black" />
<line x1="1818.6533479473192" y1="-3750.0" x2="1905.255888325763" y2="-3700.0" stroke-width="4" stroke="black" />
<line x1="1905.255888325763" y1="-3700.0" x2="1905.255888325763" y2="-3600.0" stroke-width="4" stroke="black" />
<line x1="1905.255888325763" y1="-3600.0" x2="1991.8584287042067" y2="-3650.0" stroke-width="4" stroke="black" />
<line x1="1991.8584287042067" y1="-3650.0" x2="2078.4609690826505" y2="-3600.0" stroke-width="4" stroke="black" />
<line x1="2078.4609690826505" y1="-3600.0" x2="2078.4609690826505" y2="-3700.0" stroke-width="4" stroke="black" />
<line x1="2078.4609690826505" y1="-3700.0" x2="2165.0635094610943" y2="-3750.0" stroke-width="4" stroke="black" />
<line x1="2165.0635094610943" y1="-3750.0" x2="2078.4609690826505" y2="-3800.0" stroke-width="4" stroke="black" />
<line x1="2078.4609690826505" y1="-3800.0" x2="2078.4609690826505" y2="-3900.0" stroke-width="4" stroke="black" />
<line x1="2078.4609690826505" y1="-3900.0" x2="2165.0635094610943" y2="-3950.0" stroke-width="4" stroke="black" />
<line x1="2165.0635094610943" y1="-3950.0" x2="2251.666049839538" y2="-3900.0" stroke-width="4" stroke="black" />
<line x1="2251.666049839538" y1="-3900.0" x2="2251.666049839538" y2="-4000.0" stroke-width="4" stroke="black" />
<line x1="2251.666049839538" y1="-4000.0" x2="2338.268590217982" y2="-4050.0" stroke-width="4" stroke="black" />
<line x1="2338.268590217982" y1="-4050.0" x2="2251.666049839538" y2="-4100.0" stroke-width="4" stroke="black" />
<line x1="2251.666049839538" y1="-4100.0" x2="2251.666049839538" y2="-4200.0" stroke-width="4" stroke="black" />
<line x1="2251.666049839538" y1="-4200.0" x2="2165.0635094610943" y2="-4150.0" stroke-width="4" stroke="black" />
<line x1="2165.0635094610943" y1="-4150.0" x2="2078.4609690826505" y2="-4200.0" stroke-width="4" stroke="black" />
<line x1="2078.4609690826505" y1="-4200.0" x2="2078.4609690826505" y2="-4300.0" stroke-width="4" stroke="black" />
<line x1="2078.4609690826505" y1="-4300.0" x2="2165.0635094610943" y2="-4350.0" stroke-width="4" stroke="black" />
<line x1="2165.0635094610943" y1="-4350.0" x2="2078.4609690826505" y2="-4400.0" stroke-width="4" stroke="black" />
<line x1="2078.4609690826505" y1="-4400.0" x2="2078.4609690826505" y2="-4500.0" stroke-width="4" stroke="black" />
<line x1="2078.4609690826505" y1="-4500.0" x2="1991.8584287042067" y2="-4450.0" stroke-width="4" stroke="black" />
<line x1="1991.8584287042067" y1="-4450.0" x2="1905.255888325763" y2="-4500.0" stroke-width="4" stroke="black" />
<line x1="1905.255888325763" y1="-4500.0" x2="1905.255888325763" y2="-4400.0" stroke-width="4" stroke="black" />
<line x1="1905.255888325763" y1="-4400.0" x2="1818.6533479473192" y2="-4350.0" stroke-width="4" stroke="black" />
<line x1="1818.6533479473192" y1="-4350.0" x2="1732.0508075688754" y2="-4400.0" stroke-width="4" stroke="black" />
<line x1="1732.0508075688754" y1="-4400.0" x2="1732.0508075688754" y2="-4500.0" stroke-width="4" stroke="black" />
<line x1="1732.0508075688754" y1="-4500.0" x2="1645.4482671904316" y2="-4450.0" stroke-width="4" stroke="black" />
<line x1="1645.4482671904316" y1="-4450.0" x2="1558.8457268119878" y2="-4500.0" stroke-width="4" stroke="black" />
<line x1="1558.8457268119878" y1="-4500.0" x2="1558.8457268119878" y2="-4600.0" stroke-width="4" stroke="black" />
<line x1="1558.8457268119878" y1="-4600.0" x2="1645.4482671904316" y2="-4650.0" stroke-width="4" stroke="black" />
<line x1="1645.4482671904316" y1="-4650.0" x2="1558.8457268119878" y2="-4700.0" stroke-width="4" stroke="black" />
<line x1="1558.8457268119878" y1="-4700.0" x2="1558.8457268119878" y2="-4800.0" stroke-width="4" stroke="black" />
<line x1="1558.8457268119878" y1="-4800.0" x2="1645.4482671904316" y2="-4850.0" stroke-width="4" stroke="black" />
<line x1="1645.4482671904316" y1="-4850.0" x2="1732.0508075688754" y2="-4800.0" stroke-width="4" stroke="black" />
<line x1="1732.0508075688754" y1="-4800.0" x2="1732.0508075688754" y2="-4900.0" stroke-width="4" stroke="black" />
<line x1="1732.0508075688754" y1="-4900.0" x2="1818.6533479473192" y2="-4950.0" stroke-width="4" stroke="black" />
<line x1="1818.6533479473192" y1="-4950.0" x2="1732.0508075688754" y2="-5000.0" stroke-width="4" stroke="black" />
<line x1="1732.0508075688754" y1="-5000.0" x2="1732.0508075688754" y2="-5100.0" stroke-width="4" stroke="black" />
<line x1="1732.0508075688754" y1="-5100.0" x2="1645.4482671904316" y2="-5050.0" stroke-width="4" stroke="black" />
<line x1="1645.4482671904316" y1="-5050.0" x2="1558.8457268119878" y2="-5100.0" stroke-width="4" stroke="black" />
<line x1="1558.8457268119878" y1="-5100.0" x2="1558.8457268119878" y2="-5200.0" stroke-width="4" stroke="black" />
<line x1="1558.8457268119878" y1="-5200.0" x2="1645.4482671904316" y2="-5250.0" stroke-width="4" stroke="black" />
<line x1="1645.4482671904316" y1="-5250.0" x2="1558.8457268119878" y2="-5300.0" stroke-width="4" stroke="black" />
<line x1="1558.8457268119878" y1="-5300.0" x2="1558.8457268119878" y2="-5400.0" stroke-width="4" stroke="black" />
<line x1="1558.8457268119878" y1="-5400.0" x2="1472.243186433544" y2="-5350.0" stroke-width="4" stroke="black" />
<line x1="1472.243186433544" y1="-5350.0" x2="1385.6406460551002" y2="-5400.0" stroke-width="4" stroke="black" />
<line x1="1385.6406460551002" y1="-5400.0" x2="1385.6406460551002" y2="-5300.0" stroke-width="4" stroke="black" />
<line x1="1385.6406460551002" y1="-5300.0" x2="1299.0381056766564" y2="-5250.0" stroke-width="4" stroke="black" />
<line x1="1299.0381056766564" y1="-5250.0" x2="1212.4355652982126" y2="-5300.0" stroke-width="4" stroke="black" />
<line x1="1212.4355652982126" y1="-5300.0" x2="1212.4355652982126" y2="-5400.0" stroke-width="4" stroke="black" />
<line x1="1212.4355652982126" y1="-5400.0" x2="1125.8330249197688" y2="-5350.0" stroke-width="4" stroke="black" />
<line x1="1125.8330249197688" y1="-5350.0" x2="1039.230484541325" y2="-5400.0" stroke-width="4" stroke="black" />
<line x1="1039.230484541325" y1="-5400.0" x2="1039.230484541325" y2="-5300.0" stroke-width="4" stroke="black" />
<line x1="1039.230484541325" y1="-5300.0" x2="952.6279441628811" y2="-5250.0" stroke-width="4" stroke="black" />
<line x1="952.6279441628811" y1="-5250.0" x2="1039.230484541325" y2="-5200.0" stroke-width="4" stroke="black" />
<line x1="1039.230484541325" y1="-5200.0" x2="1039.230484541325" y2="-5100.0" stroke-width="4" stroke="black" />
<line x1="1039.230484541325" y1="-5100.0" x2="952.6279441628811" y2="-5050.0" stroke-width="4" stroke="black" />
<line x1="952.6279441628811" y1="-5050.0" x2="866.0254037844372" y2="-5100.0" stroke-width="4" stroke="black" />
<line x1="866.0254037844372" y1="-5100.0" x2="866.0254037844372" y2="-5000.0" stroke-width="4" stroke="black" />
<line x1="866.0254037844372" y1="-5000.0" x2="779.4228634059933" y2="-4950.0" stroke-width="4" stroke="black" />
<line x1="779.4228634059933" y1="-4950.0" x2="692.8203230275494" y2="-5000.0" stroke-width="4" stroke="black" />
<line x1="692.8203230275494" y1="-5000.0" x2="692.8203230275494" y2="-5100.0" stroke-width="4" stroke="black" />
<line x1="692.8203230275494" y1="-5100.0" x2="606.2177826491055" y2="-5050.0" stroke-width="4" stroke="black" />
<line x1="606.2177826491055" y1="-5050.0" x2="519.6152422706616" y2="-5100.0" stroke-width="4" stroke="black" />
<line x1="519.6152422706616" y1="-5100.0" x2="519.6152422706616" y2="-5200.0" stroke-width="4" stroke="black" />
<line x1="519.6152422706616" y1="-5200.0" x2="606.2177826491054" y2="-5250.0" stroke-width="4" stroke="black" />
<line x1="606.2177826491054" y1="-5250.0" x2="519.6152422706615" y2="-5300.0" stroke-width="4" stroke="black" />
<line x1="519.6152422706615" y1="-5300.0" x2="519.6152422706615" y2="-5400.0" stroke-width="4" stroke="black" />
<line x1="519.6152422706615" y1="-5400.0" x2="433.0127018922176" y2="-5350.0" stroke-width="4" stroke="black" />
<line x1="433.0127018922176" y1="-5350.0" x2="346.41016151377374" y2="-5400.0" stroke-width="4" stroke="black" />
<line x1="346.41016151377374" y1="-5400.0" x2="346.41016151377374" y2="-5300.0" stroke-width="4" stroke="black" />
<line x1="346.41016151377374" y1="-5300.0" x2="259.8076211353299" y2="-5250.0" stroke-width="4" stroke="black" />
<line x1="259.8076211353299" y1="-5250.0" x2="173.20508075688605" y2="-5300.0" stroke-width="4" stroke="black" />
<line x1="173.20508075688605" y1="-5300.0" x2="173.20508075688602" y2="-5400.0" stroke-width="4" stroke="black" />
<line x1="173.20508075688602" y1="-5400.0" x2="86.60254037844214" y2="-5350.0" stroke-width="4" stroke="black" />
<line x1="86.60254037844214" y1="-5350.0" x2="-1.7195134205394424E-12" y2="-5400.0" stroke-width="4" stroke="black" />
<line x1="-1.7195134205394424E-12" y1="-5400.0" x2="-1.7378831225266527E-12" y2="-5500.0" stroke-width="4" stroke="black" />
<line x1="-1.7378831225266527E-12" y1="-5500.0" x2="86.6025403784421" y2="-5550.0" stroke-width="4" stroke="black" />
<line x1="86.6025403784421" y1="-5550.0" x2="-1.7621459846850485E-12" y2="-5600.0" stroke-width="4" stroke="black" />
<line x1="-1.7621459846850485E-12" y1="-5600.0" x2="-1.7805156866722587E-12" y2="-5700.0" stroke-width="4" stroke="black" />
<line x1="-1.7805156866722587E-12" y1="-5700.0" x2="86.60254037844206" y2="-5750.0" stroke-width="4" stroke="black" />
<line x1="86.60254037844206" y1="-5750.0" x2="173.20508075688593" y2="-5700.0" stroke-width="4" stroke="black" />
<line x1="173.20508075688593" y1="-5700.0" x2="173.2050807568859" y2="-5800.0" stroke-width="4" stroke="black" />
<line x1="173.2050807568859" y1="-5800.0" x2="259.8076211353297" y2="-5850.0" stroke-width="4" stroke="black" />
<line x1="259.8076211353297" y1="-5850.0" x2="173.20508075688588" y2="-5900.0" stroke-width="4" stroke="black" />
<line x1="173.20508075688588" y1="-5900.0" x2="173.20508075688585" y2="-6000.0" stroke-width="4" stroke="black" />
<line x1="173.20508075688585" y1="-6000.0" x2="86.60254037844197" y2="-5950.0" stroke-width="4" stroke="black" />
<line x1="86.60254037844197" y1="-5950.0" x2="-1.8900436771218665E-12" y2="-6000.0" stroke-width="4" stroke="black" />
<line x1="-1.8900436771218665E-12" y1="-6000.0" x2="-1.908413379109077E-12" y2="-6100.0" stroke-width="4" stroke="black" />
<line x1="-1.908413379109077E-12" y1="-6100.0" x2="86.60254037844193" y2="-6150.0" stroke-width="4" stroke="black" />
<line x1="86.60254037844193" y1="-6150.0" x2="-1.9326762412674725E-12" y2="-6200.0" stroke-width="4" stroke="black" />
<line x1="-1.9326762412674725E-12" y1="-6200.0" x2="-1.951045943254683E-12" y2="-6300.0" stroke-width="4" stroke="black" />
<line x1="-1.951045943254683E-12" y1="-6300.0" x2="86.60254037844189" y2="-6350.0" stroke-width="4" stroke="black" />
<line x1="86.60254037844189" y1="-6350.0" x2="173.20508075688576" y2="-6300.0" stroke-width="4" stroke="black" />
<line x1="173.20508075688576" y1="-6300.0" x2="173.20508075688574" y2="-6400.0" stroke-width="4" stroke="black" />
<line x1="173.20508075688574" y1="-6400.0" x2="259.80762113532955" y2="-6450.0" stroke-width="4" stroke="black" />
<line x1="259.80762113532955" y1="-6450.0" x2="346.4101615137734" y2="-6400.0" stroke-width="4" stroke="black" />
<line x1="346.4101615137734" y1="-6400.0" x2="346.41016151377346" y2="-6300.0" stroke-width="4" stroke="black" />
<line x1="346.41016151377346" y1="-6300.0" x2="433.0127018922173" y2="-6350.0" stroke-width="4" stroke="black" />
<line x1="433.0127018922173" y1="-6350.0" x2="519.6152422706612" y2="-6300.0" stroke-width="4" stroke="black" />
<line x1="519.6152422706612" y1="-6300.0" x2="519.6152422706612" y2="-6400.0" stroke-width="4" stroke="black" />
<line x1="519.6152422706612" y1="-6400.0" x2="606.217782649105" y2="-6450.0" stroke-width="4" stroke="black" />
<line x1="606.217782649105" y1="-6450.0" x2="519.615242270661" y2="-6500.0" stroke-width="4" stroke="black" />
<line x1="519.615242270661" y1="-6500.0" x2="519.615242270661" y2="-6600.0" stroke-width="4" stroke="black" />
<line x1="519.615242270661" y1="-6600.0" x2="606.2177826491048" y2="-6650.0" stroke-width="4" stroke="black" />
<line x1="606.2177826491048" y1="-6650.0" x2="692.8203230275487" y2="-6600.0" stroke-width="4" stroke="black" />
<line x1="692.8203230275487" y1="-6600.0" x2="692.8203230275487" y2="-6700.0" stroke-width="4" stroke="black" />
<line x1="692.8203230275487" y1="-6700.0" x2="779.4228634059925" y2="-6750.0" stroke-width="4" stroke="black" />
<line x1="779.4228634059925" y1="-6750.0" x2="692.8203230275486" y2="-6800.0" stroke-width="4" stroke="black" />
<line x1="692.8203230275486" y1="-6800.0" x2="692.8203230275486" y2="-6900.0" stroke-width="4" stroke="black" />
<line x1="692.8203230275486" y1="-6900.0" x2="606.2177826491047" y2="-6850.0" stroke-width="4" stroke="black" />
<line x1="606.2177826491047" y1="-6850.0" x2="519.6152422706608" y2="-6900.0" stroke-width="4" stroke="black" />
<line x1="519.6152422706608" y1="-6900.0" x2="519.6152422706608" y2="-7000.0" stroke-width="4" stroke="black" />
<line x1="519.6152422706608" y1="-7000.0" x2="606.2177826491046" y2="-7050.0" stroke-width="4" stroke="black" />
<line x1="606.2177826491046" y1="-7050.0" x2="519.6152422706607" y2="-7100.0" stroke-width="4" stroke="black" />
<line x1="519.6152422706607" y1="-7100.0" x2="519.6152422706607" y2="-7200.0" stroke-width="4" stroke="black" />
<line x1="519.6152422706607" y1="-7200.0" x2="433.0127018922168" y2="-7150.0" stroke-width="4" stroke="black" />
<line x1="433.0127018922168" y1="-7150.0" x2="346.41016151377295" y2="-7200.0" stroke-width="4" stroke="black" />
<line x1="346.41016151377295" y1="-7200.0" x2="346.41016151377295" y2="-7100.0" stroke-width="4" stroke="black" />
<line x1="346.41016151377295" y1="-7100.0" x2="259.8076211353291" y2="-7050.0" stroke-width="4" stroke="black" />
<line x1="259.8076211353291" y1="-7050.0" x2="173.20508075688525" y2="-7100.0" stroke-width="4" stroke="black" />
<line x1="173.20508075688525" y1="-7100.0" x2="173.20508075688522" y2="-7200.0" stroke-width="4" stroke="black" />
<line x1="173.20508075688522" y1="-7200.0" x2="86.60254037844135" y2="-7150.0" stroke-width="4" stroke="black" />
<line x1="86.60254037844135" y1="-7150.0" x2="-2.5153212845907547E-12" y2="-7200.0" stroke-width="4" stroke="black" />
<line x1="-2.5153212845907547E-12" y1="-7200.0" x2="-2.533690986577965E-12" y2="-7300.0" stroke-width="4" stroke="black" />
<line x1="-2.533690986577965E-12" y1="-7300.0" x2="86.6025403784413" y2="-7350.0" stroke-width="4" stroke="black" />
<line x1="86.6025403784413" y1="-7350.0" x2="-2.5579538487363607E-12" y2="-7400.0" stroke-width="4" stroke="black" />
<line x1="-2.5579538487363607E-12" y1="-7400.0" x2="-2.576323550723571E-12" y2="-7500.0" stroke-width="4" stroke="black" />
<line x1="-2.576323550723571E-12" y1="-7500.0" x2="86.60254037844126" y2="-7550.0" stroke-width="4" stroke="black" />
<line x1="86.60254037844126" y1="-7550.0" x2="173.20508075688514" y2="-7500.0" stroke-width="4" stroke="black" />
<line x1="173.20508075688514" y1="-7500.0" x2="173.2050807568851" y2="-7600.0" stroke-width="4" stroke="black" />
<line x1="173.2050807568851" y1="-7600.0" x2="259.80762113532893" y2="-7650.0" stroke-width="4" stroke="black" />
<line x1="259.80762113532893" y1="-7650.0" x2="173.20508075688508" y2="-7700.0" stroke-width="4" stroke="black" />
<line x1="173.20508075688508" y1="-7700.0" x2="173.20508075688505" y2="-7800.0" stroke-width="4" stroke="black" />
<line x1="173.20508075688505" y1="-7800.0" x2="86.60254037844118" y2="-7750.0" stroke-width="4" stroke="black" />
<line x1="86.60254037844118" y1="-7750.0" x2="-2.6858515411731787E-12" y2="-7800.0" stroke-width="4" stroke="black" />
<line x1="-2.6858515411731787E-12" y1="-7800.0" x2="-2.704221243160389E-12" y2="-7900.0" stroke-width="4" stroke="black" />
<line x1="-2.704221243160389E-12" y1="-7900.0" x2="86.60254037844113" y2="-7950.0" stroke-width="4" stroke="black" />
<line x1="86.60254037844113" y1="-7950.0" x2="-2.7284841053187847E-12" y2="-8000.0" stroke-width="4" stroke="black" />
<line x1="-2.7284841053187847E-12" y1="-8000.0" x2="-2.746853807305995E-12" y2="-8100.0" stroke-width="4" stroke="black" />
<line x1="-2.746853807305995E-12" y1="-8100.0" x2="-86.60254037844662" y2="-8050.0" stroke-width="4" stroke="black" />
<line x1="-86.60254037844662" y1="-8050.0" x2="-173.20508075689048" y2="-8100.0" stroke-width="4" stroke="black" />
<line x1="-173.20508075689048" y1="-8100.0" x2="-173.20508075689048" y2="-8000.0" stroke-width="4" stroke="black" />
<line x1="-173.20508075689048" y1="-8000.0" x2="-259.80762113533433" y2="-7950.0" stroke-width="4" stroke="black" />
<line x1="-259.80762113533433" y1="-7950.0" x2="-346.4101615137782" y2="-8000.0" stroke-width="4" stroke="black" />
<line x1="-346.4101615137782" y1="-8000.0" x2="-346.4101615137782" y2="-8100.0" stroke-width="4" stroke="black" />
<line x1="-346.4101615137782" y1="-8100.0" x2="-433.012701892222" y2="-8050.0" stroke-width="4" stroke="black" />
<line x1="-433.012701892222" y1="-8050.0" x2="-519.6152422706659" y2="-8100.0" stroke-width="4" stroke="black" />
<line x1="-519.6152422706659" y1="-8100.0" x2="-519.6152422706659" y2="-8000.0" stroke-width="4" stroke="black" />
<line x1="-519.6152422706659" y1="-8000.0" x2="-606.2177826491098" y2="-7950.0" stroke-width="4" stroke="black" />
<line x1="-606.2177826491098" y1="-7950.0" x2="-519.6152422706659" y2="-7900.0" stroke-width="4" stroke="black" />
<line x1="-519.6152422706659" y1="-7900.0" x2="-519.6152422706659" y2="-7800.0" stroke-width="4" stroke="black" />
<line x1="-519.6152422706659" y1="-7800.0" x2="-606.2177826491098" y2="-7750.0" stroke-width="4" stroke="black" />
<line x1="-606.2177826491098" y1="-7750.0" x2="-692.8203230275537" y2="-7800.0" stroke-width="4" stroke="black" />
<line x1="-692.8203230275537" y1="-7800.0" x2="-692.8203230275537" y2="-7700.0" stroke-width="4" stroke="black" />
<line x1="-692.8203230275537" y1="-7700.0" x2="-779.4228634059976" y2="-7650.0" stroke-width="4" stroke="black" />
<line x1="-779.4228634059976" y1="-7650.0" x2="-866.0254037844416" y2="-7700.0" stroke-width="4" stroke="black" />
<line x1="-866.0254037844416" y1="-7700.0" x2="-866.0254037844416" y2="-7800.0" stroke-width="4" stroke="black" />
<line x1="-866.0254037844416" y1="-7800.0" x2="-952.6279441628855" y2="-7750.0" stroke-width="4" stroke="black" />
<line x1="-952.6279441628855" y1="-7750.0" x2="-1039.2304845413294" y2="-7800.0" stroke-width="4" stroke="black" />
<line x1="-1039.2304845413294" y1="-7800.0" x2="-1039.2304845413294" y2="-7900.0" stroke-width="4" stroke="black" />
<line x1="-1039.2304845413294" y1="-7900.0" x2="-952.6279441628856" y2="-7950.0" stroke-width="4" stroke="black" />
<line x1="-952.6279441628856" y1="-7950.0" x2="-1039.2304845413294" y2="-8000.0" stroke-width="4" stroke="black" />
<line x1="-1039.2304845413294" y1="-8000.0" x2="-1039.2304845413294" y2="-8100.0" stroke-width="4" stroke="black" />
<line x1="-1039.2304845413294" y1="-8100.0" x2="-1125.8330249197732" y2="-8050.0" stroke-width="4" stroke="black" />
<line x1="-1125.8330249197732" y1="-8050.0" x2="-1212.435565298217" y2="-8100.0" stroke-width="4" stroke="black" />
<line x1="-1212.435565298217" y1="-8100.0" x2="-1212.435565298217" y2="-8000.0" stroke-width="4" stroke="black" />
<line x1="-1212.435565298217" y1="-8000.0" x2="-1299.0381056766607" y2="-7950.0" stroke-width="4" stroke="black" />
<line x1="-1299.0381056766607" y1="-7950.0" x2="-1385.6406460551045" y2="-8000.0" stroke-width="4" stroke="black" />
<line x1="-1385.6406460551045" y1="-8000.0" x2="-1385.6406460551045" y2="-8100.0" stroke-width="4" stroke="black" />
<line x1="-1385.6406460551045" y1="-8100.0" x2="-1472.2431864335483" y2="-8050.0" stroke-width="4" stroke="black" />
<line x1="-1472.2431864335483" y1="-8050.0" x2="-1558.845726811992" y2="-8100.0" stroke-width="4" stroke="black" />
<line x1="-1558.845726811992" y1="-8100.0" x2="-1558.845726811992" y2="-8000.0" stroke-width="4" stroke="black" />
<line x1="-1558.845726811992" y1="-8000.0" x2="-1645.448267190436" y2="-7950.0" stroke-width="4" stroke="black" />
<line x1="-1645.448267190436" y1="-7950.0" x2="-1558.845726811992" y2="-7900.0" stroke-width="4" stroke="black" />
<line x1="-1558.845726811992" y1="-7900.0" x2="-1558.845726811992" y2="-7800.0" stroke-width="4" stroke="black" />
<line x1="-1558.845726811992" y1="-7800.0" x2="-1645.448267190436" y2="-7750.0" stroke-width="4" stroke="black" />
<line x1="-1645.448267190436" y1="-7750.0" x2="-1732.0508075688797" y2="-7800.0" stroke-width="4" stroke="black" />
<line x1="-1732.0508075688797" y1="-7800.0" x2="-1732.0508075688797" y2="-7700.0" stroke-width="4" stroke="black" />
<line x1="-1732.0508075688797" y1="-7700.0" x2="-1818.6533479473235" y2="-7650.0" stroke-width="4" stroke="black" />
<line x1="-1818.6533479473235" y1="-7650.0" x2="-1732.0508075688797" y2="-7600.0" stroke-width="4" stroke="black" />
<line x1="-1732.0508075688797" y1="-7600.0" x2="-1732.0508075688797" y2="-7500.0" stroke-width="4" stroke="black" />
<line x1="-1732.0508075688797" y1="-7500.0" x2="-1645.448267190436" y2="-7550.0" stroke-width="4" stroke="black" />
<line x1="-1645.448267190436" y1="-7550.0" x2="-1558.845726811992" y2="-7500.0" stroke-width="4" stroke="black" />
<line x1="-1558.845726811992" y1="-7500.0" x2="-1558.845726811992" y2="-7400.0" stroke-width="4" stroke="black" />
<line x1="-1558.845726811992" y1="-7400.0" x2="-1645.448267190436" y2="-7350.0" stroke-width="4" stroke="black" />
<line x1="-1645.448267190436" y1="-7350.0" x2="-1558.845726811992" y2="-7300.0" stroke-width="4" stroke="black" />
<line x1="-1558.845726811992" y1="-7300.0" x2="-1558.845726811992" y2="-7200.0" stroke-width="4" stroke="black" />
<line x1="-1558.845726811992" y1="-7200.0" x2="-1645.448267190436" y2="-7150.0" stroke-width="4" stroke="black" />
<line x1="-1645.448267190436" y1="-7150.0" x2="-1732.0508075688797" y2="-7200.0" stroke-width="4" stroke="black" />
<line x1="-1732.0508075688797" y1="-7200.0" x2="-1732.0508075688797" y2="-7100.0" stroke-width="4" stroke="black" />
<line x1="-1732.0508075688797" y1="-7100.0" x2="-1818.6533479473235" y2="-7050.0" stroke-width="4" stroke="black" />
<line x1="-1818.6533479473235" y1="-7050.0" x2="-1905.2558883257673" y2="-7100.0" stroke-width="4" stroke="black" />
<line x1="-1905.2558883257673" y1="-7100.0" x2="-1905.2558883257673" y2="-7200.0" stroke-width="4" stroke="black" />
<line x1="-1905.2558883257673" y1="-7200.0" x2="-1991.858428704211" y2="-7150.0" stroke-width="4" stroke="black" />
<line x1="-1991.858428704211" y1="-7150.0" x2="-2078.460969082655" y2="-7200.0" stroke-width="4" stroke="black" />
<line x1="-2078.460969082655" y1="-7200.0" x2="-2078.460969082655" y2="-7100.0" stroke-width="4" stroke="black" />
<line x1="-2078.460969082655" y1="-7100.0" x2="-2165.063509461099" y2="-7050.0" stroke-width="4" stroke="black" />
<line x1="-2165.063509461099" y1="-7050.0" x2="-2078.460969082655" y2="-7000.0" stroke-width="4" stroke="black" />
<line x1="-2078.460969082655" y1="-7000.0" x2="-2078.460969082655" y2="-6900.0" stroke-width="4" stroke="black" />
<line x1="-2078.460969082655" y1="-6900.0" x2="-2165.063509461099" y2="-6850.0" stroke-width="4" stroke="black" />
<line x1="-2165.063509461099" y1="-6850.0" x2="-2251.6660498395427" y2="-6900.0" stroke-width="4" stroke="black" />
<line x1="-2251.6660498395427" y1="-6900.0" x2="-2251.6660498395427" y2="-6800.0" stroke-width="4" stroke="black" />
<line x1="-2251.6660498395427" y1="-6800.0" x2="-2338.2685902179865" y2="-6750.0" stroke-width="4" stroke="black" />
<line x1="-2338.2685902179865" y1="-6750.0" x2="-2424.8711305964302" y2="-6800.0" stroke-width="4" stroke="black" />
<line x1="-2424.8711305964302" y1="-6800.0" x2="-2424.8711305964302" y2="-6900.0" stroke-width="4" stroke="black" />
<line x1="-2424.8711305964302" y1="-6900.0" x2="-2511.473670974874" y2="-6850.0" stroke-width="4" stroke="black" />
<line x1="-2511.473670974874" y1="-6850.0" x2="-2598.076211353318" y2="-6900.0" stroke-width="4" stroke="black" />
<line x1="-2598.076211353318" y1="-6900.0" x2="-2598.076211353318" y2="-7000.0" stroke-width="4" stroke="black" />
<line x1="-2598.076211353318" y1="-7000.0" x2="-2511.473670974874" y2="-7050.0" stroke-width="4" stroke="black" />
<line x1="-2511.473670974874" y1="-7050.0" x2="-2598.076211353318" y2="-7100.0" stroke-width="4" stroke="black" />
<line x1="-2598.076211353318" y1="-7100.0" x2="-2598.076211353318" y2="-7200.0" stroke-width="4" stroke="black" />
<line x1="-2598.076211353318" y1="-7200.0" x2="-2684.6787517317616" y2="-7150.0" stroke-width="4" stroke="black" />
<line x1="-2684.6787517317616" y1="-7150.0" x2="-2771.2812921102054" y2="-7200.0" stroke-width="4" stroke="black" />
<line x1="-2771.2812921102054" y1="-7200.0" x2="-2771.2812921102054" y2="-7100.0" stroke-width="4" stroke="black" />
<line x1="-2771.2812921102054" y1="-7100.0" x2="-2857.883832488649" y2="-7050.0" stroke-width="4" stroke="black" />
<line x1="-2857.883832488649" y1="-7050.0" x2="-2944.486372867093" y2="-7100.0" stroke-width="4" stroke="black" />
<line x1="-2944.486372867093" y1="-7100.0" x2="-2944.486372867093" y2="-7200.0" stroke-width="4" stroke="black" />
<line x1="-2944.486372867093" y1="-7200.0" x2="-3031.088913245537" y2="-7150.0" stroke-width="4" stroke="black" />
<line x1="-3031.088913245537" y1="-7150.0" x2="-3117.6914536239806" y2="-7200.0" stroke-width="4" stroke="black" />
<line x1="-3117.6914536239806" y1="-7200.0" x2="-3117.6914536239806" y2="-7300.0" stroke-width="4" stroke="black" />
<line x1="-3117.6914536239806" y1="-7300.0" x2="-3031.088913245537" y2="-7350.0" stroke-width="4" stroke="black" />
<line x1="-3031.088913245537" y1="-7350.0" x2="-3117.6914536239806" y2="-7400.0" stroke-width="4" stroke="black" />
<line x1="-3117.6914536239806" y1="-7400.0" x2="-3117.6914536239806" y2="-7500.0" stroke-width="4" stroke="black" />
<line x1="-3117.6914536239806" y1="-7500.0" x2="-3031.088913245537" y2="-7550.0" stroke-width="4" stroke="black" />
<line x1="-3031.088913245537" y1="-7550.0" x2="-2944.486372867093" y2="-7500.0" stroke-width="4" stroke="black" />
<line x1="-2944.486372867093" y1="-7500.0" x2="-2944.486372867093" y2="-7600.0" stroke-width="4" stroke="black" />
<line x1="-2944.486372867093" y1="-7600.0" x2="-2857.883832488649" y2="-7650.0" stroke-width="4" stroke="black" />
<line x1="-2857.883832488649" y1="-7650.0" x2="-2944.486372867093" y2="-7700.0" stroke-width="4" stroke="black" />
<line x1="-2944.486372867093" y1="-7700.0" x2="-2944.486372867093" y2="-7800.0" stroke-width="4" stroke="black" />
<line x1="-2944.486372867093" y1="-7800.0" x2="-3031.088913245537" y2="-7750.0" stroke-width="4" stroke="black" />
<line x1="-3031.088913245537" y1="-7750.0" x2="-3117.6914536239806" y2="-7800.0" stroke-width="4" stroke="black" />
<line x1="-3117.6914536239806" y1="-7800.0" x2="-3117.6914536239806" y2="-7900.0" stroke-width="4" stroke="black" />
<line x1="-3117.6914536239806" y1="-7900.0" x2="-3031.088913245537" y2="-7950.0" stroke-width="4" stroke="black" />
<line x1="-3031.088913245537" y1="-7950.0" x2="-3117.6914536239806" y2="-8000.0" stroke-width="4" stroke="black" />
<line x1="-3117.6914536239806" y1="-8000.0" x2="-3117.6914536239806" y2="-8100.0" stroke-width="4" stroke="black" />
<line x1="-3117.6914536239806" y1="-8100.0" x2="-3204.2939940024244" y2="-8050.0" stroke-width="4" stroke="black" />
<line x1="-3204.2939940024244" y1="-8050.0" x2="-3290.896534380868" y2="-8100.0" stroke-width="4" stroke="black" />
<line x1="-3290.896534380868" y1="-8100.0" x2="-3290.896534380868" y2="-8000.0" stroke-width="4" stroke="black" />
<line x1="-3290.896534380868" y1="-8000.0" x2="-3377.499074759312" y2="-7950.0" stroke-width="4" stroke="black" />
<line x1="-3377.499074759312" y1="-7950.0" x2="-3464.1016151377557" y2="-8000.0" stroke-width="4" stroke="black" />
<line x1="-3464.1016151377557" y1="-8000.0" x2="-3464.1016151377557" y2="-8100.0" stroke-width="4" stroke="black" />
<line x1="-3464.1016151377557" y1="-8100.0" x2="-3550.7041555161995" y2="-8050.0" stroke-width="4" stroke="black" />
<line x1="-3550.7041555161995" y1="-8050.0" x2="-3637.3066958946433" y2="-8100.0" stroke-width="4" stroke="black" />
<line x1="-3637.3066958946433" y1="-8100.0" x2="-3637.3066958946433" y2="-8000.0" stroke-width="4" stroke="black" />
<line x1="-3637.3066958946433" y1="-8000.0" x2="-3723.909236273087" y2="-7950.0" stroke-width="4" stroke="black" />
<line x1="-3723.909236273087" y1="-7950.0" x2="-3637.3066958946433" y2="-7900.0" stroke-width="4" stroke="black" />
<line x1="-3637.3066958946433" y1="-7900.0" x2="-3637.3066958946433" y2="-7800.0" stroke-width="4" stroke="black" />
<line x1="-3637.3066958946433" y1="-7800.0" x2="-3723.909236273087" y2="-7750.0" stroke-width="4" stroke="black" />
<line x1="-3723.909236273087" y1="-7750.0" x2="-3810.511776651531" y2="-7800.0" stroke-width="4" stroke="black" />
<line x1="-3810.511776651531" y1="-7800.0" x2="-3810.511776651531" y2="-7700.0" stroke-width="4" stroke="black" />
<line x1="-3810.511776651531" y1="-7700.0" x2="-3897.1143170299747" y2="-7650.0" stroke-width="4" stroke="black" />
<line x1="-3897.1143170299747" y1="-7650.0" x2="-3983.7168574084185" y2="-7700.0" stroke-width="4" stroke="black" />
<line x1="-3983.7168574084185" y1="-7700.0" x2="-3983.7168574084185" y2="-7800.0" stroke-width="4" stroke="black" />
<line x1="-3983.7168574084185" y1="-7800.0" x2="-4070.3193977868623" y2="-7750.0" stroke-width="4" stroke="black" />
<line x1="-4070.3193977868623" y1="-7750.0" x2="-4156.9219381653065" y2="-7800.0" stroke-width="4" stroke="black" />
<line x1="-4156.9219381653065" y1="-7800.0" x2="-4156.9219381653065" y2="-7900.0" stroke-width="4" stroke="black" />
<line x1="-4156.9219381653065" y1="-7900.0" x2="-4070.3193977868627" y2="-7950.0" stroke-width="4" stroke="black" />
<line x1="-4070.3193977868627" y1="-7950.0" x2="-4156.9219381653065" y2="-8000.0" stroke-width="4" stroke="black" />
<line x1="-4156.9219381653065" y1="-8000.0" x2="-4156.9219381653065" y2="-8100.0" stroke-width="4" stroke="black" />
<line x1="-4156.9219381653065" y1="-8100.0" x2="-4243.524478543751" y2="-8050.0" stroke-width="4" stroke="black" />
<line x1="-4243.524478543751" y1="-8050.0" x2="-4330.127018922195" y2="-8100.0" stroke-width="4" stroke="black" />
<line x1="-4330.127018922195" y1="-8100.0" x2="-4330.127018922195" y2="-8000.0" stroke-width="4" stroke="black" />
<line x1="-4330.127018922195" y1="-8000.0" x2="-4416.729559300639" y2="-7950.0" stroke-width="4" stroke="black" />
<line x1="-4416.729559300639" y1="-7950.0" x2="-4503.3320996790835" y2="-8000.0" stroke-width="4" stroke="black" />
<line x1="-4503.3320996790835" y1="-8000.0" x2="-4503.3320996790835" y2="-8100.0" stroke-width="4" stroke="black" />
<line x1="-4503.3320996790835" y1="-8100.0" x2="-4589.934640057528" y2="-8050.0" stroke-width="4" stroke="black" />
<line x1="-4589.934640057528" y1="-8050.0" x2="-4676.537180435972" y2="-8100.0" stroke-width="4" stroke="black" />
<line x1="-4676.537180435972" y1="-8100.0" x2="-4676.537180435972" y2="-8000.0" stroke-width="4" stroke="black" />
<line x1="-4676.537180435972" y1="-8000.0" x2="-4763.139720814416" y2="-7950.0" stroke-width="4" stroke="black" />
<line x1="-4763.139720814416" y1="-7950.0" x2="-4676.537180435972" y2="-7900.0" stroke-width="4" stroke="black" />
<line x1="-4676.537180435972" y1="-7900.0" x2="-4676.537180435972" y2="-7800.0" stroke-width="4" stroke="black" />
<line x1="-4676.537180435972" y1="-7800.0" x2="-4763.139720814416" y2="-7750.0" stroke-width="4" stroke="black" />
<line x1="-4763.139720814416" y1="-7750.0" x2="-4849.7422611928605" y2="-7800.0" stroke-width="4" stroke="black" />
<line x1="-4849.7422611928605" y1="-7800.0" x2="-4849.7422611928605" y2="-7700.0" stroke-width="4" stroke="black" />
<line x1="-4849.7422611928605" y1="-7700.0" x2="-4936.344801571305" y2="-7650.0" stroke-width="4" stroke="black" />
<line x1="-4936.344801571305" y1="-7650.0" x2="-4849.7422611928605" y2="-7600.0" stroke-width="4" stroke="black" />
<line x1="-4849.7422611928605" y1="-7600.0" x2="-4849.7422611928605" y2="-7500.0" stroke-width="4" stroke="black" />
<line x1="-4849.7422611928605" y1="-7500.0" x2="-4763.139720814416" y2="-7550.0" stroke-width="4" stroke="black" />
<line x1="-4763.139720814416" y1="-7550.0" x2="-4676.537180435972" y2="-7500.0" stroke-width="4" stroke="black" />
<line x1="-4676.537180435972" y1="-7500.0" x2="-4676.537180435972" y2="-7400.0" stroke-width="4" stroke="black" />
<line x1="-4676.537180435972" y1="-7400.0" x2="-4763.139720814416" y2="-7350.0" stroke-width="4" stroke="black" />
<line x1="-4763.139720814416" y1="-7350.0" x2="-4676.537180435972" y2="-7300.0" stroke-width="4" stroke="black" />
<line x1="-4676.537180435972" y1="-7300.0" x2="-4676.537180435972" y2="-7200.0" stroke-width="4" stroke="black" />
<line x1="-4676.537180435972" y1="-7200.0" x2="-4763.139720814416" y2="-7150.0" stroke-width="4" stroke="black" />
<line x1="-4763.139720814416" y1="-7150.0" x2="-4849.7422611928605" y2="-7200.0" stroke-width="4" stroke="black" />
<line x1="-4849.7422611928605" y1="-7200.0" x2="-4849.7422611928605" y2="-7100.0" stroke-width="4" stroke="black" />
<line x1="-4849.7422611928605" y1="-7100.0" x2="-4936.344801571305" y2="-7050.0" stroke-width="4" stroke="black" />
<line x1="-4936.344801571305" y1="-7050.0" x2="-5022.947341949749" y2="-7100.0" stroke-width="4" stroke="black" />
<line x1="-5022.947341949749" y1="-7100.0" x2="-5022.947341949749" y2="-7200.0" stroke-width="4" stroke="black" />
<line x1="-5022.947341949749" y1="-7200.0" x2="-5109.549882328193" y2="-7150.0" stroke-width="4" stroke="black" />
<line x1="-5109.549882328193" y1="-7150.0" x2="-5196.1524227066375" y2="-7200.0" stroke-width="4" stroke="black" />
<line x1="-5196.1524227066375" y1="-7200.0" x2="-5196.1524227066375" y2="-7100.0" stroke-width="4" stroke="black" />
<line x1="-5196.1524227066375" y1="-7100.0" x2="-5282.754963085082" y2="-7050.0" stroke-width="4" stroke="black" />
<line x1="-5282.754963085082" y1="-7050.0" x2="-5196.1524227066375" y2="-7000.0" stroke-width="4" stroke="black" />
<line x1="-5196.1524227066375" y1="-7000.0" x2="-5196.1524227066375" y2="-6900.0" stroke-width="4" stroke="black" />
<line x1="-5196.1524227066375" y1="-6900.0" x2="-5282.754963085082" y2="-6850.0" stroke-width="4" stroke="black" />
<line x1="-5282.754963085082" y1="-6850.0" x2="-5369.357503463526" y2="-6900.0" stroke-width="4" stroke="black" />
<line x1="-5369.357503463526" y1="-6900.0" x2="-5369.357503463526" y2="-6800.0" stroke-width="4" stroke="black" />
<line x1="-5369.357503463526" y1="-6800.0" x2="-5455.96004384197" y2="-6750.0" stroke-width="4" stroke="black" />
<line x1="-5455.96004384197" y1="-6750.0" x2="-5369.357503463526" y2="-6700.0" stroke-width="4" stroke="black" />
<line x1="-5369.357503463526" y1="-6700.0" x2="-5369.357503463526" y2="-6600.0" stroke-width="4" stroke="black" />
<line x1="-5369.357503463526" y1="-6600.0" x2="-5282.754963085082" y2="-6650.0" stroke-width="4" stroke="black" />
<line x1="-5282.754963085082" y1="-6650.0" x2="-5196.1524227066375" y2="-6600.0" stroke-width="4" stroke="black" />
<line x1="-5196.1524227066375" y1="-6600.0" x2="-5196.1524227066375" y2="-6500.0" stroke-width="4" stroke="black" />
<line x1="-5196.1524227066375" y1="-6500.0" x2="-5282.754963085082" y2="-6450.0" stroke-width="4" stroke="black" />
<line x1="-5282.754963085082" y1="-6450.0" x2="-5196.1524227066375" y2="-6400.0" stroke-width="4" stroke="black" />
<line x1="-5196.1524227066375" y1="-6400.0" x2="-5196.1524227066375" y2="-6300.0" stroke-width="4" stroke="black" />
<line x1="-5196.1524227066375" y1="-6300.0" x2="-5109.549882328193" y2="-6350.0" stroke-width="4" stroke="black" />
<line x1="-5109.549882328193" y1="-6350.0" x2="-5022.947341949749" y2="-6300.0" stroke-width="4" stroke="black" />
<line x1="-5022.947341949749" y1="-6300.0" x2="-5022.947341949749" y2="-6400.0" stroke-width="4" stroke="black" />
<line x1="-5022.947341949749" y1="-6400.0" x2="-4936.344801571305" y2="-6450.0" stroke-width="4" stroke="black" />
<line x1="-4936.344801571305" y1="-6450.0" x2="-4849.7422611928605" y2="-6400.0" stroke-width="4" stroke="black" />
<line x1="-4849.7422611928605" y1="-6400.0" x2="-4849.7422611928605" y2="-6300.0" stroke-width="4" stroke="black" />
<line x1="-4849.7422611928605" y1="-6300.0" x2="-4763.139720814416" y2="-6350.0" stroke-width="4" stroke="black" />
<line x1="-4763.139720814416" y1="-6350.0" x2="-4676.537180435972" y2="-6300.0" stroke-width="4" stroke="black" />
<line x1="-4676.537180435972" y1="-6300.0" x2="-4676.537180435972" y2="-6200.0" stroke-width="4" stroke="black" />
<line x1="-4676.537180435972" y1="-6200.0" x2="-4763.139720814416" y2="-6150.0" stroke-width="4" stroke="black" />
<line x1="-4763.139720814416" y1="-6150.0" x2="-4676.537180435972" y2="-6100.0" stroke-width="4" stroke="black" />
<line x1="-4676.537180435972" y1="-6100.0" x2="-4676.537180435972" y2="-6000.0" stroke-width="4" stroke="black" />
<line x1="-4676.537180435972" y1="-6000.0" x2="-4763.139720814416" y2="-5950.0" stroke-width="4" stroke="black" />
<line x1="-4763.139720814416" y1="-5950.0" x2="-4849.7422611928605" y2="-6000.0" stroke-width="4" stroke="black" />
<line x1="-4849.7422611928605" y1="-6000.0" x2="-4849.7422611928605" y2="-5900.0" stroke-width="4" stroke="black" />
<line x1="-4849.7422611928605" y1="-5900.0" x2="-4936.344801571305" y2="-5850.0" stroke-width="4" stroke="black" />
<line x1="-4936.344801571305" y1="-5850.0" x2="-4849.7422611928605" y2="-5800.0" stroke-width="4" stroke="black" />
<line x1="-4849.7422611928605" y1="-5800.0" x2="-4849.7422611928605" y2="-5700.0" stroke-width="4" stroke="black" />
<line x1="-4849.7422611928605" y1="-5700.0" x2="-4763.139720814416" y2="-5750.0" stroke-width="4" stroke="black" />
<line x1="-4763.139720814416" y1="-5750.0" x2="-4676.537180435972" y2="-5700.0" stroke-width="4" stroke="black" />
<line x1="-4676.537180435972" y1="-5700.0" x2="-4676.537180435972" y2="-5600.0" stroke-width="4" stroke="black" />
<line x1="-4676.537180435972" y1="-5600.0" x2="-4763.139720814416" y2="-5550.0" stroke-width="4" stroke="black" />
<line x1="-4763.139720814416" y1="-5550.0" x2="-4676.537180435972" y2="-5500.0" stroke-width="4" stroke="black" />
<line x1="-4676.537180435972" y1="-5500.0" x2="-4676.537180435972" y2="-5400.0" stroke-width="4" stroke="black" />
<line x1="-4676.537180435972" y1="-5400.0" x2="-4763.139720814416" y2="-5350.0" stroke-width="4" stroke="black" />
<line x1="-4763.139720814416" y1="-5350.0" x2="-4849.7422611928605" y2="-5400.0" stroke-width="4" stroke="black" />
<line x1="-4849.7422611928605" y1="-5400.0" x2="-4849.7422611928605" y2="-5300.0" stroke-width="4" stroke="black" />
<line x1="-4849.7422611928605" y1="-5300.0" x2="-4936.344801571305" y2="-5250.0" stroke-width="4" stroke="black" />
<line x1="-4936.344801571305" y1="-5250.0" x2="-5022.947341949749" y2="-5300.0" stroke-width="4" stroke="black" />
<line x1="-5022.947341949749" y1="-5300.0" x2="-5022.947341949749" y2="-5400.0" stroke-width="4" stroke="black" />
<line x1="-5022.947341949749" y1="-5400.0" x2="-5109.549882328193" y2="-5350.0" stroke-width="4" stroke="black" />
<line x1="-5109.549882328193" y1="-5350.0" x2="-5196.1524227066375" y2="-5400.0" stroke-width="4" stroke="black" />
<line x1="-5196.1524227066375" y1="-5400.0" x2="-5196.1524227066375" y2="-5300.0" stroke-width="4" stroke="black" />
<line x1="-5196.1524227066375" y1="-5300.0" x2="-5282.754963085082" y2="-5250.0" stroke-width="4" stroke="black" />
<line x1="-5282.754963085082" y1="-5250.0" x2="-5196.1524227066375" y2="-5200.0" stroke-width="4" stroke="black" />
<line x1="-5196.1524227066375" y1="-5200.0" x2="-5196.1524227066375" y2="-5100.0" stroke-width="4" stroke="black" />
<line x1="-5196.1524227066375" y1="-5100.0" x2="-5282.754963085082" y2="-5050.0" stroke-width="4" stroke="black" />
<line x1="-5282.754963085082" y1="-5050.0" x2="-5369.357503463526" y2="-5100.0" stroke-width="4" stroke="black" />
<line x1="-5369.357503463526" y1="-5100.0" x2="-5369.357503463526" y2="-5000.0" stroke-width="4" stroke="black" />
<line x1="-5369.357503463526" y1="-5000.0" x2="-5455.96004384197" y2="-4950.0" stroke-width="4" stroke="black" />
<line x1="-5455.96004384197" y1="-4950.0" x2="-5542.5625842204145" y2="-5000.0" stroke-width="4" stroke="black" />
<line x1="-5542.5625842204145" y1="-5000.0" x2="-5542.5625842204145" y2="-5100.0" stroke-width="4" stroke="black" />
<line x1="-5542.5625842204145" y1="-5100.0" x2="-5629.165124598859" y2="-5050.0" stroke-width="4" stroke="black" />
<line x1="-5629.165124598859" y1="-5050.0" x2="-5715.767664977303" y2="-5100.0" stroke-width="4" stroke="black" />
<line x1="-5715.767664977303" y1="-5100.0" x2="-5715.767664977303" y2="-5200.0" stroke-width="4" stroke="black" />
<line x1="-5715.767664977303" y1="-5200.0" x2="-5629.165124598859" y2="-5250.0" stroke-width="4" stroke="black" />
<line x1="-5629.165124598859" y1="-5250.0" x2="-5715.767664977303" y2="-5300.0" stroke-width="4" stroke="black" />
<line x1="-5715.767664977303" y1="-5300.0" x2="-5715.767664977303" y2="-5400.0" stroke-width="4" stroke="black" />
<line x1="-5715.767664977303" y1="-5400.0" x2="-5802.370205355747" y2="-5350.0" stroke-width="4" stroke="black" />
<line x1="-5802.370205355747" y1="-5350.0" x2="-5888.972745734191" y2="-5400.0" stroke-width="4" stroke="black" />
<line x1="-5888.972745734191" y1="-5400.0" x2="-5888.972745734191" y2="-5300.0" stroke-width="4" stroke="black" />
<line x1="-5888.972745734191" y1="-5300.0" x2="-5975.575286112636" y2="-5250.0" stroke-width="4" stroke="black" />
<line x1="-5975.575286112636" y1="-5250.0" x2="-6062.17782649108" y2="-5300.0" stroke-width="4" stroke="black" />
<line x1="-6062.17782649108" y1="-5300.0" x2="-6062.17782649108" y2="-5400.0" stroke-width="4" stroke="black" />
<line x1="-6062.17782649108" y1="-5400.0" x2="-6148.780366869524" y2="-5350.0" stroke-width="4" stroke="black" />
<line x1="-6148.780366869524" y1="-5350.0" x2="-6235.382907247968" y2="-5400.0" stroke-width="4" stroke="black" />
<line x1="-6235.382907247968" y1="-5400.0" x2="-6235.382907247968" y2="-5300.0" stroke-width="4" stroke="black" />
<line x1="-6235.382907247968" y1="-5300.0" x2="-6321.985447626413" y2="-5250.0" stroke-width="4" stroke="black" />
<line x1="-6321.985447626413" y1="-5250.0" x2="-6235.382907247968" y2="-5200.0" stroke-width="4" stroke="black" />
<line x1="-6235.382907247968" y1="-5200.0" x2="-6235.382907247968" y2="-5100.0" stroke-width="4" stroke="black" />
<line x1="-6235.382907247968" y1="-5100.0" x2="-6321.985447626413" y2="-5050.0" stroke-width="4" stroke="black" />
<line x1="-6321.985447626413" y1="-5050.0" x2="-6408.587988004857" y2="-5100.0" stroke-width="4" stroke="black" />
<line x1="-6408.587988004857" y1="-5100.0" x2="-6408.587988004857" y2="-5000.0" stroke-width="4" stroke="black" />
<line x1="-6408.587988004857" y1="-5000.0" x2="-6495.190528383301" y2="-4950.0" stroke-width="4" stroke="black" />
<line x1="-6495.190528383301" y1="-4950.0" x2="-6408.587988004857" y2="-4900.0" stroke-width="4" stroke="black" />
<line x1="-6408.587988004857" y1="-4900.0" x2="-6408.587988004857" y2="-4800.0" stroke-width="4" stroke="black" />
<line x1="-6408.587988004857" y1="-4800.0" x2="-6321.985447626413" y2="-4850.0" stroke-width="4" stroke="black" />
<line x1="-6321.985447626413" y1="-4850.0" x2="-6235.382907247968" y2="-4800.0" stroke-width="4" stroke="black" />
<line x1="-6235.382907247968" y1="-4800.0" x2="-6235.382907247968" y2="-4700.0" stroke-width="4" stroke="black" />
<line x1="-6235.382907247968" y1="-4700.0" x2="-6321.985447626413" y2="-4650.0" stroke-width="4" stroke="black" />
<line x1="-6321.985447626413" y1="-4650.0" x2="-6235.382907247968" y2="-4600.0" stroke-width="4" stroke="black" />
<line x1="-6235.382907247968" y1="-4600.0" x2="-6235.382907247968" y2="-4500.0" stroke-width="4" stroke="black" />
<line x1="-6235.382907247968" y1="-4500.0" x2="-6321.985447626413" y2="-4450.0" stroke-width="4" stroke="black" />
<line x1="-6321.985447626413" y1="-4450.0" x2="-6408.587988004857" y2="-4500.0" stroke-width="4" stroke="black" />
<line x1="-6408.587988004857" y1="-4500.0" x2="-6408.587988004857" y2="-4400.0" stroke-width="4" stroke="black" />
<line x1="-6408.587988004857" y1="-4400.0" x2="-6495.190528383301" y2="-4350.0" stroke-width="4" stroke="black" />
<line x1="-6495.190528383301" y1="-4350.0" x2="-6581.793068761745" y2="-4400.0" stroke-width="4" stroke="black" />
<line x1="-6581.793068761745" y1="-4400.0" x2="-6581.793068761745" y2="-4500.0" stroke-width="4" stroke="black" />
<line x1="-6581.793068761745" y1="-4500.0" x2="-6668.39560914019" y2="-4450.0" stroke-width="4" stroke="black" />
<line x1="-6668.39560914019" y1="-4450.0" x2="-6754.998149518634" y2="-4500.0" stroke-width="4" stroke="black" />
<line x1="-6754.998149518634" y1="-4500.0" x2="-6754.998149518634" y2="-4400.0" stroke-width="4" stroke="black" />
<line x1="-6754.998149518634" y1="-4400.0" x2="-6841.600689897078" y2="-4350.0" stroke-width="4" stroke="black" />
<line x1="-6841.600689897078" y1="-4350.0" x2="-6754.998149518634" y2="-4300.0" stroke-width="4" stroke="black" />
<line x1="-6754.998149518634" y1="-4300.0" x2="-6754.998149518634" y2="-4200.0" stroke-width="4" stroke="black" />
<line x1="-6754.998149518634" y1="-4200.0" x2="-6841.600689897078" y2="-4150.0" stroke-width="4" stroke="black" />
<line x1="-6841.600689897078" y1="-4150.0" x2="-6928.203230275522" y2="-4200.0" stroke-width="4" stroke="black" />
<line x1="-6928.203230275522" y1="-4200.0" x2="-6928.203230275522" y2="-4100.0" stroke-width="4" stroke="black" />
<line x1="-6928.203230275522" y1="-4100.0" x2="-7014.805770653967" y2="-4050.0" stroke-width="4" stroke="black" />
<line x1="-7014.805770653967" y1="-4050.0" x2="-6928.203230275522" y2="-4000.0" stroke-width="4" stroke="black" />
<line x1="-6928.203230275522" y1="-4000.0" x2="-6928.203230275522" y2="-3900.0" stroke-width="4" stroke="black" />
<line x1="-6928.203230275522" y1="-3900.0" x2="-6841.600689897078" y2="-3950.0" stroke-width="4" stroke="black" />
<line x1="-6841.600689897078" y1="-3950.0" x2="-6754.998149518634" y2="-3900.0" stroke-width="4" stroke="black" />
<line x1="-6754.998149518634" y1="-3900.0" x2="-6754.998149518634" y2="-3800.0" stroke-width="4" stroke="black" />
<line x1="-6754.998149518634" y1="-3800.0" x2="-6841.600689897078" y2="-3750.0" stroke-width="4" stroke="black" />
<line x1="-6841.600689897078" y1="-3750.0" x2="-6754.998149518634" y2="-3700.0" stroke-width="4" stroke="black" />
<line x1="-6754.998149518634" y1="-3700.0" x2="-6754.998149518634" y2="-3600.0" stroke-width="4" stroke="black" />
<line x1="-6754.998149518634" y1="-3600.0" x2="-6668.39560914019" y2="-3650.0" stroke-width="4" stroke="black" />
<line x1="-6668.39560914019" y1="-3650.0" x2="-6581.793068761745" y2="-3600.0" stroke-width="4" stroke="black" />
<line x1="-6581.793068761745" y1="-3600.0" x2="-6581.793068761745" y2="-3700.0" stroke-width="4" stroke="black" />
<line x1="-6581.793068761745" y1="-3700.0" x2="-6495.190528383301" y2="-3750.0" stroke-width="4" stroke="black" />
<line x1="-6495.190528383301" y1="-3750.0" x2="-6408.587988004857" y2="-3700.0" stroke-width="4" stroke="black" />
<line x1="-6408.587988004857" y1="-3700.0" x2="-6408.587988004857" y2="-3600.0" stroke-width="4" stroke="black" />
<line x1="-6408.587988004857" y1="-3600.0" x2="-6321.985447626413" y2="-3650.0" stroke-width="4" stroke="black" />
<line x1="-6321.985447626413" y1="-3650.0" x2="-6235.382907247968" y2="-3600.0" stroke-width="4" stroke="black" />
<line x1="-6235.382907247968" y1="-3600.0" x2="-6235.382907247968" y2="-3500.0" stroke-width="4" stroke="black" />
<line x1="-6235.382907247968" y1="-3500.0" x2="-6321.985447626413" y2="-3450.0" stroke-width="4" stroke="black" />
<line x1="-6321.985447626413" y1="-3450.0" x2="-6235.382907247968" y2="-3400.0" stroke-width="4" stroke="black" />
<line x1="-6235.382907247968" y1="-3400.0" x2="-6235.382907247968" y2="-3300.0" stroke-width="4" stroke="black" />
<line x1="-6235.382907247968" y1="-3300.0" x2="-6321.985447626413" y2="-3250.0" stroke-width="4" stroke="black" />
<line x1="-6321.985447626413" y1="-3250.0" x2="-6408.587988004857" y2="-3300.0" stroke-width="4" stroke="black" />
<line x1="-6408.587988004857" y1="-3300.0" x2="-6408.587988004857" y2="-3200.0" stroke-width="4" stroke="black" />
<line x1="-6408.587988004857" y1="-3200.0" x2="-6495.190528383301" y2="-3150.0" stroke-width="4" stroke="black" />
<line x1="-6495.190528383301" y1="-3150.0" x2="-6408.587988004857" y2="-3100.0" stroke-width="4" stroke="black" />
<line x1="-6408.587988004857" y1="-3100.0" x2="-6408.587988004857" y2="-3000.0" stroke-width="4" stroke="black" />
<line x1="-6408.587988004857" y1="-3000.0" x2="-6321.985447626413" y2="-3050.0" stroke-width="4" stroke="black" />
<line x1="-6321.985447626413" y1="-3050.0" x2="-6235.382907247968" y2="-3000.0" stroke-width="4" stroke="black" />
<line x1="-6235.382907247968" y1="-3000.0" x2="-6235.382907247968" y2="-2900.0" stroke-width="4" stroke="black" />
<line x1="-6235.382907247968" y1="-2900.0" x2="-6321.985447626413" y2="-2850.0" stroke-width="4" stroke="black" />
<line x1="-6321.985447626413" y1="-2850.0" x2="-6235.382907247968" y2="-2800.0" stroke-width="4" stroke="black" />
<line x1="-6235.382907247968" y1="-2800.0" x2="-6235.382907247968" y2="-2700.0" stroke-width="4" stroke="black" />
<line x1="-6235.382907247968" y1="-2700.0" x2="-6148.780366869524" y2="-2750.0" stroke-width="4" stroke="black" />
<line x1="-6148.780366869524" y1="-2750.0" x2="-6062.17782649108" y2="-2700.0" stroke-width="4" stroke="black" />
<line x1="-6062.17782649108" y1="-2700.0" x2="-6062.17782649108" y2="-2800.0" stroke-width="4" stroke="black" />
<line x1="-6062.17782649108" y1="-2800.0" x2="-5975.575286112636" y2="-2850.0" stroke-width="4" stroke="black" />
<line x1="-5975.575286112636" y1="-2850.0" x2="-5888.972745734191" y2="-2800.0" stroke-width="4" stroke="black" />
<line x1="-5888.972745734191" y1="-2800.0" x2="-5888.972745734191" y2="-2700.0" stroke-width="4" stroke="black" />
<line x1="-5888.972745734191" y1="-2700.0" x2="-5802.370205355747" y2="-2750.0" stroke-width="4" stroke="black" />
<line x1="-5802.370205355747" y1="-2750.0" x2="-5715.767664977303" y2="-2700.0" stroke-width="4" stroke="black" />
<line x1="-5715.767664977303" y1="-2700.0" x2="-5715.767664977303" y2="-2800.0" stroke-width="4" stroke="black" />
<line x1="-5715.767664977303" y1="-2800.0" x2="-5629.165124598859" y2="-2850.0" stroke-width="4" stroke="black" />
<line x1="-5629.165124598859" y1="-2850.0" x2="-5715.767664977303" y2="-2900.0" stroke-width="4" stroke="black" />
<line x1="-5715.767664977303" y1="-2900.0" x2="-5715.767664977303" y2="-3000.0" stroke-width="4" stroke="black" />
<line x1="-5715.767664977303" y1="-3000.0" x2="-5629.165124598859" y2="-3050.0" stroke-width="4" stroke="black" />
<line x1="-5629.165124598859" y1="-3050.0" x2="-5542.5625842204145" y2="-3000.0" stroke-width="4" stroke="black" />
<line x1="-5542.5625842204145" y1="-3000.0" x2="-5542.5625842204145" y2="-3100.0" stroke-width="4" stroke="black" />
<line x1="-5542.5625842204145" y1="-3100.0" x2="-5455.96004384197" y2="-3150.0" stroke-width="4" stroke="black" />
<line x1="-5455.96004384197" y1="-3150.0" x2="-5369.357503463526" y2="-3100.0" stroke-width="4" stroke="black" />
<line x1="-5369.357503463526" y1="-3100.0" x2="-5369.357503463526" y2="-3000.0" stroke-width="4" stroke="black" />
<line x1="-5369.357503463526" y1="-3000.0" x2="-5282.754963085082" y2="-3050.0" stroke-width="4" stroke="black" />
<line x1="-5282.754963085082" y1="-3050.0" x2="-5196.1524227066375" y2="-3000.0" stroke-width="4" stroke="black" />
<line x1="-5196.1524227066375" y1="-3000.0" x2="-5196.1524227066375" y2="-2900.0" stroke-width="4" stroke="black" />
<line x1="-5196.1524227066375" y1="-2900.0" x2="-5282.754963085082" y2="-2850.0" stroke-width="4" stroke="black" />
<line x1="-5282.754963085082" y1="-2850.0" x2="-5196.1524227066375" y2="-2800.0" stroke-width="4" stroke="black" />
<line x1="-5196.1524227066375" y1="-2800.0" x2="-5196.1524227066375" y2="-2700.0" stroke-width="4" stroke="black" />
<line x1="-5196.1524227066375" y1="-2700.0" x2="-5109.549882328193" y2="-2750.0" stroke-width="4" stroke="black" />
<line x1="-5109.549882328193" y1="-2750.0" x2="-5022.947341949749" y2="-2700.0" stroke-width="4" stroke="black" />
<line x1="-5022.947341949749" y1="-2700.0" x2="-5022.947341949749" y2="-2800.0" stroke-width="4" stroke="black" />
<line x1="-5022.947341949749" y1="-2800.0" x2="-4936.344801571305" y2="-2850.0" stroke-width="4" stroke="black" />
<line x1="-4936.344801571305" y1="-2850.0" x2="-4849.7422611928605" y2="-2800.0" stroke-width="4" stroke="black" />
<line x1="-4849.7422611928605" y1="-2800.0" x2="-4849.7422611928605" y2="-2700.0" stroke-width="4" stroke="black" />
<line x1="-4849.7422611928605" y1="-2700.0" x2="-4763.139720814416" y2="-2750.0" stroke-width="4" stroke="black" />
<line x1="-4763.139720814416" y1="-2750.0" x2="-4676.537180435972" y2="-2700.0" stroke-width="4" stroke="black" />
<line x1="-4676.537180435972" y1="-2700.0" x2="-4676.537180435972" y2="-2600.0" stroke-width="4" stroke="black" />
<line x1="-4676.537180435972" y1="-2600.0" x2="-4763.139720814416" y2="-2550.0" stroke-width="4" stroke="black" />
<line x1="-4763.139720814416" y1="-2550.0" x2="-4676.537180435972" y2="-2500.0" stroke-width="4" stroke="black" />
<line x1="-4676.537180435972" y1="-2500.0" x2="-4676.537180435972" y2="-2400.0" stroke-width="4" stroke="black" />
<line x1="-4676.537180435972" y1="-2400.0" x2="-4763.139720814416" y2="-2350.0" stroke-width="4" stroke="black" />
<line x1="-4763.139720814416" y1="-2350.0" x2="-4849.7422611928605" y2="-2400.0" stroke-width="4" stroke="black" />
<line x1="-4849.7422611928605" y1="-2400.0" x2="-4849.7422611928605" y2="-2300.0" stroke-width="4" stroke="black" />
<line x1="-4849.7422611928605" y1="-2300.0" x2="-4936.344801571305" y2="-2250.0" stroke-width="4" stroke="black" />
<line x1="-4936.344801571305" y1="-2250.0" x2="-4849.7422611928605" y2="-2200.0" stroke-width="4" stroke="black" />
<line x1="-4849.7422611928605" y1="-2200.0" x2="-4849.7422611928605" y2="-2100.0" stroke-width="4" stroke="black" />
<line x1="-4849.7422611928605" y1="-2100.0" x2="-4763.139720814416" y2="-2150.0" stroke-width="4" stroke="black" />
<line x1="-4763.139720814416" y1="-2150.0" x2="-4676.537180435972" y2="-2100.0" stroke-width="4" stroke="black" />
<line x1="-4676.537180435972" y1="-2100.0" x2="-4676.537180435972" y2="-2000.0" stroke-width="4" stroke="black" />
<line x1="-4676.537180435972" y1="-2000.0" x2="-4763.139720814416" y2="-1950.0" stroke-width="4" stroke="black" />
<line x1="-4763.139720814416" y1="-1950.0" x2="-4676.537180435972" y2="-1900.0" stroke-width="4" stroke="black" />
<line x1="-4676.537180435972" y1="-1900.0" x2="-4676.537180435972" y2="-1800.0" stroke-width="4" stroke="black" />
<line x1="-4676.537180435972" y1="-1800.0" x2="-4763.139720814416" y2="-1750.0" stroke-width="4" stroke="black" />
<line x1="-4763.139720814416" y1="-1750.0" x2="-4849.7422611928605" y2="-1800.0" stroke-width="4" stroke="black" />
<line x1="-4849.7422611928605" y1="-1800.0" x2="-4849.7422611928605" y2="-1700.0" stroke-width="4" stroke="black" />
<line x1="-4849.7422611928605" y1="-1700.0" x2="-4936.344801571305" y2="-1650.0" stroke-width="4" stroke="black" />
<line x1="-4936.344801571305" y1="-1650.0" x2="-5022.947341949749" y2="-1700.0" stroke-width="4" stroke="black" />
<line x1="-5022.947341949749" y1="-1700.0" x2="-5022.947341949749" y2="-1800.0" stroke-width="4" stroke="black" />
<line x1="-5022.947341949749" y1="-1800.0" x2="-5109.549882328193" y2="-1750.0" stroke-width="4" stroke="black" />
<line x1="-5109.549882328193" y1="-1750.0" x2="-5196.1524227066375" y2="-1800.0" stroke-width="4" stroke="black" />
<line x1="-5196.1524227066375" y1="-1800.0" x2="-5196.1524227066375" y2="-1700.0" stroke-width="4" stroke="black" />
<line x1="-5196.1524227066375" y1="-1700.0" x2="-5282.754963085082" y2="-1650.0" stroke-width="4" stroke="black" />
<line x1="-5282.754963085082" y1="-1650.0" x2="-5196.1524227066375" y2="-1600.0" stroke-width="4" stroke="black" />
<line x1="-5196.1524227066375" y1="-1600.0" x2="-5196.1524227066375" y2="-1500.0" stroke-width="4" stroke="black" />
<line x1="-5196.1524227066375" y1="-1500.0" x2="-5282.754963085082" y2="-1450.0" stroke-width="4" stroke="black" />
<line x1="-5282.754963085082" y1="-1450.0" x2="-5369.357503463526" y2="-1500.0" stroke-width="4" stroke="black" />
<line x1="-5369.357503463526" y1="-1500.0" x2="-5369.357503463526" y2="-1400.0" stroke-width="4" stroke="black" />
<line x1="-5369.357503463526" y1="-1400.0" x2="-5455.96004384197" y2="-1350.0" stroke-width="4" stroke="black" />
<line x1="-5455.96004384197" y1="-1350.0" x2="-5369.357503463526" y2="-1300.0" stroke-width="4" stroke="black" />
<line x1="-5369.357503463526" y1="-1300.0" x2="-5369.357503463526" y2="-1200.0" stroke-width="4" stroke="black" />
<line x1="-5369.357503463526" y1="-1200.0" x2="-5282.754963085082" y2="-1250.0" stroke-width="4" stroke="black" />
<line x1="-5282.754963085082" y1="-1250.0" x2="-5196.1524227066375" y2="-1200.0" stroke-width="4" stroke="black" />
<line x1="-5196.1524227066375" y1="-1200.0" x2="-5196.1524227066375" y2="-1100.0" stroke-width="4" stroke="black" />
<line x1="-5196.1524227066375" y1="-1100.0" x2="-5282.754963085082" y2="-1050.0" stroke-width="4" stroke="black" />
<line x1="-5282.754963085082" y1="-1050.0" x2="-5196.1524227066375" y2="-1000.0" stroke-width="4" stroke="black" />
<line x1="-5196.1524227066375" y1="-1000.0" x2="-5196.1524227066375" y2="-900.0" stroke-width="4" stroke="black" />
<line x1="-5196.1524227066375" y1="-900.0" x2="-5109.549882328193" y2="-950.0" stroke-width="4" stroke="black" />
<line x1="-5109.549882328193" y1="-950.0" x2="-5022.947341949749" y2="-900.0" stroke-width="4" stroke="black" />
<line x1="-5022.947341949749" y1="-900.0" x2="-5022.947341949749" y2="-1000.0" stroke-width="4" stroke="black" />
<line x1="-5022.947341949749" y1="-1000.0" x2="-4936.344801571305" y2="-1050.0" stroke-width="4" stroke="black" />
<line x1="-4936.344801571305" y1="-1050.0" x2="-4849.7422611928605" y2="-1000.0" stroke-width="4" stroke="black" />
<line x1="-4849.7422611928605" y1="-1000.0" x2="-4849.7422611928605" y2="-900.0" stroke-width="4" stroke="black" />
<line x1="-4849.7422611928605" y1="-900.0" x2="-4763.139720814416" y2="-950.0" stroke-width="4" stroke="black" />
<line x1="-4763.139720814416" y1="-950.0" x2="-4676.537180435972" y2="-900.0" stroke-width="4" stroke="black" />
<line x1="-4676.537180435972" y1="-900.0" x2="-4676.537180435972" y2="-800.0" stroke-width="4" stroke="black" />
<line x1="-4676.537180435972" y1="-800.0" x2="-4763.139720814416" y2="-750.0" stroke-width="4" stroke="black" />
<line x1="-4763.139720814416" y1="-750.0" x2="-4676.537180435972" y2="-700.0" stroke-width="4" stroke="black" />
<line x1="-4676.537180435972" y1="-700.0" x2="-4676.537180435972" y2="-600.0" stroke-width="4" stroke="black" />
<line x1="-4676.537180435972" y1="-600.0" x2="-4763.139720814416" y2="-550.0" stroke-width="4" stroke="black" />
<line x1="-4763.139720814416" y1="-550.0" x2="-4849.7422611928605" y2="-600.0" stroke-width="4" stroke="black" />
<line x1="-4849.7422611928605" y1="-600.0" x2="-4849.7422611928605" y2="-500.0" stroke-width="4" stroke="black" />
<line x1="-4849.7422611928605" y1="-500.0" x2="-4936.344801571305" y2="-450.0" stroke-width="4" stroke="black" />
<line x1="-4936.344801571305" y1="-450.0" x2="-4849.7422611928605" y2="-400.0" stroke-width="4" stroke="black" />
<line x1="-4849.7422611928605" y1="-400.0" x2="-4849.7422611928605" y2="-300.0" stroke-width="4" stroke="black" />
<line x1="-4849.7422611928605" y1="-300.0" x2="-4763.139720814416" y2="-350.0" stroke-width="4" stroke="black" />
<line x1="-4763.139720814416" y1="-350.0" x2="-4676.537180435972" y2="-300.0" stroke-width="4" stroke="black" />
<line x1="-4676.537180435972" y1="-300.0" x2="-4676.537180435972" y2="-200.0" stroke-width="4" stroke="black" />
<line x1="-4676.537180435972" y1="-200.0" x2="-4763.139720814416" y2="-150.0" stroke-width="4" stroke="black" />
<line x1="-4763.139720814416" y1="-150.0" x2="-4676.537180435972" y2="-100.0" stroke-width="4" stroke="black" />
<line x1="-4676.537180435972" y1="-100.0" x2="-4676.537180435972" y2="0.0" stroke-width="4" stroke="black" />
<line x1="-4676.537180435972" y1="0.0" x2="-4589.934640057528" y2="-49.99999999999999" stroke-width="4" stroke="black" />
<line x1="-4589.934640057528" y1="-49.99999999999999" x2="-4503.3320996790835" y2="0.0" stroke-width="4" stroke="black" />
<line x1="-4503.3320996790835" y1="0.0" x2="-4503.3320996790835" y2="-100.0" stroke-width="4" stroke="black" />
<line x1="-4503.3320996790835" y1="-100.0" x2="-4416.729559300639" y2="-150.0" stroke-width="4" stroke="black" />
<line x1="-4416.729559300639" y1="-150.0" x2="-4330.127018922195" y2="-100.0" stroke-width="4" stroke="black" />
<line x1="-4330.127018922195" y1="-100.0" x2="-4330.127018922195" y2="0.0" stroke-width="4" stroke="black" />
<line x1="-4330.127018922195" y1="0.0" x2="-4243.524478543751" y2="-49.99999999999999" stroke-width="4" stroke="black" />
<line x1="-4243.524478543751" y1="-49.99999999999999" x2="-4156.9219381653065" y2="0.0" stroke-width="4" stroke="black" />
<line x1="-4156.9219381653065" y1="0.0" x2="-4156.9219381653065" y2="-100.0" stroke-width="4" stroke="black" />
<line x1="-4156.9219381653065" y1="-100.0" x2="-4070.3193977868627" y2="-150.0" stroke-width="4" stroke="black" />
<line x1="-4070.3193977868627" y1="-150.0" x2="-4156.9219381653065" y2="-200.0" stroke-width="4" stroke="black" />
<line x1="-4156.9219381653065" y1="-200.0" x2="-4156.9219381653065" y2="-300.0" stroke-width="4" stroke="black" />
<line x1="-4156.9219381653065" y1="-300.0" x2="-4070.3193977868627" y2="-350.0" stroke-width="4" stroke="black" />
<line x1="-4070.3193977868627" y1="-350.0" x2="-3983.716857408419" y2="-300.0" stroke-width="4" stroke="black" />
<line x1="-3983.716857408419" y1="-300.0" x2="-3983.716857408419" y2="-400.0" stroke-width="4" stroke="black" />
<line x1="-3983.716857408419" y1="-400.0" x2="-3897.114317029975" y2="-450.0" stroke-width="4" stroke="black" />
<line x1="-3897.114317029975" y1="-450.0" x2="-3810.5117766515314" y2="-400.0" stroke-width="4" stroke="black" />
<line x1="-3810.5117766515314" y1="-400.0" x2="-3810.5117766515314" y2="-300.0" stroke-width="4" stroke="black" />
<line x1="-3810.5117766515314" y1="-300.0" x2="-3723.9092362730876" y2="-350.0" stroke-width="4" stroke="black" />
<line x1="-3723.9092362730876" y1="-350.0" x2="-3637.306695894644" y2="-300.0" stroke-width="4" stroke="black" />
<line x1="-3637.306695894644" y1="-300.0" x2="-3637.306695894644" y2="-200.0" stroke-width="4" stroke="black" />
<line x1="-3637.306695894644" y1="-200.0" x2="-3723.9092362730876" y2="-150.0" stroke-width="4" stroke="black" />
<line x1="-3723.9092362730876" y1="-150.0" x2="-3637.306695894644" y2="-100.0" stroke-width="4" stroke="black" />
<line x1="-3637.306695894644" y1="-100.0" x2="-3637.306695894644" y2="0.0" stroke-width="4" stroke="black" />
<line x1="-3637.306695894644" y1="0.0" x2="-3550.7041555162" y2="-49.99999999999999" stroke-width="4" stroke="black" />
<line x1="-3550.7041555162" y1="-49.99999999999999" x2="-3464.101615137756" y2="0.0" stroke-width="4" stroke="black" />
<line x1="-3464.101615137756" y1="0.0" x2="-3464.101615137756" y2="-100.0" stroke-width="4" stroke="black" />
<line x1="-3464.101615137756" y1="-100.0" x2="-3377.4990747593124" y2="-150.0" stroke-width="4" stroke="black" />
<line x1="-3377.4990747593124" y1="-150.0" x2="-3290.8965343808686" y2="-100.0" stroke-width="4" stroke="black" />
<line x1="-3290.8965343808686" y1="-100.0" x2="-3290.8965343808686" y2="0.0" stroke-width="4" stroke="black" />
<line x1="-3290.8965343808686" y1="0.0" x2="-3204.293994002425" y2="-49.99999999999999" stroke-width="4" stroke="black" />
<line x1="-3204.293994002425" y1="-49.99999999999999" x2="-3117.691453623981" y2="0.0" stroke-width="4" stroke="black" />
<line x1="-3117.691453623981" y1="0.0" x2="-3117.691453623981" y2="-100.0" stroke-width="4" stroke="black" />
<line x1="-3117.691453623981" y1="-100.0" x2="-3031.0889132455372" y2="-150.0" stroke-width="4" stroke="black" />
<line x1="-3031.0889132455372" y1="-150.0" x2="-3117.691453623981" y2="-200.0" stroke-width="4" stroke="black" />
<line x1="-3117.691453623981" y1="-200.0" x2="-3117.691453623981" y2="-300.0" stroke-width="4" stroke="black" />
<line x1="-3117.691453623981" y1="-300.0" x2="-3031.0889132455372" y2="-350.0" stroke-width="4" stroke="black" />
<line x1="-3031.0889132455372" y1="-350.0" x2="-2944.4863728670935" y2="-300.0" stroke-width="4" stroke="black" />
<line x1="-2944.4863728670935" y1="-300.0" x2="-2944.4863728670935" y2="-400.0" stroke-width="4" stroke="black" />
<line x1="-2944.4863728670935" y1="-400.0" x2="-2857.8838324886497" y2="-450.0" stroke-width="4" stroke="black" />
<line x1="-2857.8838324886497" y1="-450.0" x2="-2944.4863728670935" y2="-500.0" stroke-width="4" stroke="black" />
<line x1="-2944.4863728670935" y1="-500.0" x2="-2944.4863728670935" y2="-600.0" stroke-width="4" stroke="black" />
<line x1="-2944.4863728670935" y1="-600.0" x2="-3031.0889132455372" y2="-550.0" stroke-width="4" stroke="black" />
<line x1="-3031.0889132455372" y1="-550.0" x2="-3117.691453623981" y2="-600.0" stroke-width="4" stroke="black" />
<line x1="-3117.691453623981" y1="-600.0" x2="-3117.691453623981" y2="-700.0" stroke-width="4" stroke="black" />
<line x1="-3117.691453623981" y1="-700.0" x2="-3031.0889132455372" y2="-750.0" stroke-width="4" stroke="black" />
<line x1="-3031.0889132455372" y1="-750.0" x2="-3117.691453623981" y2="-800.0" stroke-width="4" stroke="black" />
<line x1="-3117.691453623981" y1="-800.0" x2="-3117.691453623981" y2="-900.0" stroke-width="4" stroke="black" />
<line x1="-3117.691453623981" y1="-900.0" x2="-3031.0889132455372" y2="-950.0" stroke-width="4" stroke="black" />
<line x1="-3031.0889132455372" y1="-950.0" x2="-2944.4863728670935" y2="-900.0" stroke-width="4" stroke="black" />
<line x1="-2944.4863728670935" y1="-900.0" x2="-2944.4863728670935" y2="-1000.0" stroke-width="4" stroke="black" />
<line x1="-2944.4863728670935" y1="-1000.0" x2="-2857.8838324886497" y2="-1050.0" stroke-width="4" stroke="black" />
<line x1="-2857.8838324886497" y1="-1050.0" x2="-2771.281292110206" y2="-1000.0" stroke-width="4" stroke="black" />
<line x1="-2771.281292110206" y1="-1000.0" x2="-2771.281292110206" y2="-900.0" stroke-width="4" stroke="black" />
<line x1="-2771.281292110206" y1="-900.0" x2="-2684.678751731762" y2="-950.0" stroke-width="4" stroke="black" />
<line x1="-2684.678751731762" y1="-950.0" x2="-2598.0762113533183" y2="-900.0" stroke-width="4" stroke="black" />
<line x1="-2598.0762113533183" y1="-900.0" x2="-2598.0762113533183" y2="-1000.0" stroke-width="4" stroke="black" />
<line x1="-2598.0762113533183" y1="-1000.0" x2="-2511.4736709748745" y2="-1050.0" stroke-width="4" stroke="black" />
<line x1="-2511.4736709748745" y1="-1050.0" x2="-2598.0762113533183" y2="-1100.0" stroke-width="4" stroke="black" />
<line x1="-2598.0762113533183" y1="-1100.0" x2="-2598.0762113533183" y2="-1200.0" stroke-width="4" stroke="black" />
<line x1="-2598.0762113533183" y1="-1200.0" x2="-2511.4736709748745" y2="-1250.0" stroke-width="4" stroke="black" />
<line x1="-2511.4736709748745" y1="-1250.0" x2="-2424.8711305964307" y2="-1200.0" stroke-width="4" stroke="black" />
<line x1="-2424.8711305964307" y1="-1200.0" x2="-2424.8711305964307" y2="-1300.0" stroke-width="4" stroke="black" />
<line x1="-2424.8711305964307" y1="-1300.0" x2="-2338.268590217987" y2="-1350.0" stroke-width="4" stroke="black" />
<line x1="-2338.268590217987" y1="-1350.0" x2="-2251.666049839543" y2="-1300.0" stroke-width="4" stroke="black" />
<line x1="-2251.666049839543" y1="-1300.0" x2="-2251.666049839543" y2="-1200.0" stroke-width="4" stroke="black" />
<line x1="-2251.666049839543" y1="-1200.0" x2="-2165.0635094610993" y2="-1250.0" stroke-width="4" stroke="black" />
<line x1="-2165.0635094610993" y1="-1250.0" x2="-2078.4609690826555" y2="-1200.0" stroke-width="4" stroke="black" />
<line x1="-2078.4609690826555" y1="-1200.0" x2="-2078.4609690826555" y2="-1100.0" stroke-width="4" stroke="black" />
<line x1="-2078.4609690826555" y1="-1100.0" x2="-2165.0635094610993" y2="-1050.0" stroke-width="4" stroke="black" />
<line x1="-2165.0635094610993" y1="-1050.0" x2="-2078.4609690826555" y2="-1000.0" stroke-width="4" stroke="black" />
<line x1="-2078.4609690826555" y1="-1000.0" x2="-2078.4609690826555" y2="-900.0" stroke-width="4" stroke="black" />
<line x1="-2078.4609690826555" y1="-900.0" x2="-1991.8584287042117" y2="-950.0" stroke-width="4" stroke="black" />
<line x1="-1991.8584287042117" y1="-950.0" x2="-1905.255888325768" y2="-900.0" stroke-width="4" stroke="black" />
<line x1="-1905.255888325768" y1="-900.0" x2="-1905.255888325768" y2="-1000.0" stroke-width="4" stroke="black" />
<line x1="-1905.255888325768" y1="-1000.0" x2="-1818.6533479473242" y2="-1050.0" stroke-width="4" stroke="black" />
<line x1="-1818.6533479473242" y1="-1050.0" x2="-1732.0508075688804" y2="-1000.0" stroke-width="4" stroke="black" />
<line x1="-1732.0508075688804" y1="-1000.0" x2="-1732.0508075688804" y2="-900.0" stroke-width="4" stroke="black" />
<line x1="-1732.0508075688804" y1="-900.0" x2="-1645.4482671904366" y2="-950.0" stroke-width="4" stroke="black" />
<line x1="-1645.4482671904366" y1="-950.0" x2="-1558.8457268119928" y2="-900.0" stroke-width="4" stroke="black" />
<line x1="-1558.8457268119928" y1="-900.0" x2="-1558.8457268119928" y2="-800.0" stroke-width="4" stroke="black" />
<line x1="-1558.8457268119928" y1="-800.0" x2="-1645.4482671904366" y2="-750.0" stroke-width="4" stroke="black" />
<line x1="-1645.4482671904366" y1="-750.0" x2="-1558.8457268119928" y2="-700.0" stroke-width="4" stroke="black" />
<line x1="-1558.8457268119928" y1="-700.0" x2="-1558.8457268119928" y2="-600.0" stroke-width="4" stroke="black" />
<line x1="-1558.8457268119928" y1="-600.0" x2="-1645.4482671904366" y2="-550.0" stroke-width="4" stroke="black" />
<line x1="-1645.4482671904366" y1="-550.0" x2="-1732.0508075688804" y2="-600.0" stroke-width="4" stroke="black" />
<line x1="-1732.0508075688804" y1="-600.0" x2="-1732.0508075688804" y2="-500.0" stroke-width="4" stroke="black" />
<line x1="-1732.0508075688804" y1="-500.0" x2="-1818.6533479473242" y2="-450.0" stroke-width="4" stroke="black" />
<line x1="-1818.6533479473242" y1="-450.0" x2="-1732.0508075688804" y2="-400.0" stroke-width="4" stroke="black" />
<line x1="-1732.0508075688804" y1="-400.0" x2="-1732.0508075688804" y2="-300.0" stroke-width="4" stroke="black" />
<line x1="-1732.0508075688804" y1="-300.0" x2="-1645.4482671904366" y2="-350.0" stroke-width="4" stroke="black" />
<line x1="-1645.4482671904366" y1="-350.0" x2="-1558.8457268119928" y2="-300.0" stroke-width="4" stroke="black" />
<line x1="-1558.8457268119928" y1="-300.0" x2="-1558.8457268119928" y2="-200.0" stroke-width="4" stroke="black" />
<line x1="-1558.8457268119928" y1="-200.0" x2="-1645.4482671904366" y2="-150.0" stroke-width="4" stroke="black" />
<line x1="-1645.4482671904366" y1="-150.0" x2="-1558.8457268119928" y2="-100.0" stroke-width="4" stroke="black" />
<line x1="-1558.8457268119928" y1="-100.0" x2="-1558.8457268119928" y2="0.0" stroke-width="4" stroke="black" />
<line x1="-1558.8457268119928" y1="0.0" x2="-1472.243186433549" y2="-49.99999999999999" stroke-width="4" stroke="black" />
<line x1="-1472.243186433549" y1="-49.99999999999999" x2="-1385.6406460551052" y2="0.0" stroke-width="4" stroke="black" />
<line x1="-1385.6406460551052" y1="0.0" x2="-1385.6406460551052" y2="-100.0" stroke-width="4" stroke="black" />
<line x1="-1385.6406460551052" y1="-100.0" x2="-1299.0381056766614" y2="-150.0" stroke-width="4" stroke="black" />
<line x1="-1299.0381056766614" y1="-150.0" x2="-1212.4355652982176" y2="-100.0" stroke-width="4" stroke="black" />
<line x1="-1212.4355652982176" y1="-100.0" x2="-1212.4355652982176" y2="0.0" stroke-width="4" stroke="black" />
<line x1="-1212.4355652982176" y1="0.0" x2="-1125.8330249197738" y2="-49.99999999999999" stroke-width="4" stroke="black" />
<line x1="-1125.8330249197738" y1="-49.99999999999999" x2="-1039.23048454133" y2="0.0" stroke-width="4" stroke="black" />
<line x1="-1039.23048454133" y1="0.0" x2="-1039.23048454133" y2="-100.0" stroke-width="4" stroke="black" />
<line x1="-1039.23048454133" y1="-100.0" x2="-952.6279441628861" y2="-150.0" stroke-width="4" stroke="black" />
<line x1="-952.6279441628861" y1="-150.0" x2="-1039.23048454133" y2="-200.0" stroke-width="4" stroke="black" />
<line x1="-1039.23048454133" y1="-200.0" x2="-1039.23048454133" y2="-300.0" stroke-width="4" stroke="black" />
<line x1="-1039.23048454133" y1="-300.0" x2="-952.6279441628861" y2="-350.0" stroke-width="4" stroke="black" />
<line x1="-952.6279441628861" y1="-350.0" x2="-866.0254037844422" y2="-300.0" stroke-width="4" stroke="black" />
<line x1="-866.0254037844422" y1="-300.0" x2="-866.0254037844422" y2="-400.0" stroke-width="4" stroke="black" />
<line x1="-866.0254037844422" y1="-400.0" x2="-779.4228634059983" y2="-450.0" stroke-width="4" stroke="black" />
<line x1="-779.4228634059983" y1="-450.0" x2="-692.8203230275544" y2="-400.0" stroke-width="4" stroke="black" />
<line x1="-692.8203230275544" y1="-400.0" x2="-692.8203230275544" y2="-300.0" stroke-width="4" stroke="black" />
<line x1="-692.8203230275544" y1="-300.0" x2="-606.2177826491105" y2="-350.0" stroke-width="4" stroke="black" />
<line x1="-606.2177826491105" y1="-350.0" x2="-519.6152422706666" y2="-300.0" stroke-width="4" stroke="black" />
<line x1="-519.6152422706666" y1="-300.0" x2="-519.6152422706666" y2="-200.0" stroke-width="4" stroke="black" />
<line x1="-519.6152422706666" y1="-200.0" x2="-606.2177826491105" y2="-150.0" stroke-width="4" stroke="black" />
<line x1="-606.2177826491105" y1="-150.0" x2="-519.6152422706666" y2="-100.0" stroke-width="4" stroke="black" />
<line x1="-519.6152422706666" y1="-100.0" x2="-519.6152422706666" y2="0.0" stroke-width="4" stroke="black" />
<line x1="-519.6152422706666" y1="0.0" x2="-433.0127018922227" y2="-49.99999999999999" stroke-width="4" stroke="black" />
<line x1="-433.0127018922227" y1="-49.99999999999999" x2="-346.4101615137788" y2="0.0" stroke-width="4" stroke="black" />
<line x1="-346.4101615137788" y1="0.0" x2="-346.4101615137788" y2="-100.0" stroke-width="4" stroke="black" />
<line x1="-346.4101615137788" y1="-100.0" x2="-259.8076211353349" y2="-150.0" stroke-width="4" stroke="black" />
<line x1="-259.8076211353349" y1="-150.0" x2="-173.20508075689102" y2="-100.0" stroke-width="4" stroke="black" />
<line x1="-173.20508075689102" y1="-100.0" x2="-173.20508075689102" y2="0.0" stroke-width="4" stroke="black" />
<line x1="-173.20508075689102" y1="0.0" x2="-86.60254037844715" y2="-49.99999999999999" stroke-width="4" stroke="black" />
<line x1="-86.60254037844715" y1="-49.99999999999999" x2="-3.268496584496461E-12" y2="0.0" stroke-width="4" stroke="black" />
</svg>