<svg viewBox="-1299.0381056766582 -1600.0000000000002 1299.0381056766582 1600.0000000000002" xmlns="http://www.w3.org/2000/svg"><line x1="0" y1="0" x2="-1.8369701987210297E-14" y2="-100.0" stroke-width="4" stroke="black" />
<line x1="-1.8369701987210297E-14" y1="-100.0" x2="-86.60254037844388" y2="-150.0" stroke-width="4" stroke="black" />
<line x1="-86.60254037844388" y1="-150.0" x2="-173.20508075688775" y2="-100.0" stroke-width="4" stroke="black" />
<line x1="-173.20508075688775" y1="-100.0" x2="-259.8076211353316" y2="-150.0" stroke-width="4" stroke="black" />
<line x1="-259.8076211353316" y1="-150.0" x2="-259.8076211353316" y2="-250.0" stroke-width="4" stroke="black" />
<line x1="-259.8076211353316" y1="-250.0" x2="-173.20508075688775" y2="-300.00000000000006" stroke-width="4" stroke="black" />
<line x1="-173.20508075688775" y1="-300.00000000000006" x2="-86.60254037844389" y2="-250.00000000000006" stroke-width="4" stroke="black" />
<line x1="-86.60254037844389" y1="-250.00000000000006" x2="-5.684341886080802E-14" y2="-300.0000000000001" stroke-width="4" stroke="black" />
<line x1="-5.684341886080802E-14" y1="-300.0000000000001" x2="-7.521312084801831E-14" y2="-400.0000000000001" stroke-width="4" stroke="black" />
<line x1="-7.521312084801831E-14" y1="-400.0000000000001" x2="-86.60254037844393" y2="-450.0000000000001" stroke-width="4" stroke="black" />
<line x1="-86.60254037844393" y1="-450.0000000000001" x2="-86.60254037844395" y2="-550.0000000000001" stroke-width="4" stroke="black" />
<line x1="-86.60254037844395" y1="-550.0000000000001" x2="-1.1368683772161603E-13" y2="-600.0000000000001" stroke-width="4" stroke="black" />
<line x1="-1.1368683772161603E-13" y1="-600.0000000000001" x2="-1.3205653970882633E-13" y2="-700.0000000000001" stroke-width="4" stroke="black" />
<line x1="-1.3205653970882633E-13" y1="-700.0000000000001" x2="-86.60254037844399" y2="-750.0000000000001" stroke-width="4" stroke="black" />
<line x1="-86.60254037844399" y1="-750.0000000000001" x2="-173.20508075688787" y2="-700.0000000000001" stroke-width="4" stroke="black" />
<line x1="-173.20508075688787" y1="-700.0000000000001" x2="-173.20508075688787" y2="-600.0000000000001" stroke-width="4" stroke="black" />
<line x1="-173.20508075688787" y1="-600.0000000000001" x2="-259.8076211353317" y2="-550.0000000000001" stroke-width="4" stroke="black" />
<line x1="-259.8076211353317" y1="-550.0000000000001" x2="-346.41016151377556" y2="-600.0000000000001" stroke-width="4" stroke="black" />
<line x1="-346.41016151377556" y1="-600.0000000000001" x2="-433.0127018922194" y2="-550.0000000000001" stroke-width="4" stroke="black" />
<line x1="-433.0127018922194" y1="-550.0000000000001" x2="-433.0127018922194" y2="-450.0000000000001" stroke-width="4" stroke="black" />
<line x1="-433.0127018922194" y1="-450.0000000000001" x2="-346.4101615137755" y2="-400.0000000000001" stroke-width="4" stroke="black" />
<line x1="-346.4101615137755" y1="-400.0000000000001" x2="-346.4101615137755" y2="-300.0000000000001" stroke-width="4" stroke="black" />
<line x1="-346.4101615137755" y1="-300.0000000000001" x2="-433.0127018922194" y2="-250.0000000000001" stroke-width="4" stroke="black" />
<line x1="-433.0127018922194" y1="-250.0000000000001" x2="-519.6152422706633" y2="-300.0000000000001" stroke-width="4" stroke="black" />
<line x1="-519.6152422706633" y1="-300.0000000000001" x2="-519.6152422706633" y2="-400.0000000000001" stroke-width="4" stroke="black" />
<line x1="-519.6152422706633" y1="-400.0000000000001" x2="-606.2177826491072" y2="-450.0000000000001" stroke-width="4" stroke="black" />
<line x1="-606.2177826491072" y1="-450.0000000000001" x2="-692.8203230275511" y2="-400.0000000000001" stroke-width="4" stroke="black" />
<line x1="-692.8203230275511" y1="-400.0000000000001" x2="-779.422863405995" y2="-450.0000000000001" stroke-width="4" stroke="black" />
<line x1="-779.422863405995" y1="-450.0000000000001" x2="-779.422863405995" y2="-550.0000000000001" stroke-width="4" stroke="black" />
<line x1="-779.422863405995" y1="-550.0000000000001" x2="-692.8203230275512" y2="-600.0000000000001" stroke-width="4" stroke="black" />
<line x1="-692.8203230275512" y1="-600.0000000000001" x2="-692.8203230275512" y2="-700.0000000000001" stroke-width="4" stroke="black" />
<line x1="-692.8203230275512" y1="-700.0000000000001" x2="-779.4228634059951" y2="-750.0000000000001" stroke-width="4" stroke="black" />
<line x1="-779.4228634059951" y1="-750.0000000000001" x2="-866.025403784439" y2="-700.0000000000001" stroke-width="4" stroke="black" />
<line x1="-866.025403784439" y1="-700.0000000000001" x2="-866.025403784439" y2="-600.0000000000001" stroke-width="4" stroke="black" />
<line x1="-866.025403784439" y1="-600.0000000000001" x2="-952.627944162883" y2="-550.0000000000001" stroke-width="4" stroke="black" />
<line x1="-952.627944162883" y1="-550.0000000000001" x2="-1039.2304845413269" y2="-600.0000000000001" stroke-width="4" stroke="black" />
<line x1="-1039.2304845413269" y1="-600.0000000000001" x2="-1039.2304845413269" y2="-700.0000000000001" stroke-width="4" stroke="black" />
<line x1="-1039.2304845413269" y1="-700.0000000000001" x2="-1125.8330249197707" y2="-750.0000000000001" stroke-width="4" stroke="black" />
<line x1="-1125.8330249197707" y1="-750.0000000000001" x2="-1212.4355652982144" y2="-700.0000000000001" stroke-width="4" stroke="black" />
<line x1="-1212.4355652982144" y1="-700.0000000000001" x2="-1299.0381056766582" y2="-750.0000000000001" stroke-width="4" stroke="black" />
<line x1="-1299.0381056766582" y1="-750.0000000000001" x2="-1299.0381056766582" y2="-850.0000000000001" stroke-width="4" stroke="black" />
<line x1="-1299.0381056766582" y1="-850.0000000000001" x2="-1212.4355652982144" y2="-900.0000000000001" stroke-width="4" stroke="black" />
<line x1="-1212.4355652982144" y1="-900.0000000000001" x2="-1125.8330249197707" y2="-850.0000000000001" stroke-width="4" stroke="black" />
<line x1="-1125.8330249197707" y1="-850.0000000000001" x2="-1039.2304845413269" y2="-900.0000000000001" stroke-width="4" stroke="black" />
<line x1="-1039.2304845413269" y1="-900.0000000000001" x2="-1039.2304845413269" y2="-1000.0000000000001" stroke-width="4" stroke="black" />
<line x1="-1039.2304845413269" y1="-1000.0000000000001" x2="-952.6279441628831" y2="-1050.0000000000002" stroke-width="4" stroke="black" />
<line x1="-952.6279441628831" y1="-1050.0000000000002" x2="-866.0254037844392" y2="-1000.0000000000002" stroke-width="4" stroke="black" />
<line x1="-866.0254037844392" y1="-1000.0000000000002" x2="-866.0254037844392" y2="-900.0000000000002" stroke-width="4" stroke="black" />
<line x1="-866.0254037844392" y1="-900.0000000000002" x2="-779.4228634059953" y2="-850.0000000000002" stroke-width="4" stroke="black" />
<line x1="-779.4228634059953" y1="-850.0000000000002" x2="-692.8203230275515" y2="-900.0000000000002" stroke-width="4" stroke="black" />
<line x1="-692.8203230275515" y1="-900.0000000000002" x2="-692.8203230275515" y2="-1000.0000000000002" stroke-width="4" stroke="black" />
<line x1="-692.8203230275515" y1="-1000.0000000000002" x2="-779.4228634059954" y2="-1050.0000000000002" stroke-width="4" stroke="black" />
<line x1="-779.4228634059954" y1="-1050.0000000000002" x2="-779.4228634059954" y2="-1150.0000000000002" stroke-width="4" stroke="black" />
<line x1="-779.4228634059954" y1="-1150.0000000000002" x2="-692.8203230275516" y2="-1200.0000000000002" stroke-width="4" stroke="black" />
<line x1="-692.8203230275516" y1="-1200.0000000000002" x2="-606.2177826491077" y2="-1150.0000000000002" stroke-width="4" stroke="black" />
<line x1="-606.2177826491077" y1="-1150.0000000000002" x2="-519.6152422706639" y2="-1200.0000000000002" stroke-width="4" stroke="black" />
<line x1="-519.6152422706639" y1="-1200.0000000000002" x2="-519.6152422706639" y2="-1300.0000000000002" stroke-width="4" stroke="black" />
<line x1="-519.6152422706639" y1="-1300.0000000000002" x2="-433.01270189222004" y2="-1350.0000000000002" stroke-width="4" stroke="black" />
<line x1="-433.01270189222004" y1="-1350.0000000000002" x2="-346.4101615137762" y2="-1300.0000000000002" stroke-width="4" stroke="black" />
<line x1="-346.4101615137762" y1="-1300.0000000000002" x2="-346.41016151377613" y2="-1200.0000000000002" stroke-width="4" stroke="black" />
<line x1="-346.41016151377613" y1="-1200.0000000000002" x2="-433.01270189222" y2="-1150.0000000000002" stroke-width="4" stroke="black" />
<line x1="-433.01270189222" y1="-1150.0000000000002" x2="-433.0127018922199" y2="-1050.0000000000002" stroke-width="4" stroke="black" />
<line x1="-433.0127018922199" y1="-1050.0000000000002" x2="-346.4101615137761" y2="-1000.0000000000002" stroke-width="4" stroke="black" />
<line x1="-346.4101615137761" y1="-1000.0000000000002" x2="-259.8076211353322" y2="-1050.0000000000002" stroke-width="4" stroke="black" />
<line x1="-259.8076211353322" y1="-1050.0000000000002" x2="-173.20508075688838" y2="-1000.0000000000002" stroke-width="4" stroke="black" />
<line x1="-173.20508075688838" y1="-1000.0000000000002" x2="-173.20508075688835" y2="-900.0000000000002" stroke-width="4" stroke="black" />
<line x1="-173.20508075688835" y1="-900.0000000000002" x2="-86.60254037844449" y2="-850.0000000000002" stroke-width="4" stroke="black" />
<line x1="-86.60254037844449" y1="-850.0000000000002" x2="-6.536993168992922E-13" y2="-900.0000000000002" stroke-width="4" stroke="black" />
<line x1="-6.536993168992922E-13" y1="-900.0000000000002" x2="-6.720690188865025E-13" y2="-1000.0000000000002" stroke-width="4" stroke="black" />
<line x1="-6.720690188865025E-13" y1="-1000.0000000000002" x2="-86.60254037844453" y2="-1050.0000000000002" stroke-width="4" stroke="black" />
<line x1="-86.60254037844453" y1="-1050.0000000000002" x2="-86.60254037844454" y2="-1150.0000000000002" stroke-width="4" stroke="black" />
<line x1="-86.60254037844454" y1="-1150.0000000000002" x2="-7.105427357601002E-13" y2="-1200.0000000000002" stroke-width="4" stroke="black" />
<line x1="-7.105427357601002E-13" y1="-1200.0000000000002" x2="-7.289124377473105E-13" y2="-1300.0000000000002" stroke-width="4" stroke="black" />
<line x1="-7.289124377473105E-13" y1="-1300.0000000000002" x2="-86.60254037844459" y2="-1350.0000000000002" stroke-width="4" stroke="black" />
<line x1="-86.60254037844459" y1="-1350.0000000000002" x2="-173.20508075688846" y2="-1300.0000000000002" stroke-width="4" stroke="black" />
<line x1="-173.20508075688846" y1="-1300.0000000000002" x2="-259.80762113533234" y2="-1350.0000000000002" stroke-width="4" stroke="black" />
<line x1="-259.80762113533234" y1="-1350.0000000000002" x2="-259.80762113533234" y2="-1450.0000000000002" stroke-width="4" stroke="black" />
<line x1="-259.80762113533234" y1="-1450.0000000000002" x2="-173.2050807568885" y2="-1500.0000000000002" stroke-width="4" stroke="black" />
<line x1="-173.2050807568885" y1="-1500.0000000000002" x2="-86.60254037844463" y2="-1450.0000000000002" stroke-width="4" stroke="black" />
<line x1="-86.60254037844463" y1="-1450.0000000000002" x2="-7.958078640513122E-13" y2="-1500.0000000000002" stroke-width="4" stroke="black" />
<line x1="-7.958078640513122E-13" y1="-1500.0000000000002" x2="-8.141775660385225E-13" y2="-1600.0000000000002" stroke-width="4" stroke="black" />
</svg>