<svg viewBox="-1.7337242752546445E-12 -1600.0 1385.640646055102 1600.0" xmlns="http://www.w3.org/2000/svg"><line x1="0" y1="0" x2="-1.8369701987210297E-14" y2="-100.0" stroke-width="4" stroke="black" />
<line x1="-1.8369701987210297E-14" y1="-100.0" x2="86.60254037844385" y2="-50.0" stroke-width="4" stroke="black" />
<line x1="86.60254037844385" y1="-50.0" x2="86.60254037844383" y2="-150.0" stroke-width="4" stroke="black" />
<line x1="86.60254037844383" y1="-150.0" x2="-4.263256414560601E-14" y2="-100.0" stroke-width="4" stroke="black" />
<line x1="-4.263256414560601E-14" y1="-100.0" x2="-6.100226613281631E-14" y2="-200.0" stroke-width="4" stroke="black" />
<line x1="-6.100226613281631E-14" y1="-200.0" x2="86.6025403784438" y2="-150.0" stroke-width="4" stroke="black" />
<line x1="86.6025403784438" y1="-150.0" x2="173.20508075688767" y2="-100.0" stroke-width="4" stroke="black" />
<line x1="173.20508075688767" y1="-100.0" x2="173.20508075688764" y2="-200.0" stroke-width="4" stroke="black" />
<line x1="173.20508075688764" y1="-200.0" x2="259.8076211353315" y2="-150.0" stroke-width="4" stroke="black" />
<line x1="259.8076211353315" y1="-150.0" x2="259.8076211353315" y2="-250.0" stroke-width="4" stroke="black" />
<line x1="259.8076211353315" y1="-250.0" x2="173.2050807568876" y2="-200.0" stroke-width="4" stroke="black" />
<line x1="173.2050807568876" y1="-200.0" x2="173.20508075688758" y2="-300.0" stroke-width="4" stroke="black" />
<line x1="173.20508075688758" y1="-300.0" x2="86.6025403784437" y2="-250.0" stroke-width="4" stroke="black" />
<line x1="86.6025403784437" y1="-250.0" x2="-1.7053025658242404E-13" y2="-200.0" stroke-width="4" stroke="black" />
<line x1="-1.7053025658242404E-13" y1="-200.0" x2="-1.8889995856963434E-13" y2="-300.0" stroke-width="4" stroke="black" />
<line x1="-1.8889995856963434E-13" y1="-300.0" x2="86.60254037844368" y2="-250.0" stroke-width="4" stroke="black" />
<line x1="86.60254037844368" y1="-250.0" x2="86.60254037844366" y2="-350.0" stroke-width="4" stroke="black" />
<line x1="86.60254037844366" y1="-350.0" x2="-2.1316282072803006E-13" y2="-300.0" stroke-width="4" stroke="black" />
<line x1="-2.1316282072803006E-13" y1="-300.0" x2="-2.315325227152404E-13" y2="-400.0" stroke-width="4" stroke="black" />
<line x1="-2.315325227152404E-13" y1="-400.0" x2="86.60254037844363" y2="-350.0" stroke-width="4" stroke="black" />
<line x1="86.60254037844363" y1="-350.0" x2="173.2050807568875" y2="-300.0" stroke-width="4" stroke="black" />
<line x1="173.2050807568875" y1="-300.0" x2="259.8076211353314" y2="-250.0" stroke-width="4" stroke="black" />
<line x1="259.8076211353314" y1="-250.0" x2="346.4101615137752" y2="-200.0" stroke-width="4" stroke="black" />
<line x1="346.4101615137752" y1="-200.0" x2="346.4101615137752" y2="-300.0" stroke-width="4" stroke="black" />
<line x1="346.4101615137752" y1="-300.0" x2="433.01270189221907" y2="-250.0" stroke-width="4" stroke="black" />
<line x1="433.01270189221907" y1="-250.0" x2="433.01270189221907" y2="-350.0" stroke-width="4" stroke="black" />
<line x1="433.01270189221907" y1="-350.0" x2="346.41016151377517" y2="-300.0" stroke-width="4" stroke="black" />
<line x1="346.41016151377517" y1="-300.0" x2="346.41016151377517" y2="-400.0" stroke-width="4" stroke="black" />
<line x1="346.41016151377517" y1="-400.0" x2="433.012701892219" y2="-350.0" stroke-width="4" stroke="black" />
<line x1="433.012701892219" y1="-350.0" x2="519.6152422706629" y2="-300.0" stroke-width="4" stroke="black" />
<line x1="519.6152422706629" y1="-300.0" x2="519.6152422706629" y2="-400.0" stroke-width="4" stroke="black" />
<line x1="519.6152422706629" y1="-400.0" x2="606.2177826491068" y2="-350.0" stroke-width="4" stroke="black" />
<line x1="606.2177826491068" y1="-350.0" x2="606.2177826491068" y2="-450.0" stroke-width="4" stroke="black" />
<line x1="606.2177826491068" y1="-450.0" x2="519.6152422706629" y2="-400.0" stroke-width="4" stroke="black" />
<line x1="519.6152422706629" y1="-400.0" x2="519.6152422706629" y2="-500.0" stroke-width="4" stroke="black" />
<line x1="519.6152422706629" y1="-500.0" x2="433.01270189221896" y2="-450.0" stroke-width="4" stroke="black" />
<line x1="433.01270189221896" y1="-450.0" x2="346.41016151377505" y2="-400.0" stroke-width="4" stroke="black" />
<line x1="346.41016151377505" y1="-400.0" x2="346.41016151377505" y2="-500.0" stroke-width="4" stroke="black" />
<line x1="346.41016151377505" y1="-500.0" x2="433.0127018922189" y2="-450.0" stroke-width="4" stroke="black" />
<line x1="433.0127018922189" y1="-450.0" x2="433.0127018922189" y2="-550.0" stroke-width="4" stroke="black" />
<line x1="433.0127018922189" y1="-550.0" x2="346.41016151377505" y2="-500.0" stroke-width="4" stroke="black" />
<line x1="346.41016151377505" y1="-500.0" x2="346.41016151377505" y2="-600.0" stroke-width="4" stroke="black" />
<line x1="346.41016151377505" y1="-600.0" x2="259.80762113533115" y2="-550.0" stroke-width="4" stroke="black" />
<line x1="259.80762113533115" y1="-550.0" x2="173.20508075688727" y2="-500.0" stroke-width="4" stroke="black" />
<line x1="173.20508075688727" y1="-500.0" x2="86.6025403784434" y2="-450.0" stroke-width="4" stroke="black" />
<line x1="86.6025403784434" y1="-450.0" x2="-4.831690603168681E-13" y2="-400.0" stroke-width="4" stroke="black" />
<line x1="-4.831690603168681E-13" y1="-400.0" x2="-5.015387623040784E-13" y2="-500.0" stroke-width="4" stroke="black" />
<line x1="-5.015387623040784E-13" y1="-500.0" x2="86.60254037844336" y2="-450.0" stroke-width="4" stroke="black" />
<line x1="86.60254037844336" y1="-450.0" x2="86.60254037844335" y2="-550.0" stroke-width="4" stroke="black" />
<line x1="86.60254037844335" y1="-550.0" x2="-5.258016244624741E-13" y2="-500.0" stroke-width="4" stroke="black" />
<line x1="-5.258016244624741E-13" y1="-500.0" x2="-5.441713264496845E-13" y2="-600.0" stroke-width="4" stroke="black" />
<line x1="-5.441713264496845E-13" y1="-600.0" x2="86.60254037844332" y2="-550.0" stroke-width="4" stroke="black" />
<line x1="86.60254037844332" y1="-550.0" x2="173.20508075688718" y2="-500.0" stroke-width="4" stroke="black" />
<line x1="173.20508075688718" y1="-500.0" x2="173.20508075688716" y2="-600.0" stroke-width="4" stroke="black" />
<line x1="173.20508075688716" y1="-600.0" x2="259.80762113533103" y2="-550.0" stroke-width="4" stroke="black" />
<line x1="259.80762113533103" y1="-550.0" x2="259.80762113533103" y2="-650.0" stroke-width="4" stroke="black" />
<line x1="259.80762113533103" y1="-650.0" x2="173.20508075688716" y2="-600.0" stroke-width="4" stroke="black" />
<line x1="173.20508075688716" y1="-600.0" x2="173.20508075688713" y2="-700.0" stroke-width="4" stroke="black" />
<line x1="173.20508075688713" y1="-700.0" x2="86.60254037844325" y2="-650.0" stroke-width="4" stroke="black" />
<line x1="86.60254037844325" y1="-650.0" x2="-6.252776074688882E-13" y2="-600.0" stroke-width="4" stroke="black" />
<line x1="-6.252776074688882E-13" y1="-600.0" x2="-6.436473094560985E-13" y2="-700.0" stroke-width="4" stroke="black" />
<line x1="-6.436473094560985E-13" y1="-700.0" x2="86.60254037844322" y2="-650.0" stroke-width="4" stroke="black" />
<line x1="86.60254037844322" y1="-650.0" x2="86.60254037844321" y2="-750.0" stroke-width="4" stroke="black" />
<line x1="86.60254037844321" y1="-750.0" x2="-6.679101716144942E-13" y2="-700.0" stroke-width="4" stroke="black" />
<line x1="-6.679101716144942E-13" y1="-700.0" x2="-6.862798736017045E-13" y2="-800.0" stroke-width="4" stroke="black" />
<line x1="-6.862798736017045E-13" y1="-800.0" x2="86.60254037844318" y2="-750.0" stroke-width="4" stroke="black" />
<line x1="86.60254037844318" y1="-750.0" x2="173.20508075688704" y2="-700.0" stroke-width="4" stroke="black" />
<line x1="173.20508075688704" y1="-700.0" x2="259.8076211353309" y2="-650.0" stroke-width="4" stroke="black" />
<line x1="259.8076211353309" y1="-650.0" x2="346.41016151377477" y2="-600.0" stroke-width="4" stroke="black" />
<line x1="346.41016151377477" y1="-600.0" x2="433.0127018922186" y2="-550.0" stroke-width="4" stroke="black" />
<line x1="433.0127018922186" y1="-550.0" x2="519.6152422706625" y2="-500.0" stroke-width="4" stroke="black" />
<line x1="519.6152422706625" y1="-500.0" x2="606.2177826491064" y2="-450.0" stroke-width="4" stroke="black" />
<line x1="606.2177826491064" y1="-450.0" x2="692.8203230275503" y2="-400.0" stroke-width="4" stroke="black" />
<line x1="692.8203230275503" y1="-400.0" x2="692.8203230275503" y2="-500.0" stroke-width="4" stroke="black" />
<line x1="692.8203230275503" y1="-500.0" x2="779.4228634059942" y2="-450.0" stroke-width="4" stroke="black" />
<line x1="779.4228634059942" y1="-450.0" x2="779.4228634059942" y2="-550.0" stroke-width="4" stroke="black" />
<line x1="779.4228634059942" y1="-550.0" x2="692.8203230275503" y2="-500.0" stroke-width="4" stroke="black" />
<line x1="692.8203230275503" y1="-500.0" x2="692.8203230275503" y2="-600.0" stroke-width="4" stroke="black" />
<line x1="692.8203230275503" y1="-600.0" x2="779.4228634059942" y2="-550.0" stroke-width="4" stroke="black" />
<line x1="779.4228634059942" y1="-550.0" x2="866.0254037844381" y2="-500.0" stroke-width="4" stroke="black" />
<line x1="866.0254037844381" y1="-500.0" x2="866.0254037844381" y2="-600.0" stroke-width="4" stroke="black" />
<line x1="866.0254037844381" y1="-600.0" x2="952.627944162882" y2="-550.0" stroke-width="4" stroke="black" />
<line x1="952.627944162882" y1="-550.0" x2="952.627944162882" y2="-650.0" stroke-width="4" stroke="black" />
<line x1="952.627944162882" y1="-650.0" x2="866.0254037844381" y2="-600.0" stroke-width="4" stroke="black" />
<line x1="866.0254037844381" y1="-600.0" x2="866.0254037844381" y2="-700.0" stroke-width="4" stroke="black" />
<line x1="866.0254037844381" y1="-700.0" x2="779.4228634059942" y2="-650.0" stroke-width="4" stroke="black" />
<line x1="779.4228634059942" y1="-650.0" x2="692.8203230275503" y2="-600.0" stroke-width="4" stroke="black" />
<line x1="692.8203230275503" y1="-600.0" x2="692.8203230275503" y2="-700.0" stroke-width="4" stroke="black" />
<line x1="692.8203230275503" y1="-700.0" x2="779.4228634059942" y2="-650.0" stroke-width="4" stroke="black" />
<line x1="779.4228634059942" y1="-650.0" x2="779.4228634059942" y2="-750.0" stroke-width="4" stroke="black" />
<line x1="779.4228634059942" y1="-750.0" x2="692.8203230275503" y2="-700.0" stroke-width="4" stroke="black" />
<line x1="692.8203230275503" y1="-700.0" x2="692.8203230275503" y2="-800.0" stroke-width="4" stroke="black" />
<line x1="692.8203230275503" y1="-800.0" x2="779.4228634059942" y2="-750.0" stroke-width="4" stroke="black" />
<line x1="779.4228634059942" y1="-750.0" x2="866.0254037844381" y2="-700.0" stroke-width="4" stroke="black" />
<line x1="866.0254037844381" y1="-700.0" x2="952.627944162882" y2="-650.0" stroke-width="4" stroke="black" />
<line x1="952.627944162882" y1="-650.0" x2="1039.230484541326" y2="-600.0" stroke-width="4" stroke="black" />
<line x1="1039.230484541326" y1="-600.0" x2="1039.230484541326" y2="-700.0" stroke-width="4" stroke="black" />
<line x1="1039.230484541326" y1="-700.0" x2="1125.8330249197697" y2="-650.0" stroke-width="4" stroke="black" />
<line x1="1125.8330249197697" y1="-650.0" x2="1125.8330249197697" y2="-750.0" stroke-width="4" stroke="black" />
<line x1="1125.8330249197697" y1="-750.0" x2="1039.230484541326" y2="-700.0" stroke-width="4" stroke="black" />
<line x1="1039.230484541326" y1="-700.0" x2="1039.230484541326" y2="-800.0" stroke-width="4" stroke="black" />
<line x1="1039.230484541326" y1="-800.0" x2="1125.8330249197697" y2="-750.0" stroke-width="4" stroke="black" />
<line x1="1125.8330249197697" y1="-750.0" x2="1212.4355652982135" y2="-700.0" stroke-width="4" stroke="black" />
<line x1="1212.4355652982135" y1="-700.0" x2="1212.4355652982135" y2="-800.0" stroke-width="4" stroke="black" />
<line x1="1212.4355652982135" y1="-800.0" x2="1299.0381056766573" y2="-750.0" stroke-width="4" stroke="black" />
<line x1="1299.0381056766573" y1="-750.0" x2="1299.0381056766573" y2="-850.0" stroke-width="4" stroke="black" />
<line x1="1299.0381056766573" y1="-850.0" x2="1212.4355652982135" y2="-800.0" stroke-width="4" stroke="black" />
<line x1="1212.4355652982135" y1="-800.0" x2="1212.4355652982135" y2="-900.0" stroke-width="4" stroke="black" />
<line x1="1212.4355652982135" y1="-900.0" x2="1125.8330249197697" y2="-850.0" stroke-width="4" stroke="black" />
<line x1="1125.8330249197697" y1="-850.0" x2="1039.230484541326" y2="-800.0" stroke-width="4" stroke="black" />
<line x1="1039.230484541326" y1="-800.0" x2="1039.230484541326" y2="-900.0" stroke-width="4" stroke="black" />
<line x1="1039.230484541326" y1="-900.0" x2="1125.8330249197697" y2="-850.0" stroke-width="4" stroke="black" />
<line x1="1125.8330249197697" y1="-850.0" x2="1125.8330249197697" y2="-950.0" stroke-width="4" stroke="black" />
<line x1="1125.8330249197697" y1="-950.0" x2="1039.230484541326" y2="-900.0" stroke-width="4" stroke="black" />
<line x1="1039.230484541326" y1="-900.0" x2="1039.230484541326" y2="-1000.0" stroke-width="4" stroke="black" />
<line x1="1039.230484541326" y1="-1000.0" x2="952.627944162882" y2="-950.0" stroke-width="4" stroke="black" />
<line x1="952.627944162882" y1="-950.0" x2="866.0254037844381" y2="-900.0" stroke-width="4" stroke="black" />
<line x1="866.0254037844381" y1="-900.0" x2="779.4228634059942" y2="-850.0" stroke-width="4" stroke="black" />
<line x1="779.4228634059942" y1="-850.0" x2="692.8203230275503" y2="-800.0" stroke-width="4" stroke="black" />
<line x1="692.8203230275503" y1="-800.0" x2="692.8203230275503" y2="-900.0" stroke-width="4" stroke="black" />
<line x1="692.8203230275503" y1="-900.0" x2="779.4228634059942" y2="-850.0" stroke-width="4" stroke="black" />
<line x1="779.4228634059942" y1="-850.0" x2="779.4228634059942" y2="-950.0" stroke-width="4" stroke="black" />
<line x1="779.4228634059942" y1="-950.0" x2="692.8203230275503" y2="-900.0" stroke-width="4" stroke="black" />
<line x1="692.8203230275503" y1="-900.0" x2="692.8203230275503" y2="-1000.0" stroke-width="4" stroke="black" />
<line x1="692.8203230275503" y1="-1000.0" x2="779.4228634059942" y2="-950.0" stroke-width="4" stroke="black" />
<line x1="779.4228634059942" y1="-950.0" x2="866.0254037844381" y2="-900.0" stroke-width="4" stroke="black" />
<line x1="866.0254037844381" y1="-900.0" x2="866.0254037844381" y2="-1000.0" stroke-width="4" stroke="black" />
<line x1="866.0254037844381" y1="-1000.0" x2="952.627944162882" y2="-950.0" stroke-width="4" stroke="black" />
<line x1="952.627944162882" y1="-950.0" x2="952.627944162882" y2="-1050.0" stroke-width="4" stroke="black" />
<line x1="952.627944162882" y1="-1050.0" x2="866.0254037844381" y2="-1000.0" stroke-width="4" stroke="black" />
<line x1="866.0254037844381" y1="-1000.0" x2="866.0254037844381" y2="-1100.0" stroke-width="4" stroke="black" />
<line x1="866.0254037844381" y1="-1100.0" x2="779.4228634059942" y2="-1050.0" stroke-width="4" stroke="black" />
<line x1="779.4228634059942" y1="-1050.0" x2="692.8203230275503" y2="-1000.0" stroke-width="4" stroke="black" />
<line x1="692.8203230275503" y1="-1000.0" x2="692.8203230275503" y2="-1100.0" stroke-width="4" stroke="black" />
<line x1="692.8203230275503" y1="-1100.0" x2="779.4228634059942" y2="-1050.0" stroke-width="4" stroke="black" />
<line x1="779.4228634059942" y1="-1050.0" x2="779.4228634059942" y2="-1150.0" stroke-width="4" stroke="black" />
<line x1="779.4228634059942" y1="-1150.0" x2="692.8203230275503" y2="-1100.0" stroke-width="4" stroke="black" />
<line x1="692.8203230275503" y1="-1100.0" x2="692.8203230275503" y2="-1200.0" stroke-width="4" stroke="black" />
<line x1="692.8203230275503" y1="-1200.0" x2="606.2177826491064" y2="-1150.0" stroke-width="4" stroke="black" />
<line x1="606.2177826491064" y1="-1150.0" x2="519.6152422706625" y2="-1100.0" stroke-width="4" stroke="black" />
<line x1="519.6152422706625" y1="-1100.0" x2="433.0127018922186" y2="-1050.0" stroke-width="4" stroke="black" />
<line x1="433.0127018922186" y1="-1050.0" x2="346.4101615137747" y2="-1000.0" stroke-width="4" stroke="black" />
<line x1="346.4101615137747" y1="-1000.0" x2="259.8076211353308" y2="-950.0" stroke-width="4" stroke="black" />
<line x1="259.8076211353308" y1="-950.0" x2="173.20508075688693" y2="-900.0" stroke-width="4" stroke="black" />
<line x1="173.20508075688693" y1="-900.0" x2="86.60254037844305" y2="-850.0" stroke-width="4" stroke="black" />
<line x1="86.60254037844305" y1="-850.0" x2="-8.242295734817162E-13" y2="-800.0" stroke-width="4" stroke="black" />
<line x1="-8.242295734817162E-13" y1="-800.0" x2="-8.425992754689265E-13" y2="-900.0" stroke-width="4" stroke="black" />
<line x1="-8.425992754689265E-13" y1="-900.0" x2="86.60254037844302" y2="-850.0" stroke-width="4" stroke="black" />
<line x1="86.60254037844302" y1="-850.0" x2="86.60254037844301" y2="-950.0" stroke-width="4" stroke="black" />
<line x1="86.60254037844301" y1="-950.0" x2="-8.668621376273222E-13" y2="-900.0" stroke-width="4" stroke="black" />
<line x1="-8.668621376273222E-13" y1="-900.0" x2="-8.852318396145325E-13" y2="-1000.0" stroke-width="4" stroke="black" />
<line x1="-8.852318396145325E-13" y1="-1000.0" x2="86.60254037844298" y2="-950.0" stroke-width="4" stroke="black" />
<line x1="86.60254037844298" y1="-950.0" x2="173.20508075688684" y2="-900.0" stroke-width="4" stroke="black" />
<line x1="173.20508075688684" y1="-900.0" x2="173.20508075688682" y2="-1000.0" stroke-width="4" stroke="black" />
<line x1="173.20508075688682" y1="-1000.0" x2="259.8076211353307" y2="-950.0" stroke-width="4" stroke="black" />
<line x1="259.8076211353307" y1="-950.0" x2="259.8076211353307" y2="-1050.0" stroke-width="4" stroke="black" />
<line x1="259.8076211353307" y1="-1050.0" x2="173.20508075688682" y2="-1000.0" stroke-width="4" stroke="black" />
<line x1="173.20508075688682" y1="-1000.0" x2="173.2050807568868" y2="-1100.0" stroke-width="4" stroke="black" />
<line x1="173.2050807568868" y1="-1100.0" x2="86.60254037844291" y2="-1050.0" stroke-width="4" stroke="black" />
<line x1="86.60254037844291" y1="-1050.0" x2="-9.663381206337363E-13" y2="-1000.0" stroke-width="4" stroke="black" />
<line x1="-9.663381206337363E-13" y1="-1000.0" x2="-9.847078226209465E-13" y2="-1100.0" stroke-width="4" stroke="black" />
<line x1="-9.847078226209465E-13" y1="-1100.0" x2="86.60254037844288" y2="-1050.0" stroke-width="4" stroke="black" />
<line x1="86.60254037844288" y1="-1050.0" x2="86.60254037844287" y2="-1150.0" stroke-width="4" stroke="black" />
<line x1="86.60254037844287" y1="-1150.0" x2="-1.0089706847793423E-12" y2="-1100.0" stroke-width="4" stroke="black" />
<line x1="-1.0089706847793423E-12" y1="-1100.0" x2="-1.0273403867665525E-12" y2="-1200.0" stroke-width="4" stroke="black" />
<line x1="-1.0273403867665525E-12" y1="-1200.0" x2="86.60254037844284" y2="-1150.0" stroke-width="4" stroke="black" />
<line x1="86.60254037844284" y1="-1150.0" x2="173.2050807568867" y2="-1100.0" stroke-width="4" stroke="black" />
<line x1="173.2050807568867" y1="-1100.0" x2="259.8076211353306" y2="-1050.0" stroke-width="4" stroke="black" />
<line x1="259.8076211353306" y1="-1050.0" x2="346.4101615137744" y2="-1000.0" stroke-width="4" stroke="black" />
<line x1="346.4101615137744" y1="-1000.0" x2="346.4101615137744" y2="-1100.0" stroke-width="4" stroke="black" />
<line x1="346.4101615137744" y1="-1100.0" x2="433.0127018922183" y2="-1050.0" stroke-width="4" stroke="black" />
<line x1="433.0127018922183" y1="-1050.0" x2="433.0127018922183" y2="-1150.0" stroke-width="4" stroke="black" />
<line x1="433.0127018922183" y1="-1150.0" x2="346.41016151377437" y2="-1100.0" stroke-width="4" stroke="black" />
<line x1="346.41016151377437" y1="-1100.0" x2="346.41016151377437" y2="-1200.0" stroke-width="4" stroke="black" />
<line x1="346.41016151377437" y1="-1200.0" x2="433.0127018922182" y2="-1150.0" stroke-width="4" stroke="black" />
<line x1="433.0127018922182" y1="-1150.0" x2="519.6152422706621" y2="-1100.0" stroke-width="4" stroke="black" />
<line x1="519.6152422706621" y1="-1100.0" x2="519.6152422706621" y2="-1200.0" stroke-width="4" stroke="black" />
<line x1="519.6152422706621" y1="-1200.0" x2="606.217782649106" y2="-1150.0" stroke-width="4" stroke="black" />
<line x1="606.217782649106" y1="-1150.0" x2="606.217782649106" y2="-1250.0" stroke-width="4" stroke="black" />
<line x1="606.217782649106" y1="-1250.0" x2="519.6152422706621" y2="-1200.0" stroke-width="4" stroke="black" />
<line x1="519.6152422706621" y1="-1200.0" x2="519.6152422706621" y2="-1300.0" stroke-width="4" stroke="black" />
<line x1="519.6152422706621" y1="-1300.0" x2="433.01270189221816" y2="-1250.0" stroke-width="4" stroke="black" />
<line x1="433.01270189221816" y1="-1250.0" x2="346.41016151377426" y2="-1200.0" stroke-width="4" stroke="black" />
<line x1="346.41016151377426" y1="-1200.0" x2="346.41016151377426" y2="-1300.0" stroke-width="4" stroke="black" />
<line x1="346.41016151377426" y1="-1300.0" x2="433.0127018922181" y2="-1250.0" stroke-width="4" stroke="black" />
<line x1="433.0127018922181" y1="-1250.0" x2="433.0127018922181" y2="-1350.0" stroke-width="4" stroke="black" />
<line x1="433.0127018922181" y1="-1350.0" x2="346.41016151377426" y2="-1300.0" stroke-width="4" stroke="black" />
<line x1="346.41016151377426" y1="-1300.0" x2="346.41016151377426" y2="-1400.0" stroke-width="4" stroke="black" />
<line x1="346.41016151377426" y1="-1400.0" x2="259.80762113533035" y2="-1350.0" stroke-width="4" stroke="black" />
<line x1="259.80762113533035" y1="-1350.0" x2="173.20508075688647" y2="-1300.0" stroke-width="4" stroke="black" />
<line x1="173.20508075688647" y1="-1300.0" x2="86.6025403784426" y2="-1250.0" stroke-width="4" stroke="black" />
<line x1="86.6025403784426" y1="-1250.0" x2="-1.2789769243681803E-12" y2="-1200.0" stroke-width="4" stroke="black" />
<line x1="-1.2789769243681803E-12" y1="-1200.0" x2="-1.2973466263553906E-12" y2="-1300.0" stroke-width="4" stroke="black" />
<line x1="-1.2973466263553906E-12" y1="-1300.0" x2="86.60254037844257" y2="-1250.0" stroke-width="4" stroke="black" />
<line x1="86.60254037844257" y1="-1250.0" x2="86.60254037844255" y2="-1350.0" stroke-width="4" stroke="black" />
<line x1="86.60254037844255" y1="-1350.0" x2="-1.3216094885137863E-12" y2="-1300.0" stroke-width="4" stroke="black" />
<line x1="-1.3216094885137863E-12" y1="-1300.0" x2="-1.3399791905009966E-12" y2="-1400.0" stroke-width="4" stroke="black" />
<line x1="-1.3399791905009966E-12" y1="-1400.0" x2="86.60254037844253" y2="-1350.0" stroke-width="4" stroke="black" />
<line x1="86.60254037844253" y1="-1350.0" x2="173.2050807568864" y2="-1300.0" stroke-width="4" stroke="black" />
<line x1="173.2050807568864" y1="-1300.0" x2="173.20508075688636" y2="-1400.0" stroke-width="4" stroke="black" />
<line x1="173.20508075688636" y1="-1400.0" x2="259.80762113533024" y2="-1350.0" stroke-width="4" stroke="black" />
<line x1="259.80762113533024" y1="-1350.0" x2="259.80762113533024" y2="-1450.0" stroke-width="4" stroke="black" />
<line x1="259.80762113533024" y1="-1450.0" x2="173.20508075688636" y2="-1400.0" stroke-width="4" stroke="black" />
<line x1="173.20508075688636" y1="-1400.0" x2="173.20508075688633" y2="-1500.0" stroke-width="4" stroke="black" />
<line x1="173.20508075688633" y1="-1500.0" x2="86.60254037844246" y2="-1450.0" stroke-width="4" stroke="black" />
<line x1="86.60254037844246" y1="-1450.0" x2="-1.4210854715202004E-12" y2="-1400.0" stroke-width="4" stroke="black" />
<line x1="-1.4210854715202004E-12" y1="-1400.0" x2="-1.4394551735074106E-12" y2="-1500.0" stroke-width="4" stroke="black" />
<line x1="-1.4394551735074106E-12" y1="-1500.0" x2="86.60254037844243" y2="-1450.0" stroke-width="4" stroke="black" />
<line x1="86.60254037844243" y1="-1450.0" x2="86.60254037844241" y2="-1550.0" stroke-width="4" stroke="black" />
<line x1="86.60254037844241" y1="-1550.0" x2="-1.4637180356658064E-12" y2="-1500.0" stroke-width="4" stroke="black" />
<line x1="-1.4637180356658064E-12" y1="-1500.0" x2="-1.4820877376530166E-12" y2="-1600.0" stroke-width="4" stroke="black" />
<line x1="-1.4820877376530166E-12" y1="-1600.0" x2="86.60254037844238" y2="-1550.0" stroke-width="4" stroke="black" />
<line x1="86.60254037844238" y1="-1550.0" x2="173.20508075688625" y2="-1500.0" stroke-width="4" stroke="black" />
<line x1="173.20508075688625" y1="-1500.0" x2="259.8076211353301" y2="-1450.0" stroke-width="4" stroke="black" />
<line x1="259.8076211353301" y1="-1450.0" x2="346.41016151377397" y2="-1400.0" stroke-width="4" stroke="black" />
<line x1="346.41016151377397" y1="-1400.0" x2="433.0127018922178" y2="-1350.0" stroke-width="4" stroke="black" />
<line x1="433.0127018922178" y1="-1350.0" x2="519.6152422706617" y2="-1300.0" stroke-width="4" stroke="black" />
<line x1="519.6152422706617" y1="-1300.0" x2="606.2177826491056" y2="-1250.0" stroke-width="4" stroke="black" />
<line x1="606.2177826491056" y1="-1250.0" x2="692.8203230275495" y2="-1200.0" stroke-width="4" stroke="black" />
<line x1="692.8203230275495" y1="-1200.0" x2="779.4228634059934" y2="-1150.0" stroke-width="4" stroke="black" />
<line x1="779.4228634059934" y1="-1150.0" x2="866.0254037844373" y2="-1100.0" stroke-width="4" stroke="black" />
<line x1="866.0254037844373" y1="-1100.0" x2="952.6279441628812" y2="-1050.0" stroke-width="4" stroke="black" />
<line x1="952.6279441628812" y1="-1050.0" x2="1039.230484541325" y2="-1000.0" stroke-width="4" stroke="black" />
<line x1="1039.230484541325" y1="-1000.0" x2="1125.8330249197688" y2="-950.0" stroke-width="4" stroke="black" />
<line x1="1125.8330249197688" y1="-950.0" x2="1212.4355652982126" y2="-900.0" stroke-width="4" stroke="black" />
<line x1="1212.4355652982126" y1="-900.0" x2="1299.0381056766564" y2="-850.0" stroke-width="4" stroke="black" />
<line x1="1299.0381056766564" y1="-850.0" x2="1385.6406460551002" y2="-800.0" stroke-width="4" stroke="black" />
<line x1="1385.6406460551002" y1="-800.0" x2="1299.0381056766564" y2="-750.0" stroke-width="4" stroke="black" />
<line x1="1299.0381056766564" y1="-750.0" x2="1212.4355652982126" y2="-700.0" stroke-width="4" stroke="black" />
<line x1="1212.4355652982126" y1="-700.0" x2="1125.8330249197688" y2="-650.0" stroke-width="4" stroke="black" />
<line x1="1125.8330249197688" y1="-650.0" x2="1039.230484541325" y2="-600.0" stroke-width="4" stroke="black" />
<line x1="1039.230484541325" y1="-600.0" x2="952.6279441628811" y2="-550.0" stroke-width="4" stroke="black" />
<line x1="952.6279441628811" y1="-550.0" x2="866.0254037844372" y2="-500.0" stroke-width="4" stroke="black" />
<line x1="866.0254037844372" y1="-500.0" x2="779.4228634059933" y2="-450.0" stroke-width="4" stroke="black" />
<line x1="779.4228634059933" y1="-450.0" x2="692.8203230275494" y2="-400.0" stroke-width="4" stroke="black" />
<line x1="692.8203230275494" y1="-400.0" x2="606.2177826491055" y2="-350.0" stroke-width="4" stroke="black" />
<line x1="606.2177826491055" y1="-350.0" x2="519.6152422706616" y2="-300.0" stroke-width="4" stroke="black" />
<line x1="519.6152422706616" y1="-300.0" x2="433.0127018922177" y2="-250.00000000000003" stroke-width="4" stroke="black" />
<line x1="433.0127018922177" y1="-250.00000000000003" x2="346.4101615137738" y2="-200.00000000000006" stroke-width="4" stroke="black" />
<line x1="346.4101615137738" y1="-200.00000000000006" x2="259.8076211353299" y2="-150.00000000000009" stroke-width="4" stroke="black" />
<line x1="259.8076211353299" y1="-150.00000000000009" x2="173.20508075688602" y2="-100.00000000000011" stroke-width="4" stroke="black" />
<line x1="173.20508075688602" y1="-100.00000000000011" x2="86.60254037844214" y2="-50.000000000000135" stroke-width="4" stroke="black" />
<line x1="86.60254037844214" y1="-50.000000000000135" x2="-1.7337242752546445E-12" y2="-1.5631940186722204E-13" stroke-width="4" stroke="black" />
</svg>